New_Shree-Bold.ufo
<glyph name="bA" format="1">
  <advance width="596"/>
  <outline>
    <contour>
      <point x="426" y="131"/>
      <point x="366" y="57"/>
      <point x="271" y="57" type="curve" smooth="yes"/>
      <point x="155" y="57"/>
      <point x="60" y="167"/>
      <point x="-12" y="398" type="curve"/>
      <point x="40" y="419" type="line"/>
      <point x="117" y="211"/>
      <point x="182" y="178"/>
      <point x="243" y="178" type="curve" smooth="yes"/>
      <point x="309" y="178"/>
      <point x="355" y="217"/>
      <point x="355" y="270" type="curve" smooth="yes"/>
      <point x="355" y="309"/>
      <point x="329" y="341"/>
      <point x="290" y="341" type="curve" smooth="yes"/>
      <point x="283" y="341"/>
      <point x="274" y="340"/>
      <point x="266" y="338" type="curve"/>
      <point x="278" y="391" type="line"/>
      <point x="292" y="375"/>
      <point x="301" y="352"/>
      <point x="301" y="328" type="curve" smooth="yes"/>
      <point x="301" y="282"/>
      <point x="268" y="253"/>
      <point x="227" y="253" type="curve" smooth="yes"/>
      <point x="180" y="253"/>
      <point x="145" y="292"/>
      <point x="145" y="339" type="curve" smooth="yes"/>
      <point x="145" y="390"/>
      <point x="186" y="428"/>
      <point x="249" y="428" type="curve" smooth="yes"/>
      <point x="345" y="428"/>
      <point x="426" y="340"/>
      <point x="426" y="226" type="curve"/>
    </contour>
    <contour>
      <point x="-30" y="456" type="line"/>
      <point x="-30" y="521" type="line"/>
      <point x="626" y="521" type="line"/>
      <point x="626" y="456" type="line"/>
    </contour>
    <contour>
      <point x="546" y="466" type="line"/>
      <point x="546" y="0" type="line"/>
      <point x="486" y="0" type="line"/>
      <point x="479" y="78"/>
      <point x="429" y="139"/>
      <point x="370" y="157" type="curve"/>
      <point x="391" y="259" type="line"/>
      <point x="437" y="219"/>
      <point x="487" y="144"/>
      <point x="515" y="60" type="curve"/>
      <point x="466" y="107" type="line"/>
      <point x="466" y="466" type="line"/>
    </contour>
  </outline>
</glyph>
<glyph name="bAi" format="1">
  <advance width="598"/>
  <outline>
    <contour>
      <point x="493" y="381" type="line"/>
      <point x="522" y="383"/>
      <point x="540" y="406"/>
      <point x="540" y="442" type="curve" smooth="yes"/>
      <point x="540" y="536"/>
      <point x="416" y="564"/>
      <point x="334" y="582" type="curve" smooth="yes"/>
      <point x="239" y="603"/>
      <point x="135" y="631"/>
      <point x="135" y="715" type="curve" smooth="yes"/>
      <point x="135" y="745"/>
      <point x="149" y="772"/>
      <point x="175" y="797" type="curve"/>
      <point x="211" y="772" type="line"/>
      <point x="196" y="755"/>
      <point x="189" y="740"/>
      <point x="189" y="730" type="curve" smooth="yes"/>
      <point x="189" y="691"/>
      <point x="297" y="687"/>
      <point x="369" y="670" type="curve" smooth="yes"/>
      <point x="508" y="638"/>
      <point x="592" y="545"/>
      <point x="592" y="431" type="curve" smooth="yes"/>
      <point x="592" y="366"/>
      <point x="565" y="310"/>
      <point x="493" y="280" type="curve"/>
    </contour>
    <contour>
      <point x="10" y="310"/>
      <point x="25" y="356"/>
      <point x="55" y="398" type="curve"/>
      <point x="100" y="374" type="line"/>
      <point x="84" y="345"/>
      <point x="69" y="308"/>
      <point x="69" y="267" type="curve" smooth="yes"/>
      <point x="69" y="195"/>
      <point x="115" y="152"/>
      <point x="189" y="152" type="curve" smooth="yes"/>
      <point x="225" y="152"/>
      <point x="289" y="162"/>
      <point x="320" y="162" type="curve" smooth="yes"/>
      <point x="390" y="162"/>
      <point x="441" y="112"/>
      <point x="463" y="33" type="curve"/>
      <point x="422" y="81" type="line"/>
      <point x="422" y="428" type="line" smooth="yes"/>
      <point x="422" y="439"/>
      <point x="417" y="448"/>
      <point x="406" y="448" type="curve" smooth="yes"/>
      <point x="371" y="448"/>
      <point x="272" y="353"/>
      <point x="272" y="287" type="curve" smooth="yes"/>
      <point x="272" y="276"/>
      <point x="275" y="260"/>
      <point x="279" y="251" type="curve"/>
      <point x="225" y="291" type="line"/>
      <point x="235" y="317"/>
      <point x="261" y="338"/>
      <point x="291" y="338" type="curve" smooth="yes"/>
      <point x="327" y="338"/>
      <point x="359" y="306"/>
      <point x="359" y="267" type="curve" smooth="yes"/>
      <point x="359" y="226"/>
      <point x="325" y="193"/>
      <point x="275" y="193" type="curve" smooth="yes"/>
      <point x="214" y="193"/>
      <point x="164" y="244"/>
      <point x="164" y="311" type="curve" smooth="yes"/>
      <point x="164" y="413"/>
      <point x="281" y="530"/>
      <point x="367" y="530" type="curve" smooth="yes"/>
      <point x="437" y="530"/>
      <point x="502" y="451"/>
      <point x="502" y="383" type="curve" smooth="yes"/>
      <point x="502" y="0" type="line"/>
      <point x="442" y="0" type="line"/>
      <point x="440" y="42"/>
      <point x="418" y="65"/>
      <point x="366" y="65" type="curve" smooth="yes"/>
      <point x="325" y="65"/>
      <point x="268" y="51"/>
      <point x="221" y="51" type="curve" smooth="yes"/>
      <point x="99" y="51"/>
      <point x="10" y="143"/>
      <point x="10" y="261" type="curve" smooth="yes"/>
    </contour>
  </outline>
</glyph>
<glyph name="bAnusvara" format="1">
  <advance width="345"/>
  <outline>
    <contour>
      <point x="51" y="482"/>
      <point x="103" y="530"/>
      <point x="169" y="530" type="curve" smooth="yes"/>
      <point x="248" y="530"/>
      <point x="303" y="463"/>
      <point x="303" y="395" type="curve" smooth="yes"/>
      <point x="303" y="333"/>
      <point x="256" y="281"/>
      <point x="186" y="281" type="curve" smooth="yes"/>
      <point x="108" y="281"/>
      <point x="51" y="347"/>
      <point x="51" y="416" type="curve" smooth="yes"/>
    </contour>
    <contour>
      <point x="123" y="368"/>
      <point x="134" y="355"/>
      <point x="155" y="355" type="curve" smooth="yes"/>
      <point x="189" y="355"/>
      <point x="231" y="391"/>
      <point x="231" y="423" type="curve" smooth="yes"/>
      <point x="231" y="440"/>
      <point x="220" y="455"/>
      <point x="198" y="455" type="curve" smooth="yes"/>
      <point x="164" y="455"/>
      <point x="123" y="419"/>
      <point x="123" y="386" type="curve" smooth="yes"/>
    </contour>
    <contour>
      <point x="72" y="277" type="line"/>
      <point x="170" y="230"/>
      <point x="254" y="149"/>
      <point x="328" y="30" type="curve"/>
      <point x="282" y="-12" type="line"/>
      <point x="222" y="61"/>
      <point x="139" y="128"/>
      <point x="35" y="162" type="curve"/>
    </contour>
  </outline>
</glyph>
<glyph name="bAuMarkReph" format="1">
  <advance width="193"/>
  <outline>
    <contour>
      <point x="130" y="599"/>
      <point x="77" y="669"/>
      <point x="-31" y="669" type="curve" smooth="yes"/>
      <point x="-83" y="669"/>
      <point x="-182" y="653"/>
      <point x="-234" y="653" type="curve" smooth="yes"/>
      <point x="-280" y="653"/>
      <point x="-302" y="666"/>
      <point x="-302" y="689" type="curve" smooth="yes"/>
      <point x="-302" y="703"/>
      <point x="-294" y="721"/>
      <point x="-281" y="738" type="curve"/>
      <point x="-325" y="764" type="line"/>
      <point x="-344" y="740"/>
      <point x="-360" y="712"/>
      <point x="-360" y="678" type="curve" smooth="yes"/>
      <point x="-360" y="612"/>
      <point x="-297" y="568"/>
      <point x="-203" y="568" type="curve" smooth="yes"/>
      <point x="-154" y="568"/>
      <point x="-13" y="580"/>
      <point x="25" y="580" type="curve" smooth="yes"/>
      <point x="61" y="580"/>
      <point x="71" y="569"/>
      <point x="71" y="545" type="curve" smooth="yes"/>
      <point x="71" y="535"/>
      <point x="69" y="525"/>
      <point x="64" y="516" type="curve"/>
      <point x="140" y="515" type="line"/>
    </contour>
    <contour>
      <point x="63" y="0" type="line"/>
      <point x="143" y="0" type="line"/>
      <point x="143" y="467" type="line"/>
      <point x="63" y="467" type="line"/>
    </contour>
    <contour>
      <point x="223" y="456" type="line"/>
      <point x="223" y="521" type="line"/>
      <point x="-30" y="521" type="line"/>
      <point x="-30" y="456" type="line"/>
    </contour>
    <contour>
      <point x="-167" y="540" type="line"/>
      <point x="-50" y="540" type="line"/>
      <point x="127" y="772" type="line"/>
      <point x="89" y="799" type="line"/>
    </contour>
  </outline>
</glyph>
<glyph name="bAvagraha" format="1">
  <advance width="446"/>
  <outline>
    <contour>
      <point x="221" y="521" type="line"/>
      <point x="221" y="456" type="line"/>
      <point x="-30" y="456" type="line"/>
      <point x="-30" y="521" type="line"/>
    </contour>
    <contour>
      <point x="319" y="432"/>
      <point x="407" y="352"/>
      <point x="407" y="256" type="curve" smooth="yes"/>
      <point x="407" y="159"/>
      <point x="318" y="91"/>
      <point x="202" y="91" type="curve"/>
      <point x="162" y="156" type="line"/>
      <point x="248" y="125"/>
      <point x="319" y="90"/>
      <point x="460" y="-10" type="curve"/>
      <point x="424" y="-55" type="line"/>
      <point x="286" y="27"/>
      <point x="213" y="51"/>
      <point x="86" y="71" type="curve"/>
      <point x="19" y="202" type="line"/>
      <point x="58" y="192"/>
      <point x="109" y="186"/>
      <point x="148" y="186" type="curve" smooth="yes"/>
      <point x="259" y="186"/>
      <point x="327" y="236"/>
      <point x="327" y="294" type="curve" smooth="yes"/>
      <point x="327" y="326"/>
      <point x="305" y="348"/>
      <point x="263" y="348" type="curve" smooth="yes"/>
      <point x="237" y="348"/>
      <point x="223" y="340"/>
      <point x="201" y="329" type="curve"/>
      <point x="220" y="390" type="line"/>
      <point x="233" y="373"/>
      <point x="236" y="357"/>
      <point x="236" y="343" type="curve" smooth="yes"/>
      <point x="236" y="286"/>
      <point x="187" y="239"/>
      <point x="128" y="239" type="curve" smooth="yes"/>
      <point x="77" y="239"/>
      <point x="40" y="275"/>
      <point x="40" y="321" type="curve" smooth="yes"/>
      <point x="40" y="382"/>
      <point x="105" y="432"/>
      <point x="200" y="432" type="curve" smooth="yes"/>
    </contour>
  </outline>
</glyph>
<glyph name="bBBa" format="1">
  <advance width="734"/>
  <outline>
    <contour>
      <point x="263" y="312"/>
      <point x="165" y="268"/>
      <point x="88" y="213" type="curve"/>
      <point x="81" y="277" type="line"/>
      <point x="203" y="253"/>
      <point x="307" y="170"/>
      <point x="337" y="49" type="curve"/>
      <point x="298" y="82" type="line"/>
      <point x="298" y="466" type="line"/>
      <point x="378" y="466" type="line"/>
      <point x="378" y="20" type="line"/>
      <point x="318" y="20" type="line"/>
      <point x="289" y="105"/>
      <point x="215" y="157"/>
      <point x="74" y="171" type="curve"/>
      <point x="-5" y="293" type="line"/>
      <point x="93" y="364"/>
      <point x="229" y="424"/>
      <point x="326" y="444" type="curve"/>
      <point x="362" y="338" type="line"/>
    </contour>
    <contour>
      <point x="-30" y="456" type="line"/>
      <point x="-30" y="521" type="line"/>
      <point x="458" y="521" type="line"/>
      <point x="458" y="456" type="line"/>
    </contour>
    <contour>
      <point x="573" y="312"/>
      <point x="478" y="268"/>
      <point x="404" y="215" type="curve"/>
      <point x="391" y="281" type="line"/>
      <point x="509" y="251"/>
      <point x="609" y="157"/>
      <point x="653" y="39" type="curve"/>
      <point x="604" y="72" type="line"/>
      <point x="604" y="466" type="line"/>
      <point x="684" y="466" type="line"/>
      <point x="684" y="0" type="line"/>
      <point x="624" y="0" type="line"/>
      <point x="591" y="106"/>
      <point x="511" y="151"/>
      <point x="404" y="166" type="curve"/>
      <point x="313" y="294" type="line"/>
      <point x="409" y="359"/>
      <point x="538" y="423"/>
      <point x="632" y="444" type="curve"/>
      <point x="668" y="338" type="line"/>
    </contour>
    <contour>
      <point x="270" y="456" type="line"/>
      <point x="270" y="521" type="line"/>
      <point x="764" y="521" type="line"/>
      <point x="764" y="456" type="line"/>
    </contour>
  </outline>
</glyph>
<glyph name="bBDa" format="1">
  <advance width="632"/>
  <outline>
    <contour>
      <point x="324" y="467" type="line"/>
      <point x="324" y="150" type="line"/>
      <point x="279" y="197" type="line"/>
      <point x="329" y="295"/>
      <point x="414" y="380"/>
      <point x="510" y="417" type="curve"/>
      <point x="607" y="330" type="line"/>
      <point x="544" y="265"/>
      <point x="524" y="211"/>
      <point x="524" y="134" type="curve" smooth="yes"/>
      <point x="524" y="99"/>
      <point x="528" y="48"/>
      <point x="537" y="-4" type="curve"/>
      <point x="479" y="-13" type="line"/>
      <point x="463" y="60"/>
      <point x="452" y="132"/>
      <point x="452" y="192" type="curve" smooth="yes"/>
      <point x="452" y="267"/>
      <point x="469" y="336"/>
      <point x="507" y="375" type="curve"/>
      <point x="532" y="305" type="line"/>
      <point x="461" y="264"/>
      <point x="388" y="190"/>
      <point x="331" y="78" type="curve"/>
      <point x="244" y="131" type="line"/>
      <point x="244" y="467" type="line"/>
    </contour>
    <contour>
      <point x="170" y="456" type="line"/>
      <point x="170" y="521" type="line"/>
      <point x="662" y="521" type="line"/>
      <point x="662" y="456" type="line"/>
    </contour>
    <contour>
      <point x="-30" y="456" type="line"/>
      <point x="-30" y="521" type="line"/>
      <point x="463" y="521" type="line"/>
      <point x="463" y="456" type="line"/>
    </contour>
    <contour>
      <point x="244" y="131" type="line"/>
      <point x="212" y="186"/>
      <point x="153" y="218"/>
      <point x="61" y="231" type="curve"/>
      <point x="1" y="338" type="line"/>
      <point x="106" y="395"/>
      <point x="206" y="431"/>
      <point x="273" y="443" type="curve"/>
      <point x="296" y="351" type="line"/>
      <point x="221" y="336"/>
      <point x="166" y="313"/>
      <point x="83" y="262" type="curve"/>
      <point x="35" y="324" type="line"/>
      <point x="147" y="306"/>
      <point x="239" y="247"/>
      <point x="281" y="153" type="curve"/>
    </contour>
  </outline>
</glyph>
<glyph name="bBDdha" format="1">
  <advance width="624"/>
  <outline>
    <contour>
      <point x="464" y="-1"/>
      <point x="589" y="155"/>
      <point x="589" y="267" type="curve" smooth="yes"/>
      <point x="589" y="333"/>
      <point x="545" y="389"/>
      <point x="483" y="389" type="curve" smooth="yes"/>
      <point x="431" y="389"/>
      <point x="395" y="350"/>
      <point x="395" y="305" type="curve" smooth="yes"/>
      <point x="395" y="260"/>
      <point x="432" y="224"/>
      <point x="481" y="224" type="curve" smooth="yes"/>
      <point x="500" y="224"/>
      <point x="515" y="229"/>
      <point x="527" y="240" type="curve"/>
      <point x="483" y="294" type="line"/>
      <point x="483" y="219"/>
      <point x="394" y="95"/>
      <point x="342" y="95" type="curve" smooth="yes"/>
      <point x="329" y="95"/>
      <point x="324" y="103"/>
      <point x="324" y="130" type="curve" smooth="yes"/>
      <point x="324" y="477" type="line"/>
      <point x="244" y="477" type="line"/>
      <point x="244" y="167" type="line" smooth="yes"/>
      <point x="244" y="69"/>
      <point x="313" y="-1"/>
      <point x="374" y="-1" type="curve" smooth="yes"/>
    </contour>
    <contour>
      <point x="281" y="153" type="line"/>
      <point x="237" y="247"/>
      <point x="142" y="306"/>
      <point x="25" y="324" type="curve"/>
      <point x="83" y="262" type="line"/>
      <point x="166" y="313"/>
      <point x="221" y="336"/>
      <point x="296" y="351" type="curve"/>
      <point x="273" y="443" type="line"/>
      <point x="206" y="431"/>
      <point x="106" y="395"/>
      <point x="1" y="338" type="curve"/>
      <point x="61" y="231" type="line"/>
      <point x="158" y="217"/>
      <point x="221" y="181"/>
      <point x="250" y="121" type="curve"/>
    </contour>
    <contour>
      <point x="654" y="456" type="line"/>
      <point x="654" y="521" type="line"/>
      <point x="-30" y="521" type="line"/>
      <point x="-30" y="456" type="line"/>
    </contour>
  </outline>
</glyph>
<glyph name="bBDha" format="1">
  <advance width="549"/>
  <outline>
    <contour>
      <point x="341" y="355" type="line"/>
      <point x="263" y="335"/>
      <point x="178" y="299"/>
      <point x="90" y="233" type="curve"/>
      <point x="56" y="286" type="line"/>
      <point x="123" y="278"/>
      <point x="176" y="244"/>
      <point x="231" y="187" type="curve"/>
      <point x="201" y="157" type="line"/>
      <point x="169" y="189"/>
      <point x="121" y="205"/>
      <point x="65" y="205" type="curve"/>
      <point x="1" y="298" type="line"/>
      <point x="107" y="375"/>
      <point x="213" y="423"/>
      <point x="311" y="447" type="curve"/>
    </contour>
    <contour>
      <point x="-30" y="456" type="line"/>
      <point x="-30" y="521" type="line"/>
      <point x="579" y="521" type="line"/>
      <point x="579" y="456" type="line"/>
    </contour>
    <contour>
      <point x="281" y="174"/>
      <point x="232" y="149"/>
      <point x="143" y="82" type="curve"/>
      <point x="98" y="144" type="line"/>
      <point x="205" y="137"/>
      <point x="299" y="60"/>
      <point x="330" y="-31" type="curve"/>
      <point x="282" y="20" type="line"/>
      <point x="282" y="467" type="line"/>
      <point x="362" y="468" type="line"/>
      <point x="362" y="-60" type="line"/>
      <point x="302" y="-60" type="line"/>
      <point x="283" y="9"/>
      <point x="215" y="49"/>
      <point x="123" y="53" type="curve"/>
      <point x="58" y="145" type="line"/>
      <point x="173" y="226"/>
      <point x="260" y="272"/>
      <point x="322" y="295" type="curve"/>
      <point x="350" y="203" type="line"/>
    </contour>
    <contour>
      <point x="316" y="293" type="line"/>
      <point x="353" y="313"/>
      <point x="390" y="324"/>
      <point x="407" y="324" type="curve" smooth="yes"/>
      <point x="451" y="324"/>
      <point x="510" y="247"/>
      <point x="510" y="190" type="curve" smooth="yes"/>
      <point x="510" y="49" type="line" smooth="yes"/>
      <point x="510" y="26"/>
      <point x="521" y="6"/>
      <point x="540" y="-9" type="curve"/>
      <point x="512" y="-48" type="line"/>
      <point x="465" y="-22"/>
      <point x="433" y="9"/>
      <point x="433" y="69" type="curve" smooth="yes"/>
      <point x="433" y="220" type="line" smooth="yes"/>
      <point x="433" y="232"/>
      <point x="430" y="236"/>
      <point x="423" y="236" type="curve" smooth="yes"/>
      <point x="411" y="236"/>
      <point x="379" y="222"/>
      <point x="354" y="206" type="curve"/>
    </contour>
  </outline>
</glyph>
<glyph name="bBJa" format="1">
  <advance width="728"/>
  <outline>
    <contour>
      <point x="475" y="-12"/>
      <point x="539" y="56"/>
      <point x="539" y="148" type="curve" smooth="yes"/>
      <point x="539" y="221"/>
      <point x="498" y="277"/>
      <point x="450" y="315" type="curve"/>
      <point x="419" y="268"/>
      <point x="388" y="238"/>
      <point x="370" y="238" type="curve" smooth="yes"/>
      <point x="362" y="238"/>
      <point x="357" y="244"/>
      <point x="357" y="255" type="curve" smooth="yes"/>
      <point x="357" y="466" type="line"/>
      <point x="287" y="466" type="line"/>
      <point x="287" y="269" type="line" smooth="yes"/>
      <point x="287" y="199"/>
      <point x="335" y="146"/>
      <point x="387" y="146" type="curve" smooth="yes"/>
      <point x="437" y="146"/>
      <point x="479" y="198"/>
      <point x="503" y="238" type="curve"/>
      <point x="436" y="247" type="line"/>
      <point x="457" y="227"/>
      <point x="469" y="206"/>
      <point x="469" y="183" type="curve" smooth="yes"/>
      <point x="469" y="136"/>
      <point x="423" y="99"/>
      <point x="350" y="99" type="curve" smooth="yes"/>
      <point x="253" y="99"/>
      <point x="138" y="164"/>
      <point x="43" y="422" type="curve"/>
      <point x="-10" y="398" type="line"/>
      <point x="106" y="71"/>
      <point x="260" y="-12"/>
      <point x="373" y="-12" type="curve" smooth="yes"/>
    </contour>
    <contour>
      <point x="331" y="226" type="line"/>
      <point x="301" y="275"/>
      <point x="246" y="316"/>
      <point x="154" y="335" type="curve"/>
      <point x="184" y="304" type="line"/>
      <point x="235" y="338"/>
      <point x="284" y="360"/>
      <point x="327" y="374" type="curve"/>
      <point x="300" y="450" type="line"/>
      <point x="227" y="427"/>
      <point x="178" y="402"/>
      <point x="104" y="357" type="curve"/>
      <point x="166" y="258" type="line"/>
      <point x="237" y="254"/>
      <point x="283" y="234"/>
      <point x="304" y="201" type="curve"/>
    </contour>
    <contour>
      <point x="647" y="-30" type="line"/>
      <point x="637" y="37"/>
      <point x="634" y="110"/>
      <point x="634" y="142" type="curve" smooth="yes"/>
      <point x="634" y="214"/>
      <point x="649" y="267"/>
      <point x="701" y="320" type="curve"/>
      <point x="614" y="424" type="line"/>
      <point x="584" y="404"/>
      <point x="548" y="395"/>
      <point x="514" y="395" type="curve" smooth="yes"/>
      <point x="454" y="395"/>
      <point x="386" y="422"/>
      <point x="343" y="484" type="curve"/>
      <point x="313" y="455" type="line"/>
      <point x="393" y="352"/>
      <point x="472" y="313"/>
      <point x="554" y="313" type="curve" smooth="yes"/>
      <point x="596" y="313"/>
      <point x="628" y="323"/>
      <point x="664" y="345" type="curve"/>
      <point x="616" y="385" type="line"/>
      <point x="580" y="341"/>
      <point x="562" y="269"/>
      <point x="562" y="194" type="curve" smooth="yes"/>
      <point x="562" y="144"/>
      <point x="570" y="59"/>
      <point x="589" y="-39" type="curve"/>
    </contour>
    <contour>
      <point x="758" y="456" type="line"/>
      <point x="758" y="521" type="line"/>
      <point x="-30" y="521" type="line"/>
      <point x="-30" y="456" type="line"/>
    </contour>
  </outline>
</glyph>
<glyph name="bBJha" format="1">
  <advance width="554"/>
  <outline>
    <contour>
      <point x="341" y="355" type="line"/>
      <point x="263" y="335"/>
      <point x="178" y="299"/>
      <point x="90" y="233" type="curve"/>
      <point x="56" y="286" type="line"/>
      <point x="123" y="278"/>
      <point x="176" y="244"/>
      <point x="231" y="187" type="curve"/>
      <point x="201" y="157" type="line"/>
      <point x="169" y="189"/>
      <point x="121" y="205"/>
      <point x="65" y="205" type="curve"/>
      <point x="1" y="298" type="line"/>
      <point x="107" y="375"/>
      <point x="213" y="423"/>
      <point x="311" y="447" type="curve"/>
    </contour>
    <contour>
      <point x="-30" y="456" type="line"/>
      <point x="-30" y="521" type="line"/>
      <point x="362" y="521" type="line"/>
      <point x="362" y="456" type="line"/>
    </contour>
    <contour>
      <point x="281" y="174"/>
      <point x="232" y="149"/>
      <point x="143" y="82" type="curve"/>
      <point x="98" y="144" type="line"/>
      <point x="205" y="137"/>
      <point x="299" y="60"/>
      <point x="330" y="-31" type="curve"/>
      <point x="282" y="20" type="line"/>
      <point x="282" y="467" type="line"/>
      <point x="362" y="468" type="line"/>
      <point x="362" y="-60" type="line"/>
      <point x="302" y="-60" type="line"/>
      <point x="283" y="9"/>
      <point x="215" y="49"/>
      <point x="123" y="53" type="curve"/>
      <point x="58" y="145" type="line"/>
      <point x="173" y="226"/>
      <point x="260" y="272"/>
      <point x="322" y="295" type="curve"/>
      <point x="350" y="200" type="line"/>
    </contour>
    <contour>
      <point x="345" y="186" type="line"/>
      <point x="409" y="146"/>
      <point x="451" y="87"/>
      <point x="472" y="12" type="curve"/>
      <point x="424" y="55" type="line"/>
      <point x="424" y="521" type="line"/>
      <point x="584" y="521" type="line"/>
      <point x="584" y="456" type="line"/>
      <point x="504" y="456" type="line"/>
      <point x="504" y="-20" type="line"/>
      <point x="444" y="-20" type="line"/>
      <point x="440" y="31"/>
      <point x="412" y="69"/>
      <point x="353" y="83" type="curve"/>
    </contour>
  </outline>
</glyph>
<glyph name="bBLa" format="1">
  <advance width="442"/>
  <outline>
    <contour>
      <point x="277" y="314"/>
      <point x="179" y="274"/>
      <point x="102" y="223" type="curve"/>
      <point x="95" y="287" type="line"/>
      <point x="227" y="265"/>
      <point x="326" y="189"/>
      <point x="351" y="79" type="curve"/>
      <point x="312" y="112" type="line"/>
      <point x="312" y="466" type="line"/>
      <point x="392" y="466" type="line"/>
      <point x="392" y="43" type="line"/>
      <point x="327" y="43" type="line"/>
      <point x="327" y="111"/>
      <point x="232" y="174"/>
      <point x="88" y="181" type="curve"/>
      <point x="9" y="303" type="line"/>
      <point x="107" y="369"/>
      <point x="243" y="425"/>
      <point x="340" y="444" type="curve"/>
      <point x="376" y="338" type="line"/>
    </contour>
    <contour>
      <point x="-30" y="456" type="line"/>
      <point x="-30" y="521" type="line"/>
      <point x="472" y="521" type="line"/>
      <point x="472" y="456" type="line"/>
    </contour>
    <contour>
      <point x="327" y="-1" type="line"/>
      <point x="327" y="43" type="line"/>
      <point x="392" y="43" type="line"/>
      <point x="392" y="-59" type="line"/>
      <point x="332" y="-59" type="line"/>
      <point x="330" y="-13"/>
      <point x="311" y="12"/>
      <point x="285" y="12" type="curve" smooth="yes"/>
      <point x="265" y="12"/>
      <point x="252" y="-4"/>
      <point x="252" y="-34" type="curve"/>
      <point x="217" y="-34" type="line"/>
      <point x="207" y="6"/>
      <point x="188" y="28"/>
      <point x="156" y="28" type="curve" smooth="yes"/>
      <point x="126" y="28"/>
      <point x="101" y="8"/>
      <point x="101" y="-21" type="curve" smooth="yes"/>
      <point x="101" y="-36"/>
      <point x="108" y="-55"/>
      <point x="123" y="-55" type="curve" smooth="yes"/>
      <point x="130" y="-55"/>
      <point x="143" y="-51"/>
      <point x="153" y="-42" type="curve"/>
      <point x="154" y="-84" type="line"/>
      <point x="128" y="-83"/>
      <point x="111" y="-64"/>
      <point x="111" y="-42" type="curve" smooth="yes"/>
      <point x="111" y="-20"/>
      <point x="128" y="-2"/>
      <point x="153" y="-2" type="curve" smooth="yes"/>
      <point x="180" y="-2"/>
      <point x="200" y="-24"/>
      <point x="200" y="-51" type="curve" smooth="yes"/>
      <point x="200" y="-79"/>
      <point x="178" y="-105"/>
      <point x="138" y="-105" type="curve" smooth="yes"/>
      <point x="79" y="-105"/>
      <point x="26" y="-50"/>
      <point x="26" y="13" type="curve" smooth="yes"/>
      <point x="26" y="71"/>
      <point x="72" y="112"/>
      <point x="127" y="112" type="curve" smooth="yes"/>
      <point x="187" y="112"/>
      <point x="227" y="64"/>
      <point x="237" y="0" type="curve"/>
      <point x="198" y="29" type="line"/>
      <point x="198" y="66"/>
      <point x="228" y="91"/>
      <point x="256" y="91" type="curve" smooth="yes"/>
      <point x="301" y="91"/>
      <point x="347" y="27"/>
      <point x="358" y="-48" type="curve"/>
    </contour>
  </outline>
</glyph>
<glyph name="bBRa_bSignU" format="1">
  <advance width="680"/>
  <outline>
    <contour>
      <point x="325" y="314"/>
      <point x="227" y="274"/>
      <point x="150" y="223" type="curve"/>
      <point x="143" y="287" type="line"/>
      <point x="275" y="265"/>
      <point x="374" y="189"/>
      <point x="399" y="79" type="curve"/>
      <point x="360" y="112" type="line"/>
      <point x="360" y="466" type="line"/>
      <point x="440" y="466" type="line"/>
      <point x="440" y="50" type="line"/>
      <point x="370" y="50" type="line"/>
      <point x="370" y="119"/>
      <point x="277" y="169"/>
      <point x="136" y="181" type="curve"/>
      <point x="57" y="303" type="line"/>
      <point x="155" y="369"/>
      <point x="291" y="425"/>
      <point x="388" y="444" type="curve"/>
      <point x="424" y="338" type="line"/>
    </contour>
    <contour>
      <point x="-30" y="456" type="line"/>
      <point x="-30" y="521" type="line"/>
      <point x="710" y="521" type="line"/>
      <point x="710" y="456" type="line"/>
    </contour>
    <contour>
      <point x="440" y="143" type="line"/>
      <point x="440" y="-40" type="line"/>
      <point x="380" y="-40" type="line"/>
      <point x="378" y="2"/>
      <point x="357" y="25"/>
      <point x="305" y="25" type="curve" smooth="yes"/>
      <point x="270" y="25"/>
      <point x="215" y="15"/>
      <point x="177" y="15" type="curve" smooth="yes"/>
      <point x="84" y="15"/>
      <point x="20" y="75"/>
      <point x="20" y="156" type="curve" smooth="yes"/>
      <point x="20" y="178"/>
      <point x="25" y="207"/>
      <point x="36" y="231" type="curve"/>
      <point x="82" y="214" type="line"/>
      <point x="77" y="199"/>
      <point x="73" y="178"/>
      <point x="73" y="163" type="curve" smooth="yes"/>
      <point x="73" y="126"/>
      <point x="96" y="109"/>
      <point x="144" y="109" type="curve" smooth="yes"/>
      <point x="173" y="109"/>
      <point x="233" y="115"/>
      <point x="258" y="115" type="curve" smooth="yes"/>
      <point x="329" y="115"/>
      <point x="379" y="68"/>
      <point x="401" y="-7" type="curve"/>
      <point x="370" y="41" type="line"/>
      <point x="370" y="143" type="line"/>
    </contour>
    <contour>
      <point x="434" y="320" type="line"/>
      <point x="457" y="259"/>
      <point x="500" y="238"/>
      <point x="535" y="238" type="curve" smooth="yes"/>
      <point x="573" y="238"/>
      <point x="600" y="262"/>
      <point x="600" y="292" type="curve" smooth="yes"/>
      <point x="600" y="311"/>
      <point x="590" y="326"/>
      <point x="572" y="326" type="curve" smooth="yes"/>
      <point x="567" y="326"/>
      <point x="559" y="325"/>
      <point x="552" y="323" type="curve"/>
      <point x="581" y="356" type="line"/>
      <point x="586" y="350"/>
      <point x="589" y="339"/>
      <point x="589" y="329" type="curve" smooth="yes"/>
      <point x="589" y="301"/>
      <point x="566" y="278"/>
      <point x="535" y="278" type="curve" smooth="yes"/>
      <point x="501" y="278"/>
      <point x="473" y="304"/>
      <point x="473" y="339" type="curve" smooth="yes"/>
      <point x="473" y="374"/>
      <point x="501" y="401"/>
      <point x="541" y="401" type="curve" smooth="yes"/>
      <point x="602" y="401"/>
      <point x="654" y="337"/>
      <point x="654" y="264" type="curve" smooth="yes"/>
      <point x="654" y="196"/>
      <point x="608" y="148"/>
      <point x="549" y="148" type="curve" smooth="yes"/>
      <point x="488" y="148"/>
      <point x="437" y="199"/>
      <point x="406" y="294" type="curve"/>
    </contour>
  </outline>
</glyph>
<glyph name="bBRa_bSignUu" format="1">
  <advance width="647"/>
  <outline>
    <contour>
      <point x="325" y="314"/>
      <point x="227" y="274"/>
      <point x="150" y="223" type="curve"/>
      <point x="143" y="287" type="line"/>
      <point x="275" y="265"/>
      <point x="374" y="189"/>
      <point x="399" y="79" type="curve"/>
      <point x="360" y="112" type="line"/>
      <point x="360" y="466" type="line"/>
      <point x="440" y="466" type="line"/>
      <point x="440" y="50" type="line"/>
      <point x="370" y="50" type="line"/>
      <point x="370" y="119"/>
      <point x="277" y="169"/>
      <point x="136" y="181" type="curve"/>
      <point x="57" y="303" type="line"/>
      <point x="155" y="369"/>
      <point x="291" y="425"/>
      <point x="388" y="444" type="curve"/>
      <point x="424" y="338" type="line"/>
    </contour>
    <contour>
      <point x="-30" y="456" type="line"/>
      <point x="-30" y="521" type="line"/>
      <point x="657" y="521" type="line"/>
      <point x="657" y="456" type="line"/>
    </contour>
    <contour>
      <point x="440" y="143" type="line"/>
      <point x="440" y="-40" type="line"/>
      <point x="380" y="-40" type="line"/>
      <point x="378" y="2"/>
      <point x="357" y="25"/>
      <point x="305" y="25" type="curve" smooth="yes"/>
      <point x="270" y="25"/>
      <point x="215" y="15"/>
      <point x="177" y="15" type="curve" smooth="yes"/>
      <point x="84" y="15"/>
      <point x="20" y="75"/>
      <point x="20" y="156" type="curve" smooth="yes"/>
      <point x="20" y="178"/>
      <point x="25" y="207"/>
      <point x="36" y="231" type="curve"/>
      <point x="82" y="214" type="line"/>
      <point x="77" y="199"/>
      <point x="73" y="178"/>
      <point x="73" y="163" type="curve" smooth="yes"/>
      <point x="73" y="126"/>
      <point x="96" y="109"/>
      <point x="144" y="109" type="curve" smooth="yes"/>
      <point x="173" y="109"/>
      <point x="233" y="115"/>
      <point x="258" y="115" type="curve" smooth="yes"/>
      <point x="329" y="115"/>
      <point x="379" y="68"/>
      <point x="401" y="-7" type="curve"/>
      <point x="370" y="41" type="line"/>
      <point x="370" y="143" type="line"/>
    </contour>
    <contour>
      <point x="396" y="353" type="line"/>
      <point x="430" y="386"/>
      <point x="466" y="402"/>
      <point x="487" y="402" type="curve" smooth="yes"/>
      <point x="530" y="402"/>
      <point x="587" y="329"/>
      <point x="587" y="275" type="curve" smooth="yes"/>
      <point x="587" y="82" type="line" smooth="yes"/>
      <point x="587" y="59"/>
      <point x="598" y="39"/>
      <point x="617" y="24" type="curve"/>
      <point x="589" y="-15" type="line"/>
      <point x="542" y="11"/>
      <point x="510" y="42"/>
      <point x="510" y="102" type="curve" smooth="yes"/>
      <point x="510" y="299" type="line" smooth="yes"/>
      <point x="510" y="310"/>
      <point x="507" y="315"/>
      <point x="501" y="315" type="curve" smooth="yes"/>
      <point x="488" y="315"/>
      <point x="454" y="294"/>
      <point x="431" y="269" type="curve"/>
    </contour>
  </outline>
</glyph>
<glyph name="bBa" format="1">
  <advance width="434"/>
  <outline>
    <contour>
      <point x="269" y="312"/>
      <point x="171" y="268"/>
      <point x="94" y="213" type="curve"/>
      <point x="81" y="283" type="line"/>
      <point x="204" y="251"/>
      <point x="307" y="157"/>
      <point x="353" y="39" type="curve"/>
      <point x="304" y="72" type="line"/>
      <point x="304" y="466" type="line"/>
      <point x="384" y="466" type="line"/>
      <point x="384" y="0" type="line"/>
      <point x="324" y="0" type="line"/>
      <point x="288" y="106"/>
      <point x="203" y="153"/>
      <point x="87" y="164" type="curve"/>
      <point x="-5" y="293" type="line"/>
      <point x="95" y="364"/>
      <point x="233" y="424"/>
      <point x="332" y="444" type="curve"/>
      <point x="368" y="338" type="line"/>
    </contour>
    <contour>
      <point x="-30" y="456" type="line"/>
      <point x="-30" y="521" type="line"/>
      <point x="464" y="521" type="line"/>
      <point x="464" y="456" type="line"/>
    </contour>
  </outline>
</glyph>
<glyph name="bBaphala" format="1">
  <advance width="0"/>
  <outline>
    <contour>
      <point x="-50" y="-121" type="line"/>
      <point x="-50" y="109" type="line"/>
      <point x="-105" y="156" type="line"/>
      <point x="-191" y="124"/>
      <point x="-245" y="98"/>
      <point x="-333" y="47" type="curve"/>
      <point x="-264" y="-54" type="line"/>
      <point x="-184" y="-67"/>
      <point x="-130" y="-82"/>
      <point x="-110" y="-121" type="curve"/>
    </contour>
    <contour>
      <point x="-86" y="-89" type="line"/>
      <point x="-116" y="-32"/>
      <point x="-177" y="11"/>
      <point x="-276" y="33" type="curve"/>
      <point x="-241" y="-9" type="line"/>
      <point x="-178" y="31"/>
      <point x="-120" y="56"/>
      <point x="-68" y="72" type="curve"/>
      <point x="-120" y="84" type="line"/>
      <point x="-120" y="-60" type="line"/>
    </contour>
  </outline>
</glyph>
<glyph name="bBhLa" format="1">
  <advance width="520"/>
  <outline>
    <contour>
      <point x="413" y="297"/>
      <point x="401" y="322"/>
      <point x="379" y="341" type="curve"/>
      <point x="451" y="333" type="line"/>
      <point x="420" y="279"/>
      <point x="356" y="229"/>
      <point x="283" y="229" type="curve" smooth="yes"/>
      <point x="207" y="229"/>
      <point x="158" y="282"/>
      <point x="158" y="335" type="curve" smooth="yes"/>
      <point x="158" y="380"/>
      <point x="193" y="417"/>
      <point x="238" y="417" type="curve" smooth="yes"/>
      <point x="277" y="417"/>
      <point x="313" y="389"/>
      <point x="313" y="343" type="curve" smooth="yes"/>
      <point x="313" y="316"/>
      <point x="300" y="292"/>
      <point x="278" y="276" type="curve"/>
      <point x="247" y="337" type="line"/>
      <point x="257" y="332"/>
      <point x="270" y="330"/>
      <point x="280" y="330" type="curve" smooth="yes"/>
      <point x="321" y="330"/>
      <point x="365" y="367"/>
      <point x="399" y="418" type="curve"/>
      <point x="450" y="376"/>
      <point x="485" y="305"/>
      <point x="485" y="231" type="curve" smooth="yes"/>
      <point x="485" y="130"/>
      <point x="419" y="58"/>
      <point x="316" y="58" type="curve" smooth="yes"/>
      <point x="189" y="58"/>
      <point x="73" y="169"/>
      <point x="-5" y="405" type="curve"/>
      <point x="52" y="424" type="line"/>
      <point x="109" y="262"/>
      <point x="184" y="172"/>
      <point x="291" y="172" type="curve" smooth="yes"/>
      <point x="362" y="172"/>
      <point x="413" y="212"/>
      <point x="413" y="270" type="curve" smooth="yes"/>
    </contour>
    <contour>
      <point x="-30" y="521" type="line"/>
      <point x="550" y="521" type="line"/>
      <point x="550" y="456" type="line"/>
      <point x="-30" y="456" type="line"/>
    </contour>
    <contour>
      <point x="363" y="-45" type="line"/>
      <point x="363" y="149" type="line"/>
      <point x="433" y="186" type="line"/>
      <point x="433" y="-116" type="line"/>
    </contour>
    <contour>
      <point x="368" y="-72" type="line"/>
      <point x="368" y="-1" type="line"/>
      <point x="433" y="-1" type="line"/>
      <point x="433" y="-140" type="line"/>
      <point x="373" y="-140" type="line"/>
      <point x="368" y="-75"/>
      <point x="347" y="-36"/>
      <point x="317" y="-36" type="curve" smooth="yes"/>
      <point x="296" y="-36"/>
      <point x="283" y="-54"/>
      <point x="283" y="-91" type="curve"/>
      <point x="248" y="-91" type="line"/>
      <point x="235" y="-47"/>
      <point x="208" y="-23"/>
      <point x="173" y="-23" type="curve" smooth="yes"/>
      <point x="138" y="-23"/>
      <point x="116" y="-46"/>
      <point x="116" y="-73" type="curve" smooth="yes"/>
      <point x="116" y="-92"/>
      <point x="127" y="-110"/>
      <point x="145" y="-110" type="curve" smooth="yes"/>
      <point x="151" y="-110"/>
      <point x="161" y="-108"/>
      <point x="171" y="-103" type="curve"/>
      <point x="172" y="-145" type="line"/>
      <point x="146" y="-144"/>
      <point x="129" y="-125"/>
      <point x="129" y="-102" type="curve" smooth="yes"/>
      <point x="129" y="-78"/>
      <point x="148" y="-58"/>
      <point x="175" y="-58" type="curve" smooth="yes"/>
      <point x="202" y="-58"/>
      <point x="222" y="-80"/>
      <point x="222" y="-107" type="curve" smooth="yes"/>
      <point x="222" y="-137"/>
      <point x="197" y="-162"/>
      <point x="155" y="-162" type="curve" smooth="yes"/>
      <point x="94" y="-162"/>
      <point x="38" y="-108"/>
      <point x="38" y="-42" type="curve" smooth="yes"/>
      <point x="38" y="16"/>
      <point x="83" y="61"/>
      <point x="142" y="61" type="curve" smooth="yes"/>
      <point x="205" y="61"/>
      <point x="249" y="10"/>
      <point x="259" y="-51" type="curve"/>
      <point x="224" y="-37" type="line"/>
      <point x="224" y="8"/>
      <point x="248" y="40"/>
      <point x="288" y="40" type="curve" smooth="yes"/>
      <point x="350" y="40"/>
      <point x="385" y="-36"/>
      <point x="399" y="-113" type="curve"/>
    </contour>
  </outline>
</glyph>
<glyph name="bBhRa_bSignUu" format="1">
  <advance width="673"/>
  <outline>
    <contour>
      <point x="406" y="294"/>
      <point x="391" y="317"/>
      <point x="379" y="326" type="curve"/>
      <point x="454" y="323" type="line"/>
      <point x="417" y="271"/>
      <point x="343" y="221"/>
      <point x="265" y="221" type="curve" smooth="yes"/>
      <point x="184" y="221"/>
      <point x="136" y="275"/>
      <point x="136" y="329" type="curve" smooth="yes"/>
      <point x="136" y="377"/>
      <point x="175" y="413"/>
      <point x="219" y="413" type="curve" smooth="yes"/>
      <point x="258" y="413"/>
      <point x="296" y="385"/>
      <point x="296" y="334" type="curve" smooth="yes"/>
      <point x="296" y="305"/>
      <point x="283" y="282"/>
      <point x="261" y="266" type="curve"/>
      <point x="227" y="327" type="line"/>
      <point x="237" y="322"/>
      <point x="250" y="320"/>
      <point x="260" y="320" type="curve" smooth="yes"/>
      <point x="308" y="320"/>
      <point x="358" y="359"/>
      <point x="403" y="410" type="curve"/>
      <point x="449" y="379"/>
      <point x="486" y="317"/>
      <point x="486" y="240" type="curve" smooth="yes"/>
      <point x="486" y="-35" type="line"/>
      <point x="426" y="-35" type="line"/>
      <point x="424" y="6"/>
      <point x="403" y="28"/>
      <point x="347" y="28" type="curve" smooth="yes"/>
      <point x="309" y="28"/>
      <point x="231" y="18"/>
      <point x="190" y="18" type="curve" smooth="yes"/>
      <point x="81" y="18"/>
      <point x="11" y="90"/>
      <point x="11" y="189" type="curve" smooth="yes"/>
      <point x="11" y="231"/>
      <point x="24" y="273"/>
      <point x="50" y="312" type="curve"/>
      <point x="95" y="288" type="line"/>
      <point x="81" y="262"/>
      <point x="70" y="226"/>
      <point x="70" y="195" type="curve" smooth="yes"/>
      <point x="70" y="140"/>
      <point x="103" y="119"/>
      <point x="157" y="119" type="curve" smooth="yes"/>
      <point x="186" y="119"/>
      <point x="275" y="125"/>
      <point x="301" y="125" type="curve" smooth="yes"/>
      <point x="375" y="125"/>
      <point x="425" y="76"/>
      <point x="447" y="-2" type="curve"/>
      <point x="406" y="46" type="line"/>
      <point x="406" y="260" type="line" smooth="yes"/>
    </contour>
    <contour>
      <point x="-30" y="521" type="line"/>
      <point x="703" y="521" type="line"/>
      <point x="703" y="456" type="line"/>
      <point x="-30" y="456" type="line"/>
    </contour>
    <contour>
      <point x="442" y="293" type="line"/>
      <point x="476" y="326"/>
      <point x="512" y="342"/>
      <point x="533" y="342" type="curve" smooth="yes"/>
      <point x="576" y="342"/>
      <point x="633" y="269"/>
      <point x="633" y="215" type="curve" smooth="yes"/>
      <point x="633" y="72" type="line" smooth="yes"/>
      <point x="633" y="49"/>
      <point x="644" y="29"/>
      <point x="663" y="14" type="curve"/>
      <point x="635" y="-25" type="line"/>
      <point x="588" y="1"/>
      <point x="556" y="32"/>
      <point x="556" y="92" type="curve" smooth="yes"/>
      <point x="556" y="239" type="line" smooth="yes"/>
      <point x="556" y="250"/>
      <point x="553" y="255"/>
      <point x="547" y="255" type="curve" smooth="yes"/>
      <point x="534" y="255"/>
      <point x="500" y="234"/>
      <point x="477" y="209" type="curve"/>
    </contour>
  </outline>
</glyph>
<glyph name="bBha" format="1">
  <advance width="530"/>
  <outline>
    <contour>
      <point x="422" y="300"/>
      <point x="399" y="326"/>
      <point x="379" y="336" type="curve"/>
      <point x="451" y="333" type="line"/>
      <point x="418" y="277"/>
      <point x="349" y="226"/>
      <point x="274" y="226" type="curve" smooth="yes"/>
      <point x="195" y="226"/>
      <point x="146" y="282"/>
      <point x="146" y="338" type="curve" smooth="yes"/>
      <point x="146" y="387"/>
      <point x="184" y="423"/>
      <point x="230" y="423" type="curve" smooth="yes"/>
      <point x="270" y="423"/>
      <point x="309" y="395"/>
      <point x="309" y="344" type="curve" smooth="yes"/>
      <point x="309" y="315"/>
      <point x="296" y="292"/>
      <point x="274" y="276" type="curve"/>
      <point x="237" y="337" type="line"/>
      <point x="247" y="332"/>
      <point x="260" y="330"/>
      <point x="270" y="330" type="curve" smooth="yes"/>
      <point x="314" y="330"/>
      <point x="362" y="367"/>
      <point x="396" y="422" type="curve"/>
      <point x="453" y="383"/>
      <point x="496" y="303"/>
      <point x="496" y="218" type="curve" smooth="yes"/>
      <point x="496" y="110"/>
      <point x="426" y="31"/>
      <point x="321" y="31" type="curve" smooth="yes"/>
      <point x="192" y="31"/>
      <point x="74" y="151"/>
      <point x="-5" y="405" type="curve"/>
      <point x="52" y="424" type="line"/>
      <point x="112" y="242"/>
      <point x="189" y="150"/>
      <point x="296" y="150" type="curve" smooth="yes"/>
      <point x="372" y="150"/>
      <point x="422" y="197"/>
      <point x="422" y="259" type="curve" smooth="yes"/>
    </contour>
    <contour>
      <point x="-30" y="521" type="line"/>
      <point x="560" y="521" type="line"/>
      <point x="560" y="456" type="line"/>
      <point x="-30" y="456" type="line"/>
    </contour>
  </outline>
</glyph>
<glyph name="bCCa" format="1">
  <advance width="655"/>
  <outline>
    <contour>
      <point x="122" y="148"/>
      <point x="129" y="142"/>
      <point x="140" y="142" type="curve" smooth="yes"/>
      <point x="179" y="142"/>
      <point x="252" y="227"/>
      <point x="252" y="270" type="curve" smooth="yes"/>
      <point x="252" y="286"/>
      <point x="245" y="288"/>
      <point x="222" y="294" type="curve" smooth="yes"/>
      <point x="143" y="310"/>
      <point x="105" y="356"/>
      <point x="82" y="440" type="curve"/>
      <point x="122" y="433" type="line"/>
      <point x="122" y="177" type="line" smooth="yes"/>
    </contour>
    <contour>
      <point x="122" y="467" type="line"/>
      <point x="122" y="432"/>
      <point x="141" y="414"/>
      <point x="182" y="402" type="curve" smooth="yes"/>
      <point x="218" y="391"/>
      <point x="254" y="393"/>
      <point x="303" y="333" type="curve" smooth="yes"/>
      <point x="324" y="306"/>
      <point x="345" y="271"/>
      <point x="345" y="234" type="curve" smooth="yes"/>
      <point x="345" y="157"/>
      <point x="240" y="51"/>
      <point x="172" y="51" type="curve" smooth="yes"/>
      <point x="114" y="51"/>
      <point x="42" y="117"/>
      <point x="42" y="212" type="curve" smooth="yes"/>
      <point x="42" y="467" type="line"/>
    </contour>
    <contour>
      <point x="-30" y="456" type="line"/>
      <point x="-30" y="521" type="line"/>
      <point x="428" y="521" type="line"/>
      <point x="428" y="456" type="line"/>
    </contour>
    <contour>
      <point x="379" y="104"/>
      <point x="386" y="97"/>
      <point x="396" y="97" type="curve" smooth="yes"/>
      <point x="444" y="97"/>
      <point x="533" y="200"/>
      <point x="533" y="246" type="curve" smooth="yes"/>
      <point x="533" y="263"/>
      <point x="527" y="266"/>
      <point x="499" y="271" type="curve" smooth="yes"/>
      <point x="409" y="286"/>
      <point x="362" y="340"/>
      <point x="339" y="440" type="curve"/>
      <point x="379" y="413" type="line"/>
      <point x="379" y="132" type="line" smooth="yes"/>
    </contour>
    <contour>
      <point x="379" y="467" type="line"/>
      <point x="379" y="430"/>
      <point x="404" y="394"/>
      <point x="459" y="384" type="curve" smooth="yes"/>
      <point x="533" y="369"/>
      <point x="557" y="351"/>
      <point x="590" y="313" type="curve" smooth="yes"/>
      <point x="613" y="287"/>
      <point x="636" y="252"/>
      <point x="636" y="209" type="curve" smooth="yes"/>
      <point x="636" y="128"/>
      <point x="515" y="0"/>
      <point x="425" y="0" type="curve" smooth="yes"/>
      <point x="373" y="0"/>
      <point x="299" y="68"/>
      <point x="299" y="167" type="curve" smooth="yes"/>
      <point x="299" y="467" type="line"/>
    </contour>
    <contour>
      <point x="227" y="456" type="line"/>
      <point x="227" y="521" type="line"/>
      <point x="685" y="521" type="line"/>
      <point x="685" y="456" type="line"/>
    </contour>
  </outline>
</glyph>
<glyph name="bCChBa" format="1">
  <advance width="717"/>
  <outline>
    <contour>
      <point x="233" y="91"/>
      <point x="322" y="185"/>
      <point x="322" y="260" type="curve" smooth="yes"/>
      <point x="322" y="288"/>
      <point x="309" y="318"/>
      <point x="283" y="347" type="curve" smooth="yes"/>
      <point x="242" y="392"/>
      <point x="197" y="397"/>
      <point x="176" y="403" type="curve" smooth="yes"/>
      <point x="137" y="414"/>
      <point x="122" y="437"/>
      <point x="122" y="467" type="curve"/>
      <point x="42" y="467" type="line"/>
      <point x="42" y="252" type="line" smooth="yes"/>
      <point x="42" y="156"/>
      <point x="116" y="91"/>
      <point x="169" y="91" type="curve" smooth="yes"/>
    </contour>
    <contour>
      <point x="129" y="182"/>
      <point x="122" y="189"/>
      <point x="122" y="217" type="curve" smooth="yes"/>
      <point x="122" y="433" type="line"/>
      <point x="82" y="440" type="line"/>
      <point x="104" y="359"/>
      <point x="136" y="325"/>
      <point x="202" y="310" type="curve" smooth="yes"/>
      <point x="224" y="305"/>
      <point x="232" y="303"/>
      <point x="232" y="290" type="curve" smooth="yes"/>
      <point x="232" y="255"/>
      <point x="172" y="182"/>
      <point x="139" y="182" type="curve" smooth="yes"/>
    </contour>
    <contour>
      <point x="722" y="5" type="line"/>
      <point x="632" y="70"/>
      <point x="559" y="110"/>
      <point x="471" y="135" type="curve"/>
      <point x="476" y="79" type="line"/>
      <point x="617" y="96"/>
      <point x="685" y="176"/>
      <point x="685" y="254" type="curve" smooth="yes"/>
      <point x="685" y="336"/>
      <point x="610" y="411"/>
      <point x="523" y="411" type="curve" smooth="yes"/>
      <point x="508" y="411"/>
      <point x="478" y="409"/>
      <point x="466" y="409" type="curve" smooth="yes"/>
      <point x="425" y="409"/>
      <point x="386" y="429"/>
      <point x="383" y="467" type="curve"/>
      <point x="304" y="467" type="line"/>
      <point x="304" y="335" type="line" smooth="yes"/>
      <point x="304" y="277"/>
      <point x="355" y="209"/>
      <point x="423" y="209" type="curve" smooth="yes"/>
      <point x="481" y="209"/>
      <point x="545" y="259"/>
      <point x="545" y="305" type="curve" smooth="yes"/>
      <point x="545" y="338"/>
      <point x="513" y="373"/>
      <point x="466" y="384" type="curve"/>
      <point x="437" y="341" type="line"/>
      <point x="449" y="337"/>
      <point x="451" y="333"/>
      <point x="451" y="329" type="curve" smooth="yes"/>
      <point x="451" y="313"/>
      <point x="415" y="290"/>
      <point x="397" y="290" type="curve" smooth="yes"/>
      <point x="388" y="290"/>
      <point x="384" y="296"/>
      <point x="384" y="311" type="curve" smooth="yes"/>
      <point x="384" y="458" type="line"/>
      <point x="360" y="434" type="line"/>
      <point x="374" y="365"/>
      <point x="429" y="333"/>
      <point x="482" y="333" type="curve" smooth="yes"/>
      <point x="541" y="333"/>
      <point x="540" y="334"/>
      <point x="548" y="334" type="curve" smooth="yes"/>
      <point x="581" y="334"/>
      <point x="593" y="319"/>
      <point x="593" y="294" type="curve" smooth="yes"/>
      <point x="593" y="232"/>
      <point x="523" y="173"/>
      <point x="425" y="173" type="curve" smooth="yes"/>
      <point x="400" y="173"/>
      <point x="364" y="178"/>
      <point x="331" y="186" type="curve"/>
      <point x="390" y="74" type="line"/>
      <point x="507" y="59"/>
      <point x="587" y="23"/>
      <point x="684" y="-43" type="curve"/>
    </contour>
    <contour>
      <point x="625" y="-151" type="line"/>
      <point x="625" y="59" type="line"/>
      <point x="554" y="103" type="line"/>
      <point x="485" y="80"/>
      <point x="438" y="61"/>
      <point x="362" y="17" type="curve"/>
      <point x="431" y="-84" type="line"/>
      <point x="501" y="-97"/>
      <point x="548" y="-112"/>
      <point x="565" y="-151" type="curve"/>
    </contour>
    <contour>
      <point x="589" y="-119" type="line"/>
      <point x="562" y="-62"/>
      <point x="508" y="-19"/>
      <point x="419" y="3" type="curve"/>
      <point x="444" y="-39" type="line"/>
      <point x="513" y="4"/>
      <point x="568" y="31"/>
      <point x="617" y="48" type="curve"/>
      <point x="555" y="41" type="line"/>
      <point x="555" y="-90" type="line"/>
    </contour>
    <contour>
      <point x="428" y="456" type="line"/>
      <point x="428" y="521" type="line"/>
      <point x="-30" y="521" type="line"/>
      <point x="-30" y="456" type="line"/>
    </contour>
    <contour>
      <point x="747" y="456" type="line"/>
      <point x="747" y="521" type="line"/>
      <point x="240" y="521" type="line"/>
      <point x="240" y="456" type="line"/>
    </contour>
  </outline>
</glyph>
<glyph name="bCChRa" format="1">
  <advance width="717"/>
  <outline>
    <contour>
      <point x="122" y="189"/>
      <point x="129" y="182"/>
      <point x="139" y="182" type="curve" smooth="yes"/>
      <point x="172" y="182"/>
      <point x="232" y="255"/>
      <point x="232" y="290" type="curve" smooth="yes"/>
      <point x="232" y="303"/>
      <point x="224" y="305"/>
      <point x="202" y="310" type="curve" smooth="yes"/>
      <point x="136" y="325"/>
      <point x="104" y="359"/>
      <point x="82" y="440" type="curve"/>
      <point x="122" y="433" type="line"/>
      <point x="122" y="217" type="line" smooth="yes"/>
    </contour>
    <contour>
      <point x="122" y="467" type="line"/>
      <point x="122" y="437"/>
      <point x="137" y="414"/>
      <point x="176" y="403" type="curve" smooth="yes"/>
      <point x="197" y="397"/>
      <point x="242" y="392"/>
      <point x="283" y="347" type="curve" smooth="yes"/>
      <point x="309" y="318"/>
      <point x="322" y="288"/>
      <point x="322" y="260" type="curve" smooth="yes"/>
      <point x="322" y="185"/>
      <point x="233" y="91"/>
      <point x="169" y="91" type="curve" smooth="yes"/>
      <point x="116" y="91"/>
      <point x="42" y="156"/>
      <point x="42" y="252" type="curve" smooth="yes"/>
      <point x="42" y="467" type="line"/>
    </contour>
    <contour>
      <point x="-30" y="456" type="line"/>
      <point x="-30" y="521" type="line"/>
      <point x="428" y="521" type="line"/>
      <point x="428" y="456" type="line"/>
    </contour>
    <contour>
      <point x="466" y="384" type="line"/>
      <point x="513" y="373"/>
      <point x="545" y="338"/>
      <point x="545" y="304" type="curve" smooth="yes"/>
      <point x="545" y="257"/>
      <point x="481" y="204"/>
      <point x="422" y="204" type="curve" smooth="yes"/>
      <point x="356" y="204"/>
      <point x="304" y="272"/>
      <point x="304" y="330" type="curve" smooth="yes"/>
      <point x="304" y="467" type="line"/>
      <point x="383" y="467" type="line"/>
      <point x="386" y="429"/>
      <point x="425" y="409"/>
      <point x="466" y="409" type="curve" smooth="yes"/>
      <point x="478" y="409"/>
      <point x="508" y="411"/>
      <point x="523" y="411" type="curve" smooth="yes"/>
      <point x="610" y="411"/>
      <point x="685" y="336"/>
      <point x="685" y="253" type="curve" smooth="yes"/>
      <point x="685" y="171"/>
      <point x="612" y="88"/>
      <point x="476" y="74" type="curve"/>
      <point x="471" y="135" type="line"/>
      <point x="559" y="110"/>
      <point x="632" y="70"/>
      <point x="722" y="5" type="curve"/>
      <point x="684" y="-43" type="line"/>
      <point x="591" y="23"/>
      <point x="513" y="54"/>
      <point x="400" y="59" type="curve"/>
      <point x="341" y="181" type="line"/>
      <point x="370" y="173"/>
      <point x="401" y="168"/>
      <point x="426" y="168" type="curve" smooth="yes"/>
      <point x="522" y="168"/>
      <point x="593" y="239"/>
      <point x="593" y="295" type="curve" smooth="yes"/>
      <point x="593" y="319"/>
      <point x="580" y="334"/>
      <point x="548" y="334" type="curve" smooth="yes"/>
      <point x="540" y="334"/>
      <point x="541" y="333"/>
      <point x="482" y="333" type="curve" smooth="yes"/>
      <point x="429" y="333"/>
      <point x="374" y="365"/>
      <point x="360" y="434" type="curve"/>
      <point x="384" y="458" type="line"/>
      <point x="384" y="306" type="line" smooth="yes"/>
      <point x="384" y="291"/>
      <point x="388" y="285"/>
      <point x="397" y="285" type="curve" smooth="yes"/>
      <point x="415" y="285"/>
      <point x="451" y="311"/>
      <point x="451" y="329" type="curve" smooth="yes"/>
      <point x="451" y="333"/>
      <point x="449" y="337"/>
      <point x="437" y="341" type="curve"/>
    </contour>
    <contour>
      <point x="190" y="456" type="line"/>
      <point x="190" y="521" type="line"/>
      <point x="747" y="521" type="line"/>
      <point x="747" y="456" type="line"/>
    </contour>
    <contour>
      <point x="624" y="57" type="line"/>
      <point x="624" y="-121" type="line"/>
      <point x="564" y="-121" type="line"/>
      <point x="558" y="-84"/>
      <point x="535" y="-73"/>
      <point x="506" y="-73" type="curve" smooth="yes"/>
      <point x="479" y="-73"/>
      <point x="437" y="-82"/>
      <point x="408" y="-82" type="curve" smooth="yes"/>
      <point x="331" y="-82"/>
      <point x="268" y="-21"/>
      <point x="268" y="57" type="curve" smooth="yes"/>
      <point x="268" y="84"/>
      <point x="276" y="112"/>
      <point x="287" y="131" type="curve"/>
      <point x="334" y="113" type="line"/>
      <point x="328" y="99"/>
      <point x="321" y="76"/>
      <point x="321" y="60" type="curve" smooth="yes"/>
      <point x="321" y="32"/>
      <point x="343" y="15"/>
      <point x="381" y="15" type="curve" smooth="yes"/>
      <point x="394" y="15"/>
      <point x="438" y="17"/>
      <point x="452" y="17" type="curve" smooth="yes"/>
      <point x="521" y="17"/>
      <point x="567" y="-30"/>
      <point x="584" y="-94" type="curve"/>
      <point x="554" y="-67" type="line"/>
      <point x="554" y="57" type="line"/>
    </contour>
  </outline>
</glyph>
<glyph name="bCCha" format="1">
  <advance width="713"/>
  <outline>
    <contour>
      <point x="122" y="178"/>
      <point x="129" y="172"/>
      <point x="140" y="172" type="curve" smooth="yes"/>
      <point x="172" y="172"/>
      <point x="232" y="253"/>
      <point x="232" y="289" type="curve" smooth="yes"/>
      <point x="232" y="303"/>
      <point x="225" y="305"/>
      <point x="202" y="310" type="curve" smooth="yes"/>
      <point x="134" y="324"/>
      <point x="102" y="365"/>
      <point x="82" y="440" type="curve"/>
      <point x="122" y="433" type="line"/>
      <point x="122" y="207" type="line" smooth="yes"/>
    </contour>
    <contour>
      <point x="122" y="467" type="line"/>
      <point x="122" y="433"/>
      <point x="139" y="415"/>
      <point x="176" y="403" type="curve" smooth="yes"/>
      <point x="208" y="394"/>
      <point x="240" y="392"/>
      <point x="283" y="347" type="curve" smooth="yes"/>
      <point x="309" y="318"/>
      <point x="322" y="290"/>
      <point x="322" y="256" type="curve" smooth="yes"/>
      <point x="322" y="182"/>
      <point x="231" y="81"/>
      <point x="172" y="81" type="curve" smooth="yes"/>
      <point x="114" y="81"/>
      <point x="42" y="147"/>
      <point x="42" y="242" type="curve" smooth="yes"/>
      <point x="42" y="467" type="line"/>
    </contour>
    <contour>
      <point x="-30" y="456" type="line"/>
      <point x="-30" y="521" type="line"/>
      <point x="428" y="521" type="line"/>
      <point x="428" y="456" type="line"/>
    </contour>
    <contour>
      <point x="462" y="374" type="line"/>
      <point x="509" y="363"/>
      <point x="541" y="328"/>
      <point x="541" y="293" type="curve" smooth="yes"/>
      <point x="541" y="244"/>
      <point x="477" y="188"/>
      <point x="418" y="188" type="curve" smooth="yes"/>
      <point x="352" y="188"/>
      <point x="300" y="256"/>
      <point x="300" y="314" type="curve" smooth="yes"/>
      <point x="300" y="467" type="line"/>
      <point x="379" y="467" type="line"/>
      <point x="382" y="423"/>
      <point x="421" y="399"/>
      <point x="462" y="399" type="curve" smooth="yes"/>
      <point x="474" y="399"/>
      <point x="504" y="401"/>
      <point x="519" y="401" type="curve" smooth="yes"/>
      <point x="609" y="401"/>
      <point x="686" y="327"/>
      <point x="686" y="242" type="curve" smooth="yes"/>
      <point x="686" y="158"/>
      <point x="611" y="68"/>
      <point x="472" y="54" type="curve"/>
      <point x="467" y="115" type="line"/>
      <point x="555" y="90"/>
      <point x="628" y="50"/>
      <point x="718" y="-15" type="curve"/>
      <point x="680" y="-63" type="line"/>
      <point x="580" y="3"/>
      <point x="497" y="34"/>
      <point x="376" y="39" type="curve"/>
      <point x="317" y="161" type="line"/>
      <point x="353" y="153"/>
      <point x="393" y="148"/>
      <point x="419" y="148" type="curve" smooth="yes"/>
      <point x="522" y="148"/>
      <point x="594" y="225"/>
      <point x="594" y="284" type="curve" smooth="yes"/>
      <point x="594" y="309"/>
      <point x="581" y="324"/>
      <point x="544" y="324" type="curve" smooth="yes"/>
      <point x="535" y="324"/>
      <point x="538" y="323"/>
      <point x="478" y="323" type="curve" smooth="yes"/>
      <point x="425" y="323"/>
      <point x="370" y="355"/>
      <point x="356" y="424" type="curve"/>
      <point x="380" y="458" type="line"/>
      <point x="380" y="290" type="line" smooth="yes"/>
      <point x="380" y="275"/>
      <point x="384" y="269"/>
      <point x="393" y="269" type="curve" smooth="yes"/>
      <point x="411" y="269"/>
      <point x="447" y="299"/>
      <point x="447" y="318" type="curve" smooth="yes"/>
      <point x="447" y="323"/>
      <point x="445" y="327"/>
      <point x="433" y="331" type="curve"/>
    </contour>
    <contour>
      <point x="236" y="456" type="line"/>
      <point x="236" y="521" type="line"/>
      <point x="743" y="521" type="line"/>
      <point x="743" y="456" type="line"/>
    </contour>
  </outline>
</glyph>
<glyph name="bCNa" format="1">
  <advance width="397"/>
  <outline>
    <contour>
      <point x="132" y="168"/>
      <point x="139" y="163"/>
      <point x="150" y="163" type="curve" smooth="yes"/>
      <point x="193" y="163"/>
      <point x="276" y="234"/>
      <point x="276" y="272" type="curve" smooth="yes"/>
      <point x="276" y="284"/>
      <point x="267" y="286"/>
      <point x="242" y="291" type="curve" smooth="yes"/>
      <point x="155" y="309"/>
      <point x="118" y="343"/>
      <point x="92" y="440" type="curve"/>
      <point x="132" y="413" type="line"/>
      <point x="132" y="192" type="line" smooth="yes"/>
    </contour>
    <contour>
      <point x="132" y="467" type="line"/>
      <point x="132" y="422"/>
      <point x="174" y="411"/>
      <point x="202" y="404" type="curve" smooth="yes"/>
      <point x="244" y="393"/>
      <point x="283" y="392"/>
      <point x="333" y="333" type="curve" smooth="yes"/>
      <point x="350" y="313"/>
      <point x="378" y="274"/>
      <point x="378" y="238" type="curve" smooth="yes"/>
      <point x="378" y="164"/>
      <point x="254" y="72"/>
      <point x="180" y="72" type="curve" smooth="yes"/>
      <point x="120" y="72"/>
      <point x="52" y="134"/>
      <point x="52" y="229" type="curve" smooth="yes"/>
      <point x="52" y="467" type="line"/>
    </contour>
    <contour>
      <point x="-30" y="456" type="line"/>
      <point x="-30" y="521" type="line"/>
      <point x="427" y="521" type="line"/>
      <point x="427" y="456" type="line"/>
    </contour>
    <contour>
      <point x="242" y="-79" type="line"/>
      <point x="242" y="165" type="line"/>
      <point x="312" y="165" type="line"/>
      <point x="312" y="-122" type="line"/>
      <point x="252" y="-122" type="line"/>
      <point x="246" y="-59"/>
      <point x="199" y="-27"/>
      <point x="158" y="-27" type="curve" smooth="yes"/>
      <point x="146" y="-27"/>
      <point x="138" y="-30"/>
      <point x="130" y="-35" type="curve"/>
      <point x="136" y="25" type="line"/>
      <point x="161" y="10"/>
      <point x="169" y="-12"/>
      <point x="169" y="-32" type="curve" smooth="yes"/>
      <point x="169" y="-71"/>
      <point x="139" y="-100"/>
      <point x="100" y="-100" type="curve" smooth="yes"/>
      <point x="58" y="-100"/>
      <point x="23" y="-68"/>
      <point x="23" y="-23" type="curve" smooth="yes"/>
      <point x="23" y="24"/>
      <point x="61" y="59"/>
      <point x="115" y="59" type="curve" smooth="yes"/>
      <point x="181" y="59"/>
      <point x="249" y="5"/>
      <point x="272" y="-77" type="curve"/>
    </contour>
  </outline>
</glyph>
<glyph name="bCa" format="1">
  <advance width="398"/>
  <outline>
    <contour>
      <point x="122" y="104"/>
      <point x="129" y="97"/>
      <point x="139" y="97" type="curve" smooth="yes"/>
      <point x="187" y="97"/>
      <point x="276" y="200"/>
      <point x="276" y="246" type="curve" smooth="yes"/>
      <point x="276" y="263"/>
      <point x="270" y="266"/>
      <point x="242" y="271" type="curve" smooth="yes"/>
      <point x="152" y="286"/>
      <point x="105" y="340"/>
      <point x="82" y="440" type="curve"/>
      <point x="122" y="413" type="line"/>
      <point x="122" y="132" type="line" smooth="yes"/>
    </contour>
    <contour>
      <point x="122" y="467" type="line"/>
      <point x="122" y="430"/>
      <point x="147" y="394"/>
      <point x="202" y="384" type="curve" smooth="yes"/>
      <point x="276" y="369"/>
      <point x="300" y="351"/>
      <point x="333" y="313" type="curve" smooth="yes"/>
      <point x="356" y="287"/>
      <point x="379" y="252"/>
      <point x="379" y="209" type="curve" smooth="yes"/>
      <point x="379" y="128"/>
      <point x="258" y="0"/>
      <point x="168" y="0" type="curve" smooth="yes"/>
      <point x="116" y="0"/>
      <point x="42" y="68"/>
      <point x="42" y="167" type="curve" smooth="yes"/>
      <point x="42" y="467" type="line"/>
    </contour>
    <contour>
      <point x="-30" y="456" type="line"/>
      <point x="-30" y="521" type="line"/>
      <point x="428" y="521" type="line"/>
      <point x="428" y="456" type="line"/>
    </contour>
  </outline>
</glyph>
<glyph name="bCha" format="1">
  <advance width="447"/>
  <outline>
    <contour>
      <point x="196" y="374" type="line"/>
      <point x="243" y="363"/>
      <point x="275" y="328"/>
      <point x="275" y="293" type="curve" smooth="yes"/>
      <point x="275" y="244"/>
      <point x="211" y="188"/>
      <point x="152" y="188" type="curve" smooth="yes"/>
      <point x="86" y="188"/>
      <point x="34" y="256"/>
      <point x="34" y="314" type="curve" smooth="yes"/>
      <point x="34" y="467" type="line"/>
      <point x="113" y="467" type="line"/>
      <point x="116" y="423"/>
      <point x="155" y="399"/>
      <point x="196" y="399" type="curve" smooth="yes"/>
      <point x="208" y="399"/>
      <point x="238" y="401"/>
      <point x="253" y="401" type="curve" smooth="yes"/>
      <point x="343" y="401"/>
      <point x="420" y="327"/>
      <point x="420" y="242" type="curve" smooth="yes"/>
      <point x="420" y="158"/>
      <point x="345" y="68"/>
      <point x="206" y="54" type="curve"/>
      <point x="201" y="115" type="line"/>
      <point x="289" y="90"/>
      <point x="362" y="50"/>
      <point x="452" y="-15" type="curve"/>
      <point x="414" y="-63" type="line"/>
      <point x="314" y="3"/>
      <point x="231" y="34"/>
      <point x="110" y="39" type="curve"/>
      <point x="51" y="161" type="line"/>
      <point x="87" y="153"/>
      <point x="127" y="148"/>
      <point x="153" y="148" type="curve" smooth="yes"/>
      <point x="256" y="148"/>
      <point x="328" y="225"/>
      <point x="328" y="284" type="curve" smooth="yes"/>
      <point x="328" y="309"/>
      <point x="315" y="324"/>
      <point x="278" y="324" type="curve" smooth="yes"/>
      <point x="269" y="324"/>
      <point x="272" y="323"/>
      <point x="212" y="323" type="curve" smooth="yes"/>
      <point x="159" y="323"/>
      <point x="104" y="355"/>
      <point x="90" y="424" type="curve"/>
      <point x="114" y="458" type="line"/>
      <point x="114" y="290" type="line" smooth="yes"/>
      <point x="114" y="275"/>
      <point x="118" y="269"/>
      <point x="127" y="269" type="curve" smooth="yes"/>
      <point x="145" y="269"/>
      <point x="181" y="299"/>
      <point x="181" y="318" type="curve" smooth="yes"/>
      <point x="181" y="323"/>
      <point x="179" y="327"/>
      <point x="167" y="331" type="curve"/>
    </contour>
    <contour>
      <point x="-30" y="456" type="line"/>
      <point x="-30" y="521" type="line"/>
      <point x="477" y="521" type="line"/>
      <point x="477" y="456" type="line"/>
    </contour>
  </outline>
</glyph>
<glyph name="bDBa" format="1">
  <advance width="441"/>
  <outline>
    <contour>
      <point x="-30" y="456" type="line"/>
      <point x="-30" y="521" type="line"/>
      <point x="471" y="521" type="line"/>
      <point x="471" y="456" type="line"/>
    </contour>
    <contour>
      <point x="321" y="315"/>
      <point x="310" y="324"/>
      <point x="294" y="324" type="curve" smooth="yes"/>
      <point x="255" y="324"/>
      <point x="183" y="270"/>
      <point x="131" y="206" type="curve"/>
      <point x="44" y="279" type="line"/>
      <point x="44" y="467" type="line"/>
      <point x="124" y="467" type="line"/>
      <point x="124" y="250" type="line"/>
      <point x="73" y="288" type="line"/>
      <point x="138" y="371"/>
      <point x="216" y="420"/>
      <point x="271" y="420" type="curve" smooth="yes"/>
      <point x="334" y="420"/>
      <point x="401" y="345"/>
      <point x="401" y="277" type="curve" smooth="yes"/>
      <point x="401" y="-50" type="line"/>
      <point x="341" y="-50" type="line"/>
      <point x="324" y="14"/>
      <point x="259" y="50"/>
      <point x="172" y="63" type="curve"/>
      <point x="107" y="155" type="line"/>
      <point x="209" y="228"/>
      <point x="302" y="280"/>
      <point x="361" y="306" type="curve"/>
      <point x="389" y="217" type="line"/>
      <point x="323" y="184"/>
      <point x="273" y="154"/>
      <point x="192" y="96" type="curve"/>
      <point x="147" y="154" type="line"/>
      <point x="250" y="139"/>
      <point x="340" y="64"/>
      <point x="369" y="-27" type="curve"/>
      <point x="321" y="10" type="line"/>
      <point x="321" y="289" type="line" smooth="yes"/>
    </contour>
  </outline>
</glyph>
<glyph name="bDBhRa" format="1">
  <advance width="486"/>
  <outline>
    <contour>
      <point x="-30" y="456" type="line"/>
      <point x="-30" y="521" type="line"/>
      <point x="516" y="521" type="line"/>
      <point x="516" y="456" type="line"/>
    </contour>
    <contour>
      <point x="359" y="158"/>
      <point x="363" y="136"/>
      <point x="369" y="102" type="curve"/>
      <point x="313" y="109" type="line"/>
      <point x="299" y="156"/>
      <point x="292" y="200"/>
      <point x="292" y="243" type="curve" smooth="yes"/>
      <point x="292" y="300"/>
      <point x="304" y="355"/>
      <point x="330" y="385" type="curve"/>
      <point x="350" y="334" type="line"/>
      <point x="291" y="315"/>
      <point x="242" y="287"/>
      <point x="183" y="226" type="curve"/>
      <point x="96" y="299" type="line"/>
      <point x="96" y="467" type="line"/>
      <point x="176" y="467" type="line"/>
      <point x="176" y="280" type="line"/>
      <point x="131" y="317" type="line"/>
      <point x="187" y="374"/>
      <point x="248" y="412"/>
      <point x="327" y="435" type="curve"/>
      <point x="423" y="357" type="line"/>
      <point x="375" y="302"/>
      <point x="359" y="265"/>
      <point x="359" y="194" type="curve" smooth="yes"/>
    </contour>
    <contour>
      <point x="392" y="112"/>
      <point x="378" y="136"/>
      <point x="363" y="146" type="curve"/>
      <point x="435" y="137" type="line"/>
      <point x="407" y="88"/>
      <point x="347" y="36"/>
      <point x="270" y="36" type="curve" smooth="yes"/>
      <point x="191" y="36"/>
      <point x="140" y="87"/>
      <point x="140" y="139" type="curve" smooth="yes"/>
      <point x="140" y="178"/>
      <point x="168" y="211"/>
      <point x="206" y="211" type="curve" smooth="yes"/>
      <point x="241" y="211"/>
      <point x="270" y="184"/>
      <point x="270" y="146" type="curve" smooth="yes"/>
      <point x="270" y="119"/>
      <point x="256" y="101"/>
      <point x="224" y="86" type="curve"/>
      <point x="217" y="132" type="line"/>
      <point x="230" y="127"/>
      <point x="248" y="125"/>
      <point x="258" y="125" type="curve" smooth="yes"/>
      <point x="302" y="125"/>
      <point x="350" y="160"/>
      <point x="394" y="218" type="curve"/>
      <point x="433" y="185"/>
      <point x="472" y="123"/>
      <point x="472" y="55" type="curve" smooth="yes"/>
      <point x="472" y="-156" type="line"/>
      <point x="412" y="-156" type="line"/>
      <point x="410" y="-118"/>
      <point x="395" y="-93"/>
      <point x="344" y="-93" type="curve" smooth="yes"/>
      <point x="307" y="-93"/>
      <point x="245" y="-103"/>
      <point x="203" y="-103" type="curve" smooth="yes"/>
      <point x="91" y="-103"/>
      <point x="16" y="-31"/>
      <point x="16" y="68" type="curve" smooth="yes"/>
      <point x="16" y="110"/>
      <point x="29" y="152"/>
      <point x="55" y="191" type="curve"/>
      <point x="100" y="167" type="line"/>
      <point x="86" y="141"/>
      <point x="75" y="105"/>
      <point x="75" y="75" type="curve" smooth="yes"/>
      <point x="75" y="20"/>
      <point x="112" y="-2"/>
      <point x="170" y="-2" type="curve" smooth="yes"/>
      <point x="201" y="-2"/>
      <point x="273" y="4"/>
      <point x="298" y="4" type="curve" smooth="yes"/>
      <point x="369" y="4"/>
      <point x="413" y="-49"/>
      <point x="433" y="-123" type="curve"/>
      <point x="392" y="-75" type="line"/>
      <point x="392" y="83" type="line" smooth="yes"/>
    </contour>
  </outline>
</glyph>
<glyph name="bDDBa" format="1">
  <advance width="594"/>
  <outline>
    <contour>
      <point x="-30" y="456" type="line"/>
      <point x="-30" y="521" type="line"/>
      <point x="624" y="521" type="line"/>
      <point x="624" y="456" type="line"/>
    </contour>
    <contour>
      <point x="239" y="155"/>
      <point x="237" y="183"/>
      <point x="237" y="207" type="curve" smooth="yes"/>
      <point x="237" y="277"/>
      <point x="254" y="339"/>
      <point x="292" y="375" type="curve"/>
      <point x="312" y="314" type="line"/>
      <point x="248" y="281"/>
      <point x="183" y="219"/>
      <point x="131" y="128" type="curve"/>
      <point x="44" y="209" type="line"/>
      <point x="44" y="467" type="line"/>
      <point x="124" y="467" type="line"/>
      <point x="124" y="190" type="line"/>
      <point x="79" y="237" type="line"/>
      <point x="127" y="317"/>
      <point x="204" y="388"/>
      <point x="289" y="425" type="curve"/>
      <point x="385" y="347" type="line"/>
      <point x="328" y="274"/>
      <point x="309" y="219"/>
      <point x="309" y="142" type="curve"/>
      <point x="269" y="134" type="line"/>
      <point x="318" y="221"/>
      <point x="396" y="299"/>
      <point x="484" y="337" type="curve"/>
      <point x="579" y="256" type="line"/>
      <point x="523" y="189"/>
      <point x="502" y="144"/>
      <point x="502" y="59" type="curve" smooth="yes"/>
      <point x="502" y="23"/>
      <point x="506" y="-49"/>
      <point x="518" y="-119" type="curve"/>
      <point x="463" y="-128" type="line"/>
      <point x="445" y="-36"/>
      <point x="433" y="59"/>
      <point x="433" y="120" type="curve" smooth="yes"/>
      <point x="433" y="188"/>
      <point x="448" y="243"/>
      <point x="486" y="290" type="curve"/>
      <point x="506" y="229" type="line"/>
      <point x="440" y="198"/>
      <point x="374" y="139"/>
      <point x="321" y="65" type="curve"/>
      <point x="243" y="126" type="line"/>
    </contour>
    <contour>
      <point x="463" y="-128" type="line"/>
      <point x="446" y="-101"/>
      <point x="400" y="-84"/>
      <point x="332" y="-82" type="curve"/>
      <point x="263" y="9" type="line"/>
      <point x="339" y="56"/>
      <point x="387" y="83"/>
      <point x="461" y="118" type="curve"/>
      <point x="498" y="34" type="line"/>
      <point x="455" y="20"/>
      <point x="407" y="-4"/>
      <point x="355" y="-37" type="curve"/>
      <point x="320" y="-5" type="line"/>
      <point x="407" y="-21"/>
      <point x="461" y="-54"/>
      <point x="487" y="-96" type="curve"/>
    </contour>
  </outline>
</glyph>
<glyph name="bDDa" format="1">
  <advance width="594"/>
  <outline>
    <contour>
      <point x="-30" y="456" type="line"/>
      <point x="-30" y="521" type="line"/>
      <point x="624" y="521" type="line"/>
      <point x="624" y="456" type="line"/>
    </contour>
    <contour>
      <point x="239" y="138"/>
      <point x="237" y="166"/>
      <point x="237" y="192" type="curve" smooth="yes"/>
      <point x="237" y="267"/>
      <point x="254" y="336"/>
      <point x="292" y="375" type="curve"/>
      <point x="312" y="314" type="line"/>
      <point x="248" y="281"/>
      <point x="183" y="219"/>
      <point x="131" y="128" type="curve"/>
      <point x="44" y="209" type="line"/>
      <point x="44" y="467" type="line"/>
      <point x="124" y="467" type="line"/>
      <point x="124" y="190" type="line"/>
      <point x="79" y="237" type="line"/>
      <point x="127" y="317"/>
      <point x="204" y="388"/>
      <point x="289" y="425" type="curve"/>
      <point x="385" y="347" type="line"/>
      <point x="328" y="272"/>
      <point x="309" y="215"/>
      <point x="309" y="135" type="curve"/>
      <point x="269" y="127" type="line"/>
      <point x="318" y="213"/>
      <point x="396" y="290"/>
      <point x="484" y="327" type="curve"/>
      <point x="579" y="246" type="line"/>
      <point x="524" y="179"/>
      <point x="503" y="133"/>
      <point x="503" y="51" type="curve" smooth="yes"/>
      <point x="503" y="26"/>
      <point x="505" y="-19"/>
      <point x="511" y="-64" type="curve"/>
      <point x="453" y="-73" type="line"/>
      <point x="440" y="-8"/>
      <point x="431" y="57"/>
      <point x="431" y="105" type="curve" smooth="yes"/>
      <point x="431" y="170"/>
      <point x="448" y="233"/>
      <point x="486" y="280" type="curve"/>
      <point x="506" y="219" type="line"/>
      <point x="440" y="185"/>
      <point x="374" y="121"/>
      <point x="321" y="28" type="curve"/>
      <point x="243" y="109" type="line"/>
    </contour>
  </outline>
</glyph>
<glyph name="bDDhBa" format="1">
  <advance width="588"/>
  <outline>
    <contour>
      <point x="-30" y="456" type="line"/>
      <point x="-30" y="521" type="line"/>
      <point x="618" y="521" type="line"/>
      <point x="618" y="456" type="line"/>
    </contour>
    <contour>
      <point x="321" y="325"/>
      <point x="310" y="334"/>
      <point x="294" y="334" type="curve" smooth="yes"/>
      <point x="255" y="334"/>
      <point x="183" y="275"/>
      <point x="131" y="206" type="curve"/>
      <point x="44" y="279" type="line"/>
      <point x="44" y="467" type="line"/>
      <point x="124" y="467" type="line"/>
      <point x="124" y="250" type="line"/>
      <point x="73" y="288" type="line"/>
      <point x="138" y="377"/>
      <point x="216" y="430"/>
      <point x="271" y="430" type="curve" smooth="yes"/>
      <point x="334" y="430"/>
      <point x="401" y="355"/>
      <point x="401" y="287" type="curve" smooth="yes"/>
      <point x="401" y="60" type="line"/>
      <point x="321" y="60" type="line"/>
      <point x="321" y="299" type="line" smooth="yes"/>
    </contour>
    <contour>
      <point x="261" y="43" type="line"/>
      <point x="233" y="57"/>
      <point x="199" y="66"/>
      <point x="161" y="71" type="curve"/>
      <point x="96" y="161" type="line"/>
      <point x="202" y="231"/>
      <point x="300" y="281"/>
      <point x="361" y="306" type="curve"/>
      <point x="389" y="217" type="line"/>
      <point x="319" y="187"/>
      <point x="264" y="159"/>
      <point x="178" y="105" type="curve"/>
      <point x="136" y="160" type="line"/>
      <point x="196" y="150"/>
      <point x="252" y="122"/>
      <point x="295" y="81" type="curve"/>
    </contour>
    <contour>
      <point x="357" y="304" type="line"/>
      <point x="391" y="326"/>
      <point x="428" y="337"/>
      <point x="445" y="337" type="curve" smooth="yes"/>
      <point x="489" y="337"/>
      <point x="548" y="260"/>
      <point x="548" y="203" type="curve" smooth="yes"/>
      <point x="548" y="32" type="line" smooth="yes"/>
      <point x="548" y="9"/>
      <point x="559" y="-11"/>
      <point x="578" y="-26" type="curve"/>
      <point x="550" y="-65" type="line"/>
      <point x="503" y="-39"/>
      <point x="471" y="-8"/>
      <point x="471" y="52" type="curve" smooth="yes"/>
      <point x="471" y="233" type="line" smooth="yes"/>
      <point x="471" y="245"/>
      <point x="468" y="249"/>
      <point x="461" y="249" type="curve" smooth="yes"/>
      <point x="449" y="249"/>
      <point x="417" y="235"/>
      <point x="392" y="219" type="curve"/>
    </contour>
    <contour>
      <point x="341" y="-121" type="line"/>
      <point x="327" y="-84"/>
      <point x="271" y="-61"/>
      <point x="217" y="-57" type="curve"/>
      <point x="158" y="30" type="line"/>
      <point x="233" y="79"/>
      <point x="277" y="103"/>
      <point x="346" y="136" type="curve"/>
      <point x="401" y="89" type="line"/>
      <point x="401" y="-121" type="line"/>
    </contour>
    <contour>
      <point x="331" y="104" type="line"/>
      <point x="382" y="61" type="line"/>
      <point x="340" y="45"/>
      <point x="293" y="21"/>
      <point x="240" y="-17" type="curve"/>
      <point x="215" y="16" type="line"/>
      <point x="292" y="-1"/>
      <point x="340" y="-40"/>
      <point x="361" y="-89" type="curve"/>
      <point x="331" y="-60" type="line"/>
    </contour>
  </outline>
</glyph>
<glyph name="bDDha" format="1">
  <advance width="588"/>
  <outline>
    <contour>
      <point x="-30" y="456" type="line"/>
      <point x="-30" y="521" type="line"/>
      <point x="618" y="521" type="line"/>
      <point x="618" y="456" type="line"/>
    </contour>
    <contour>
      <point x="321" y="315"/>
      <point x="310" y="324"/>
      <point x="294" y="324" type="curve" smooth="yes"/>
      <point x="255" y="324"/>
      <point x="183" y="270"/>
      <point x="131" y="206" type="curve"/>
      <point x="44" y="279" type="line"/>
      <point x="44" y="467" type="line"/>
      <point x="124" y="467" type="line"/>
      <point x="124" y="250" type="line"/>
      <point x="73" y="288" type="line"/>
      <point x="138" y="371"/>
      <point x="216" y="420"/>
      <point x="271" y="420" type="curve" smooth="yes"/>
      <point x="334" y="420"/>
      <point x="401" y="345"/>
      <point x="401" y="277" type="curve" smooth="yes"/>
      <point x="401" y="-50" type="line"/>
      <point x="341" y="-50" type="line"/>
      <point x="324" y="14"/>
      <point x="259" y="50"/>
      <point x="172" y="63" type="curve"/>
      <point x="107" y="155" type="line"/>
      <point x="209" y="228"/>
      <point x="302" y="280"/>
      <point x="361" y="306" type="curve"/>
      <point x="389" y="217" type="line"/>
      <point x="323" y="184"/>
      <point x="273" y="154"/>
      <point x="192" y="96" type="curve"/>
      <point x="147" y="154" type="line"/>
      <point x="250" y="139"/>
      <point x="340" y="64"/>
      <point x="369" y="-27" type="curve"/>
      <point x="321" y="10" type="line"/>
      <point x="321" y="289" type="line" smooth="yes"/>
    </contour>
    <contour>
      <point x="357" y="304" type="line"/>
      <point x="391" y="326"/>
      <point x="428" y="337"/>
      <point x="445" y="337" type="curve" smooth="yes"/>
      <point x="489" y="337"/>
      <point x="548" y="260"/>
      <point x="548" y="203" type="curve" smooth="yes"/>
      <point x="548" y="62" type="line" smooth="yes"/>
      <point x="548" y="39"/>
      <point x="559" y="19"/>
      <point x="578" y="4" type="curve"/>
      <point x="550" y="-35" type="line"/>
      <point x="503" y="-9"/>
      <point x="471" y="22"/>
      <point x="471" y="82" type="curve" smooth="yes"/>
      <point x="471" y="233" type="line" smooth="yes"/>
      <point x="471" y="245"/>
      <point x="468" y="249"/>
      <point x="461" y="249" type="curve" smooth="yes"/>
      <point x="449" y="249"/>
      <point x="417" y="235"/>
      <point x="392" y="219" type="curve"/>
    </contour>
  </outline>
</glyph>
<glyph name="bDGa" format="1">
  <advance width="867"/>
  <outline>
    <contour>
      <point x="124" y="467" type="line"/>
      <point x="124" y="190" type="line"/>
      <point x="79" y="237" type="line"/>
      <point x="131" y="317"/>
      <point x="220" y="386"/>
      <point x="320" y="417" type="curve"/>
      <point x="417" y="330" type="line"/>
      <point x="354" y="265"/>
      <point x="334" y="211"/>
      <point x="334" y="134" type="curve" smooth="yes"/>
      <point x="334" y="99"/>
      <point x="338" y="48"/>
      <point x="347" y="-4" type="curve"/>
      <point x="289" y="-13" type="line"/>
      <point x="273" y="60"/>
      <point x="262" y="132"/>
      <point x="262" y="192" type="curve" smooth="yes"/>
      <point x="262" y="267"/>
      <point x="279" y="336"/>
      <point x="317" y="375" type="curve"/>
      <point x="342" y="305" type="line"/>
      <point x="267" y="272"/>
      <point x="191" y="210"/>
      <point x="131" y="118" type="curve"/>
      <point x="44" y="209" type="line"/>
      <point x="44" y="467" type="line"/>
    </contour>
    <contour>
      <point x="-30" y="456" type="line"/>
      <point x="-30" y="521" type="line"/>
      <point x="392" y="521" type="line"/>
      <point x="392" y="456" type="line"/>
    </contour>
    <contour>
      <point x="897" y="521" type="line"/>
      <point x="897" y="456" type="line"/>
      <point x="817" y="456" type="line"/>
      <point x="817" y="0" type="line"/>
      <point x="737" y="0" type="line"/>
      <point x="737" y="244" type="line" smooth="yes"/>
      <point x="737" y="351"/>
      <point x="678" y="437"/>
      <point x="594" y="437" type="curve" smooth="yes"/>
      <point x="533" y="437"/>
      <point x="482" y="391"/>
      <point x="482" y="331" type="curve" smooth="yes"/>
      <point x="482" y="319"/>
      <point x="484" y="300"/>
      <point x="490" y="287" type="curve"/>
      <point x="446" y="334" type="line"/>
      <point x="491" y="364"/>
      <point x="521" y="377"/>
      <point x="556" y="377" type="curve" smooth="yes"/>
      <point x="638" y="377"/>
      <point x="686" y="304"/>
      <point x="686" y="236" type="curve" smooth="yes"/>
      <point x="686" y="178"/>
      <point x="652" y="116"/>
      <point x="581" y="61" type="curve"/>
      <point x="483" y="141" type="line"/>
      <point x="565" y="194"/>
      <point x="608" y="246"/>
      <point x="608" y="275" type="curve" smooth="yes"/>
      <point x="608" y="286"/>
      <point x="602" y="293"/>
      <point x="590" y="293" type="curve" smooth="yes"/>
      <point x="559" y="293"/>
      <point x="514" y="248"/>
      <point x="468" y="248" type="curve" smooth="yes"/>
      <point x="426" y="248"/>
      <point x="383" y="295"/>
      <point x="383" y="357" type="curve" smooth="yes"/>
      <point x="383" y="453"/>
      <point x="459" y="530"/>
      <point x="560" y="530" type="curve" smooth="yes"/>
      <point x="675" y="530"/>
      <point x="752" y="431"/>
      <point x="786" y="296" type="curve"/>
      <point x="737" y="294" type="line"/>
      <point x="737" y="521" type="line"/>
    </contour>
  </outline>
</glyph>
<glyph name="bDGha" format="1">
  <advance width="807"/>
  <outline>
    <contour>
      <point x="124" y="467" type="line"/>
      <point x="124" y="190" type="line"/>
      <point x="79" y="237" type="line"/>
      <point x="131" y="317"/>
      <point x="220" y="386"/>
      <point x="320" y="417" type="curve"/>
      <point x="417" y="330" type="line"/>
      <point x="354" y="265"/>
      <point x="334" y="211"/>
      <point x="334" y="134" type="curve" smooth="yes"/>
      <point x="334" y="99"/>
      <point x="338" y="48"/>
      <point x="347" y="-4" type="curve"/>
      <point x="289" y="-13" type="line"/>
      <point x="273" y="60"/>
      <point x="262" y="132"/>
      <point x="262" y="192" type="curve" smooth="yes"/>
      <point x="262" y="267"/>
      <point x="279" y="336"/>
      <point x="317" y="375" type="curve"/>
      <point x="342" y="305" type="line"/>
      <point x="267" y="272"/>
      <point x="191" y="210"/>
      <point x="131" y="118" type="curve"/>
      <point x="44" y="209" type="line"/>
      <point x="44" y="467" type="line"/>
    </contour>
    <contour>
      <point x="-30" y="456" type="line"/>
      <point x="-30" y="521" type="line"/>
      <point x="392" y="521" type="line"/>
      <point x="392" y="456" type="line"/>
    </contour>
    <contour>
      <point x="290" y="456" type="line"/>
      <point x="260" y="521" type="line"/>
      <point x="837" y="521" type="line"/>
      <point x="837" y="456" type="line"/>
    </contour>
    <contour>
      <point x="604" y="309" type="line"/>
      <point x="578" y="294"/>
      <point x="548" y="287"/>
      <point x="519" y="287" type="curve" smooth="yes"/>
      <point x="440" y="287"/>
      <point x="372" y="338"/>
      <point x="372" y="407" type="curve" smooth="yes"/>
      <point x="372" y="445"/>
      <point x="392" y="481"/>
      <point x="419" y="498" type="curve"/>
      <point x="566" y="456" type="line"/>
      <point x="508" y="456"/>
      <point x="471" y="411"/>
      <point x="471" y="378" type="curve" smooth="yes"/>
      <point x="471" y="356"/>
      <point x="488" y="343"/>
      <point x="509" y="343" type="curve" smooth="yes"/>
      <point x="524" y="343"/>
      <point x="539" y="350"/>
      <point x="552" y="361" type="curve"/>
    </contour>
    <contour>
      <point x="581" y="386" type="line"/>
      <point x="657" y="300" type="line"/>
      <point x="497" y="174" type="line"/>
      <point x="464" y="245" type="line"/>
      <point x="586" y="217"/>
      <point x="688" y="138"/>
      <point x="737" y="15" type="curve"/>
      <point x="677" y="59" type="line"/>
      <point x="677" y="467" type="line"/>
      <point x="757" y="467" type="line"/>
      <point x="757" y="0" type="line"/>
      <point x="697" y="0" type="line"/>
      <point x="676" y="67"/>
      <point x="597" y="130"/>
      <point x="474" y="139" type="curve"/>
      <point x="393" y="236" type="line"/>
    </contour>
  </outline>
</glyph>
<glyph name="bDMa" format="1">
  <advance width="531"/>
  <outline>
    <contour>
      <point x="-30" y="456" type="line"/>
      <point x="-30" y="521" type="line"/>
      <point x="561" y="521" type="line"/>
      <point x="561" y="456" type="line"/>
    </contour>
    <contour>
      <point x="330" y="288"/>
      <point x="313" y="248"/>
      <point x="313" y="186" type="curve" smooth="yes"/>
      <point x="313" y="153"/>
      <point x="318" y="112"/>
      <point x="331" y="71" type="curve"/>
      <point x="263" y="82" type="line"/>
      <point x="250" y="136"/>
      <point x="241" y="189"/>
      <point x="241" y="232" type="curve" smooth="yes"/>
      <point x="241" y="283"/>
      <point x="254" y="336"/>
      <point x="282" y="375" type="curve"/>
      <point x="302" y="317" type="line"/>
      <point x="242" y="283"/>
      <point x="180" y="224"/>
      <point x="131" y="138" type="curve"/>
      <point x="44" y="209" type="line"/>
      <point x="44" y="467" type="line"/>
      <point x="124" y="467" type="line"/>
      <point x="124" y="200" type="line"/>
      <point x="79" y="237" type="line"/>
      <point x="125" y="317"/>
      <point x="198" y="388"/>
      <point x="279" y="425" type="curve"/>
      <point x="375" y="347" type="line"/>
    </contour>
    <contour>
      <point x="173" y="116"/>
      <point x="219" y="151"/>
      <point x="270" y="151" type="curve" smooth="yes"/>
      <point x="343" y="151"/>
      <point x="432" y="77"/>
      <point x="458" y="-22" type="curve"/>
      <point x="401" y="25" type="line"/>
      <point x="401" y="467" type="line"/>
      <point x="481" y="467" type="line"/>
      <point x="481" y="-40" type="line"/>
      <point x="421" y="-40" type="line"/>
      <point x="409" y="11"/>
      <point x="382" y="53"/>
      <point x="332" y="53" type="curve" smooth="yes"/>
      <point x="321" y="53"/>
      <point x="308" y="51"/>
      <point x="296" y="45" type="curve"/>
      <point x="302" y="126" type="line"/>
      <point x="327" y="107"/>
      <point x="334" y="82"/>
      <point x="334" y="62" type="curve" smooth="yes"/>
      <point x="334" y="19"/>
      <point x="300" y="-16"/>
      <point x="255" y="-16" type="curve" smooth="yes"/>
      <point x="210" y="-16"/>
      <point x="173" y="18"/>
      <point x="173" y="64" type="curve" smooth="yes"/>
    </contour>
  </outline>
</glyph>
<glyph name="bDNa" format="1">
  <advance width="442"/>
  <outline>
    <contour>
      <point x="-30" y="456" type="line"/>
      <point x="-30" y="521" type="line"/>
      <point x="472" y="521" type="line"/>
      <point x="472" y="456" type="line"/>
    </contour>
    <contour>
      <point x="280" y="8"/>
      <point x="240" y="33"/>
      <point x="196" y="33" type="curve" smooth="yes"/>
      <point x="179" y="33"/>
      <point x="165" y="29"/>
      <point x="155" y="21" type="curve"/>
      <point x="156" y="85" type="line"/>
      <point x="187" y="71"/>
      <point x="203" y="43"/>
      <point x="203" y="14" type="curve" smooth="yes"/>
      <point x="203" y="-26"/>
      <point x="170" y="-57"/>
      <point x="128" y="-57" type="curve" smooth="yes"/>
      <point x="82" y="-57"/>
      <point x="45" y="-19"/>
      <point x="45" y="28" type="curve" smooth="yes"/>
      <point x="45" y="78"/>
      <point x="89" y="120"/>
      <point x="152" y="120" type="curve" smooth="yes"/>
      <point x="224" y="120"/>
      <point x="289" y="67"/>
      <point x="322" y="-8" type="curve"/>
      <point x="286" y="-1" type="line"/>
      <point x="273" y="61"/>
      <point x="266" y="118"/>
      <point x="266" y="174" type="curve" smooth="yes"/>
      <point x="266" y="258"/>
      <point x="282" y="340"/>
      <point x="317" y="385" type="curve"/>
      <point x="342" y="315" type="line"/>
      <point x="267" y="284"/>
      <point x="191" y="225"/>
      <point x="131" y="138" type="curve"/>
      <point x="44" y="219" type="line"/>
      <point x="44" y="467" type="line"/>
      <point x="124" y="467" type="line"/>
      <point x="124" y="200" type="line"/>
      <point x="79" y="247" type="line"/>
      <point x="131" y="327"/>
      <point x="220" y="396"/>
      <point x="320" y="427" type="curve"/>
      <point x="417" y="340" type="line"/>
      <point x="357" y="265"/>
      <point x="338" y="203"/>
      <point x="338" y="114" type="curve" smooth="yes"/>
      <point x="338" y="74"/>
      <point x="342" y="16"/>
      <point x="352" y="-44" type="curve"/>
      <point x="294" y="-53" type="line"/>
    </contour>
  </outline>
</glyph>
<glyph name="bDRa" format="1">
  <advance width="518"/>
  <outline>
    <contour>
      <point x="440" y="-25" type="line"/>
      <point x="426" y="39"/>
      <point x="420" y="101"/>
      <point x="420" y="145" type="curve" smooth="yes"/>
      <point x="420" y="221"/>
      <point x="438" y="275"/>
      <point x="493" y="340" type="curve"/>
      <point x="396" y="427" type="line"/>
      <point x="296" y="396"/>
      <point x="207" y="327"/>
      <point x="155" y="247" type="curve"/>
      <point x="200" y="200" type="line"/>
      <point x="200" y="467" type="line"/>
      <point x="120" y="467" type="line"/>
      <point x="120" y="219" type="line"/>
      <point x="207" y="138" type="line"/>
      <point x="267" y="225"/>
      <point x="343" y="284"/>
      <point x="418" y="315" type="curve"/>
      <point x="393" y="385" type="line"/>
      <point x="362" y="346"/>
      <point x="348" y="275"/>
      <point x="348" y="206" type="curve" smooth="yes"/>
      <point x="348" y="140"/>
      <point x="361" y="69"/>
      <point x="379" y="-4" type="curve"/>
      <point x="403" y="-11" type="line"/>
      <point x="378" y="69"/>
      <point x="320" y="111"/>
      <point x="251" y="111" type="curve" smooth="yes"/>
      <point x="225" y="111"/>
      <point x="177" y="105"/>
      <point x="150" y="105" type="curve" smooth="yes"/>
      <point x="97" y="105"/>
      <point x="69" y="129"/>
      <point x="69" y="176" type="curve" smooth="yes"/>
      <point x="69" y="198"/>
      <point x="75" y="222"/>
      <point x="83" y="240" type="curve"/>
      <point x="38" y="259" type="line"/>
      <point x="23" y="232"/>
      <point x="16" y="198"/>
      <point x="16" y="169" type="curve" smooth="yes"/>
      <point x="16" y="79"/>
      <point x="85" y="11"/>
      <point x="183" y="11" type="curve" smooth="yes"/>
      <point x="220" y="11"/>
      <point x="267" y="21"/>
      <point x="303" y="21" type="curve" smooth="yes"/>
      <point x="355" y="21"/>
      <point x="372" y="1"/>
      <point x="382" y="-34" type="curve"/>
    </contour>
    <contour>
      <point x="548" y="456" type="line"/>
      <point x="548" y="521" type="line"/>
      <point x="-30" y="521" type="line"/>
      <point x="-30" y="456" type="line"/>
    </contour>
  </outline>
</glyph>
<glyph name="bDRa_bSignUu" format="1">
  <advance width="614"/>
  <outline>
    <contour>
      <point x="361" y="69"/>
      <point x="348" y="140"/>
      <point x="348" y="206" type="curve" smooth="yes"/>
      <point x="348" y="275"/>
      <point x="362" y="346"/>
      <point x="393" y="385" type="curve"/>
      <point x="418" y="315" type="line"/>
      <point x="343" y="284"/>
      <point x="267" y="225"/>
      <point x="207" y="138" type="curve"/>
      <point x="120" y="219" type="line"/>
      <point x="120" y="467" type="line"/>
      <point x="200" y="467" type="line"/>
      <point x="200" y="200" type="line"/>
      <point x="155" y="247" type="line"/>
      <point x="207" y="327"/>
      <point x="296" y="396"/>
      <point x="396" y="427" type="curve"/>
      <point x="489" y="350" type="line"/>
      <point x="437" y="292"/>
      <point x="420" y="225"/>
      <point x="420" y="145" type="curve" smooth="yes"/>
      <point x="420" y="101"/>
      <point x="426" y="39"/>
      <point x="440" y="-25" type="curve"/>
      <point x="382" y="-34" type="line"/>
      <point x="372" y="1"/>
      <point x="355" y="21"/>
      <point x="303" y="21" type="curve" smooth="yes"/>
      <point x="267" y="21"/>
      <point x="220" y="11"/>
      <point x="183" y="11" type="curve" smooth="yes"/>
      <point x="85" y="11"/>
      <point x="16" y="79"/>
      <point x="16" y="169" type="curve" smooth="yes"/>
      <point x="16" y="198"/>
      <point x="23" y="232"/>
      <point x="38" y="259" type="curve"/>
      <point x="83" y="240" type="line"/>
      <point x="75" y="222"/>
      <point x="69" y="198"/>
      <point x="69" y="176" type="curve" smooth="yes"/>
      <point x="69" y="129"/>
      <point x="97" y="105"/>
      <point x="150" y="105" type="curve" smooth="yes"/>
      <point x="177" y="105"/>
      <point x="225" y="111"/>
      <point x="251" y="111" type="curve" smooth="yes"/>
      <point x="320" y="111"/>
      <point x="378" y="69"/>
      <point x="403" y="-11" type="curve"/>
      <point x="379" y="-4" type="line"/>
    </contour>
    <contour>
      <point x="-30" y="456" type="line"/>
      <point x="-30" y="521" type="line"/>
      <point x="644" y="521" type="line"/>
      <point x="644" y="456" type="line"/>
    </contour>
    <contour>
      <point x="393" y="203" type="line"/>
      <point x="434" y="268"/>
      <point x="468" y="292"/>
      <point x="491" y="292" type="curve" smooth="yes"/>
      <point x="531" y="292"/>
      <point x="584" y="225"/>
      <point x="584" y="175" type="curve" smooth="yes"/>
      <point x="584" y="72" type="line" smooth="yes"/>
      <point x="584" y="49"/>
      <point x="595" y="29"/>
      <point x="614" y="14" type="curve"/>
      <point x="586" y="-25" type="line"/>
      <point x="539" y="1"/>
      <point x="507" y="32"/>
      <point x="507" y="92" type="curve" smooth="yes"/>
      <point x="507" y="186" type="line" smooth="yes"/>
      <point x="507" y="197"/>
      <point x="504" y="200"/>
      <point x="498" y="200" type="curve" smooth="yes"/>
      <point x="482" y="200"/>
      <point x="450" y="177"/>
      <point x="418" y="129" type="curve"/>
    </contour>
  </outline>
</glyph>
<glyph name="bDa" format="1">
  <advance width="442"/>
  <outline>
    <contour>
      <point x="124" y="467" type="line"/>
      <point x="124" y="190" type="line"/>
      <point x="79" y="237" type="line"/>
      <point x="131" y="317"/>
      <point x="220" y="386"/>
      <point x="320" y="417" type="curve"/>
      <point x="417" y="330" type="line"/>
      <point x="354" y="265"/>
      <point x="334" y="211"/>
      <point x="334" y="134" type="curve" smooth="yes"/>
      <point x="334" y="99"/>
      <point x="338" y="48"/>
      <point x="347" y="-4" type="curve"/>
      <point x="289" y="-13" type="line"/>
      <point x="273" y="60"/>
      <point x="262" y="132"/>
      <point x="262" y="192" type="curve" smooth="yes"/>
      <point x="262" y="267"/>
      <point x="279" y="336"/>
      <point x="317" y="375" type="curve"/>
      <point x="342" y="305" type="line"/>
      <point x="267" y="272"/>
      <point x="191" y="210"/>
      <point x="131" y="118" type="curve"/>
      <point x="44" y="209" type="line"/>
      <point x="44" y="467" type="line"/>
    </contour>
    <contour>
      <point x="-30" y="456" type="line"/>
      <point x="-30" y="521" type="line"/>
      <point x="472" y="521" type="line"/>
      <point x="472" y="456" type="line"/>
    </contour>
  </outline>
</glyph>
<glyph name="bDdDda" format="1">
  <advance width="823"/>
  <outline>
    <contour>
      <point x="233" y="466" type="line"/>
      <point x="233" y="334" type="line" smooth="yes"/>
      <point x="233" y="324"/>
      <point x="236" y="315"/>
      <point x="245" y="315" type="curve" smooth="yes"/>
      <point x="265" y="315"/>
      <point x="303" y="353"/>
      <point x="340" y="417" type="curve"/>
      <point x="390" y="373"/>
      <point x="440" y="308"/>
      <point x="440" y="221" type="curve" smooth="yes"/>
      <point x="440" y="121"/>
      <point x="374" y="54"/>
      <point x="275" y="54" type="curve" smooth="yes"/>
      <point x="158" y="54"/>
      <point x="61" y="148"/>
      <point x="-10" y="404" type="curve"/>
      <point x="48" y="422" type="line"/>
      <point x="103" y="214"/>
      <point x="182" y="168"/>
      <point x="256" y="168" type="curve" smooth="yes"/>
      <point x="323" y="168"/>
      <point x="370" y="206"/>
      <point x="370" y="256" type="curve" smooth="yes"/>
      <point x="370" y="284"/>
      <point x="355" y="317"/>
      <point x="320" y="337" type="curve"/>
      <point x="391" y="314" type="line"/>
      <point x="363" y="259"/>
      <point x="314" y="220"/>
      <point x="271" y="220" type="curve" smooth="yes"/>
      <point x="211" y="220"/>
      <point x="153" y="297"/>
      <point x="153" y="369" type="curve" smooth="yes"/>
      <point x="153" y="466" type="line"/>
    </contour>
    <contour>
      <point x="-30" y="456" type="line"/>
      <point x="-30" y="521" type="line"/>
      <point x="403" y="521" type="line"/>
      <point x="403" y="456" type="line"/>
    </contour>
    <contour>
      <point x="280" y="456" type="line"/>
      <point x="280" y="521" type="line"/>
      <point x="853" y="521" type="line"/>
      <point x="853" y="456" type="line"/>
    </contour>
    <contour>
      <point x="433" y="267" type="line"/>
      <point x="480" y="169"/>
      <point x="537" y="134"/>
      <point x="604" y="134" type="curve" smooth="yes"/>
      <point x="676" y="134"/>
      <point x="727" y="175"/>
      <point x="727" y="232" type="curve" smooth="yes"/>
      <point x="727" y="267"/>
      <point x="708" y="305"/>
      <point x="670" y="327" type="curve"/>
      <point x="742" y="297" type="line"/>
      <point x="710" y="236"/>
      <point x="649" y="194"/>
      <point x="603" y="194" type="curve" smooth="yes"/>
      <point x="540" y="194"/>
      <point x="483" y="274"/>
      <point x="483" y="349" type="curve" smooth="yes"/>
      <point x="483" y="466" type="line"/>
      <point x="563" y="466" type="line"/>
      <point x="563" y="314" type="line" smooth="yes"/>
      <point x="563" y="303"/>
      <point x="566" y="295"/>
      <point x="576" y="295" type="curve" smooth="yes"/>
      <point x="599" y="295"/>
      <point x="645" y="337"/>
      <point x="690" y="407" type="curve"/>
      <point x="744" y="360"/>
      <point x="797" y="288"/>
      <point x="797" y="196" type="curve" smooth="yes"/>
      <point x="797" y="91"/>
      <point x="729" y="18"/>
      <point x="623" y="18" type="curve" smooth="yes"/>
      <point x="537" y="18"/>
      <point x="459" y="67"/>
      <point x="392" y="212" type="curve"/>
    </contour>
  </outline>
</glyph>
<glyph name="bDdGa" format="1">
  <advance width="887"/>
  <outline>
    <contour>
      <point x="243" y="466" type="line"/>
      <point x="243" y="324" type="line" smooth="yes"/>
      <point x="243" y="313"/>
      <point x="246" y="305"/>
      <point x="256" y="305" type="curve" smooth="yes"/>
      <point x="277" y="305"/>
      <point x="319" y="343"/>
      <point x="360" y="407" type="curve"/>
      <point x="413" y="363"/>
      <point x="467" y="296"/>
      <point x="467" y="204" type="curve" smooth="yes"/>
      <point x="467" y="100"/>
      <point x="397" y="27"/>
      <point x="292" y="27" type="curve" smooth="yes"/>
      <point x="163" y="27"/>
      <point x="62" y="137"/>
      <point x="-10" y="404" type="curve"/>
      <point x="48" y="422" type="line"/>
      <point x="107" y="198"/>
      <point x="189" y="143"/>
      <point x="273" y="143" type="curve" smooth="yes"/>
      <point x="346" y="143"/>
      <point x="397" y="185"/>
      <point x="397" y="240" type="curve" smooth="yes"/>
      <point x="397" y="274"/>
      <point x="378" y="307"/>
      <point x="340" y="327" type="curve"/>
      <point x="411" y="304" type="line"/>
      <point x="381" y="245"/>
      <point x="326" y="204"/>
      <point x="283" y="204" type="curve" smooth="yes"/>
      <point x="220" y="204"/>
      <point x="163" y="284"/>
      <point x="163" y="359" type="curve" smooth="yes"/>
      <point x="163" y="466" type="line"/>
    </contour>
    <contour>
      <point x="-30" y="456" type="line"/>
      <point x="-30" y="521" type="line"/>
      <point x="413" y="521" type="line"/>
      <point x="413" y="456" type="line"/>
    </contour>
    <contour>
      <point x="917" y="521" type="line"/>
      <point x="917" y="456" type="line"/>
      <point x="837" y="456" type="line"/>
      <point x="837" y="0" type="line"/>
      <point x="757" y="0" type="line"/>
      <point x="757" y="244" type="line" smooth="yes"/>
      <point x="757" y="351"/>
      <point x="698" y="437"/>
      <point x="614" y="437" type="curve" smooth="yes"/>
      <point x="553" y="437"/>
      <point x="502" y="391"/>
      <point x="502" y="331" type="curve" smooth="yes"/>
      <point x="502" y="319"/>
      <point x="504" y="300"/>
      <point x="510" y="287" type="curve"/>
      <point x="466" y="334" type="line"/>
      <point x="511" y="364"/>
      <point x="541" y="377"/>
      <point x="576" y="377" type="curve" smooth="yes"/>
      <point x="658" y="377"/>
      <point x="706" y="304"/>
      <point x="706" y="236" type="curve" smooth="yes"/>
      <point x="706" y="178"/>
      <point x="672" y="116"/>
      <point x="601" y="61" type="curve"/>
      <point x="503" y="141" type="line"/>
      <point x="585" y="194"/>
      <point x="628" y="246"/>
      <point x="628" y="275" type="curve" smooth="yes"/>
      <point x="628" y="286"/>
      <point x="622" y="293"/>
      <point x="610" y="293" type="curve" smooth="yes"/>
      <point x="579" y="293"/>
      <point x="534" y="248"/>
      <point x="488" y="248" type="curve" smooth="yes"/>
      <point x="446" y="248"/>
      <point x="403" y="295"/>
      <point x="403" y="357" type="curve" smooth="yes"/>
      <point x="403" y="453"/>
      <point x="479" y="530"/>
      <point x="580" y="530" type="curve" smooth="yes"/>
      <point x="695" y="530"/>
      <point x="772" y="431"/>
      <point x="806" y="296" type="curve"/>
      <point x="757" y="294" type="line"/>
      <point x="757" y="521" type="line"/>
    </contour>
  </outline>
</glyph>
<glyph name="bDdha" format="1">
  <advance width="422"/>
  <outline>
    <contour>
      <point x="-30" y="456" type="line"/>
      <point x="-30" y="521" type="line"/>
      <point x="452" y="521" type="line"/>
      <point x="452" y="456" type="line"/>
    </contour>
    <contour>
      <point x="122" y="467" type="line"/>
      <point x="122" y="130" type="line" smooth="yes"/>
      <point x="122" y="103"/>
      <point x="127" y="95"/>
      <point x="140" y="95" type="curve" smooth="yes"/>
      <point x="192" y="95"/>
      <point x="281" y="219"/>
      <point x="281" y="294" type="curve"/>
      <point x="325" y="240" type="line"/>
      <point x="313" y="229"/>
      <point x="298" y="224"/>
      <point x="279" y="224" type="curve" smooth="yes"/>
      <point x="230" y="224"/>
      <point x="193" y="260"/>
      <point x="193" y="305" type="curve" smooth="yes"/>
      <point x="193" y="350"/>
      <point x="229" y="389"/>
      <point x="281" y="389" type="curve" smooth="yes"/>
      <point x="343" y="389"/>
      <point x="387" y="333"/>
      <point x="387" y="267" type="curve" smooth="yes"/>
      <point x="387" y="155"/>
      <point x="262" y="-1"/>
      <point x="172" y="-1" type="curve" smooth="yes"/>
      <point x="111" y="-1"/>
      <point x="42" y="69"/>
      <point x="42" y="167" type="curve" smooth="yes"/>
      <point x="42" y="467" type="line"/>
    </contour>
  </outline>
</glyph>
<glyph name="bDhBa" format="1">
  <advance width="764"/>
  <outline>
    <contour>
      <point x="379" y="0" type="line"/>
      <point x="379" y="456" type="line"/>
      <point x="459" y="456" type="line"/>
      <point x="459" y="521" type="line"/>
      <point x="299" y="521" type="line"/>
      <point x="299" y="62" type="line"/>
      <point x="349" y="38" type="line"/>
      <point x="293" y="164"/>
      <point x="185" y="230"/>
      <point x="68" y="263" type="curve"/>
      <point x="94" y="195" type="line"/>
      <point x="175" y="250"/>
      <point x="258" y="292"/>
      <point x="347" y="330" type="curve"/>
      <point x="317" y="439" type="line"/>
      <point x="209" y="391"/>
      <point x="110" y="342"/>
      <point x="15" y="280" type="curve"/>
      <point x="99" y="142" type="line"/>
      <point x="230" y="128"/>
      <point x="304" y="65"/>
      <point x="319" y="0" type="curve"/>
    </contour>
    <contour>
      <point x="212" y="326"/>
      <point x="228" y="330"/>
      <point x="246" y="339" type="curve"/>
      <point x="229" y="398" type="line"/>
      <point x="203" y="386"/>
      <point x="194" y="383"/>
      <point x="179" y="383" type="curve" smooth="yes"/>
      <point x="139" y="383"/>
      <point x="126" y="406"/>
      <point x="126" y="423" type="curve" smooth="yes"/>
      <point x="126" y="444"/>
      <point x="145" y="464"/>
      <point x="180" y="464" type="curve" smooth="yes"/>
      <point x="191" y="464"/>
      <point x="206" y="462"/>
      <point x="220" y="457" type="curve"/>
      <point x="153" y="501" type="line"/>
      <point x="134" y="493"/>
      <point x="127" y="475"/>
      <point x="127" y="461" type="curve" smooth="yes"/>
      <point x="127" y="434"/>
      <point x="152" y="415"/>
      <point x="180" y="415" type="curve" smooth="yes"/>
      <point x="210" y="415"/>
      <point x="237" y="436"/>
      <point x="237" y="470" type="curve" smooth="yes"/>
      <point x="237" y="507"/>
      <point x="206" y="541"/>
      <point x="153" y="541" type="curve" smooth="yes"/>
      <point x="98" y="541"/>
      <point x="47" y="503"/>
      <point x="47" y="444" type="curve" smooth="yes"/>
      <point x="47" y="377"/>
      <point x="115" y="326"/>
      <point x="191" y="326" type="curve" smooth="yes"/>
    </contour>
    <contour>
      <point x="714" y="0" type="line"/>
      <point x="714" y="466" type="line"/>
      <point x="634" y="466" type="line"/>
      <point x="634" y="72" type="line"/>
      <point x="683" y="39" type="line"/>
      <point x="639" y="157"/>
      <point x="539" y="251"/>
      <point x="421" y="283" type="curve"/>
      <point x="434" y="213" type="line"/>
      <point x="506" y="269"/>
      <point x="603" y="316"/>
      <point x="698" y="338" type="curve"/>
      <point x="662" y="444" type="line"/>
      <point x="566" y="424"/>
      <point x="432" y="364"/>
      <point x="335" y="293" type="curve"/>
      <point x="427" y="164" type="line"/>
      <point x="538" y="153"/>
      <point x="620" y="106"/>
      <point x="654" y="0" type="curve"/>
    </contour>
    <contour>
      <point x="794" y="456" type="line"/>
      <point x="794" y="521" type="line"/>
      <point x="410" y="521" type="line"/>
      <point x="410" y="456" type="line"/>
    </contour>
  </outline>
</glyph>
<glyph name="bDhMa" format="1">
  <advance width="517"/>
  <outline>
    <contour>
      <point x="311" y="125" type="line"/>
      <point x="311" y="456" type="line"/>
      <point x="547" y="456" type="line"/>
      <point x="547" y="521" type="line"/>
      <point x="231" y="521" type="line"/>
      <point x="231" y="137" type="line"/>
      <point x="284" y="163" type="line"/>
      <point x="229" y="270"/>
      <point x="146" y="309"/>
      <point x="46" y="331" type="curve"/>
      <point x="71" y="270" type="line"/>
      <point x="131" y="307"/>
      <point x="194" y="335"/>
      <point x="259" y="357" type="curve"/>
      <point x="246" y="445" type="line"/>
      <point x="162" y="415"/>
      <point x="79" y="381"/>
      <point x="4" y="337" type="curve"/>
      <point x="62" y="242" type="line"/>
      <point x="163" y="236"/>
      <point x="244" y="189"/>
      <point x="255" y="125" type="curve"/>
    </contour>
    <contour>
      <point x="467" y="0" type="line"/>
      <point x="467" y="467" type="line"/>
      <point x="387" y="467" type="line"/>
      <point x="387" y="65" type="line"/>
      <point x="445" y="12" type="line"/>
      <point x="419" y="126"/>
      <point x="330" y="209"/>
      <point x="247" y="209" type="curve" smooth="yes"/>
      <point x="192" y="209"/>
      <point x="152" y="173"/>
      <point x="152" y="124" type="curve" smooth="yes"/>
      <point x="152" y="76"/>
      <point x="189" y="40"/>
      <point x="237" y="40" type="curve" smooth="yes"/>
      <point x="282" y="40"/>
      <point x="316" y="72"/>
      <point x="316" y="114" type="curve" smooth="yes"/>
      <point x="316" y="130"/>
      <point x="311" y="149"/>
      <point x="294" y="163" type="curve"/>
      <point x="272" y="96" type="line"/>
      <point x="283" y="104"/>
      <point x="294" y="107"/>
      <point x="308" y="107" type="curve" smooth="yes"/>
      <point x="356" y="107"/>
      <point x="395" y="66"/>
      <point x="407" y="0" type="curve"/>
    </contour>
    <contour>
      <point x="178" y="359"/>
      <point x="187" y="360"/>
      <point x="197" y="362" type="curve"/>
      <point x="179" y="420" type="line"/>
      <point x="167" y="415"/>
      <point x="152" y="410"/>
      <point x="138" y="410" type="curve" smooth="yes"/>
      <point x="116" y="410"/>
      <point x="102" y="423"/>
      <point x="102" y="440" type="curve" smooth="yes"/>
      <point x="102" y="459"/>
      <point x="119" y="474"/>
      <point x="143" y="474" type="curve" smooth="yes"/>
      <point x="149" y="474"/>
      <point x="159" y="473"/>
      <point x="168" y="470" type="curve"/>
      <point x="131" y="519" type="line"/>
      <point x="112" y="511"/>
      <point x="105" y="493"/>
      <point x="105" y="478" type="curve" smooth="yes"/>
      <point x="105" y="451"/>
      <point x="128" y="433"/>
      <point x="152" y="433" type="curve" smooth="yes"/>
      <point x="177" y="433"/>
      <point x="198" y="452"/>
      <point x="198" y="480" type="curve" smooth="yes"/>
      <point x="198" y="511"/>
      <point x="172" y="539"/>
      <point x="129" y="539" type="curve" smooth="yes"/>
      <point x="81" y="539"/>
      <point x="43" y="505"/>
      <point x="43" y="458" type="curve" smooth="yes"/>
      <point x="43" y="399"/>
      <point x="105" y="359"/>
      <point x="168" y="359" type="curve" smooth="yes"/>
    </contour>
  </outline>
</glyph>
<glyph name="bDhNa" format="1">
  <advance width="429"/>
  <outline>
    <contour>
      <point x="379" y="39" type="line"/>
      <point x="379" y="456" type="line"/>
      <point x="459" y="456" type="line"/>
      <point x="459" y="521" type="line"/>
      <point x="299" y="521" type="line"/>
      <point x="299" y="111" type="line"/>
      <point x="349" y="77" type="line"/>
      <point x="293" y="208"/>
      <point x="185" y="261"/>
      <point x="68" y="292" type="curve"/>
      <point x="94" y="214" type="line"/>
      <point x="175" y="261"/>
      <point x="258" y="297"/>
      <point x="347" y="330" type="curve"/>
      <point x="317" y="439" type="line"/>
      <point x="211" y="396"/>
      <point x="113" y="352"/>
      <point x="20" y="296" type="curve"/>
      <point x="99" y="171" type="line"/>
      <point x="230" y="158"/>
      <point x="309" y="121"/>
      <point x="309" y="39" type="curve"/>
    </contour>
    <contour>
      <point x="379" y="-50" type="line"/>
      <point x="379" y="52" type="line"/>
      <point x="314" y="52" type="line"/>
      <point x="314" y="-7" type="line"/>
      <point x="339" y="-5" type="line"/>
      <point x="312" y="79"/>
      <point x="240" y="126"/>
      <point x="175" y="126" type="curve" smooth="yes"/>
      <point x="117" y="126"/>
      <point x="76" y="88"/>
      <point x="76" y="37" type="curve" smooth="yes"/>
      <point x="76" y="-11"/>
      <point x="112" y="-46"/>
      <point x="155" y="-46" type="curve" smooth="yes"/>
      <point x="195" y="-46"/>
      <point x="226" y="-17"/>
      <point x="226" y="23" type="curve" smooth="yes"/>
      <point x="226" y="43"/>
      <point x="218" y="65"/>
      <point x="193" y="80" type="curve"/>
      <point x="197" y="32" type="line"/>
      <point x="205" y="37"/>
      <point x="213" y="40"/>
      <point x="225" y="40" type="curve" smooth="yes"/>
      <point x="266" y="40"/>
      <point x="313" y="10"/>
      <point x="319" y="-50" type="curve"/>
    </contour>
    <contour>
      <point x="206" y="330"/>
      <point x="228" y="336"/>
      <point x="246" y="343" type="curve"/>
      <point x="229" y="402" type="line"/>
      <point x="204" y="391"/>
      <point x="185" y="384"/>
      <point x="175" y="384" type="curve" smooth="yes"/>
      <point x="139" y="384"/>
      <point x="126" y="406"/>
      <point x="126" y="423" type="curve" smooth="yes"/>
      <point x="126" y="444"/>
      <point x="145" y="464"/>
      <point x="180" y="464" type="curve" smooth="yes"/>
      <point x="191" y="464"/>
      <point x="206" y="462"/>
      <point x="220" y="457" type="curve"/>
      <point x="153" y="501" type="line"/>
      <point x="134" y="493"/>
      <point x="127" y="475"/>
      <point x="127" y="461" type="curve" smooth="yes"/>
      <point x="127" y="434"/>
      <point x="152" y="415"/>
      <point x="180" y="415" type="curve" smooth="yes"/>
      <point x="210" y="415"/>
      <point x="237" y="436"/>
      <point x="237" y="470" type="curve" smooth="yes"/>
      <point x="237" y="507"/>
      <point x="206" y="541"/>
      <point x="153" y="541" type="curve" smooth="yes"/>
      <point x="98" y="541"/>
      <point x="47" y="503"/>
      <point x="47" y="444" type="curve" smooth="yes"/>
      <point x="47" y="379"/>
      <point x="115" y="330"/>
      <point x="191" y="330" type="curve" smooth="yes"/>
    </contour>
  </outline>
</glyph>
<glyph name="bDhRa_bSignU" format="1">
  <advance width="670"/>
  <outline>
    <contour>
      <point x="297" y="343" type="line"/>
      <point x="279" y="336"/>
      <point x="257" y="330"/>
      <point x="242" y="330" type="curve" smooth="yes"/>
      <point x="166" y="330"/>
      <point x="98" y="379"/>
      <point x="98" y="444" type="curve" smooth="yes"/>
      <point x="98" y="503"/>
      <point x="149" y="541"/>
      <point x="204" y="541" type="curve" smooth="yes"/>
      <point x="257" y="541"/>
      <point x="288" y="507"/>
      <point x="288" y="470" type="curve" smooth="yes"/>
      <point x="288" y="436"/>
      <point x="261" y="415"/>
      <point x="231" y="415" type="curve" smooth="yes"/>
      <point x="203" y="415"/>
      <point x="178" y="434"/>
      <point x="178" y="461" type="curve" smooth="yes"/>
      <point x="178" y="475"/>
      <point x="185" y="493"/>
      <point x="204" y="501" type="curve"/>
      <point x="271" y="457" type="line"/>
      <point x="257" y="462"/>
      <point x="242" y="464"/>
      <point x="231" y="464" type="curve" smooth="yes"/>
      <point x="196" y="464"/>
      <point x="177" y="444"/>
      <point x="177" y="423" type="curve" smooth="yes"/>
      <point x="177" y="406"/>
      <point x="190" y="384"/>
      <point x="226" y="384" type="curve" smooth="yes"/>
      <point x="236" y="384"/>
      <point x="255" y="391"/>
      <point x="280" y="402" type="curve"/>
    </contour>
    <contour>
      <point x="350" y="521" type="line"/>
      <point x="700" y="521" type="line"/>
      <point x="700" y="456" type="line"/>
      <point x="430" y="456" type="line"/>
      <point x="430" y="49" type="line"/>
      <point x="360" y="49" type="line"/>
      <point x="360" y="125"/>
      <point x="281" y="159"/>
      <point x="150" y="171" type="curve"/>
      <point x="71" y="296" type="line"/>
      <point x="164" y="352"/>
      <point x="262" y="396"/>
      <point x="368" y="439" type="curve"/>
      <point x="398" y="330" type="line"/>
      <point x="309" y="297"/>
      <point x="226" y="261"/>
      <point x="145" y="214" type="curve"/>
      <point x="119" y="292" type="line"/>
      <point x="236" y="262"/>
      <point x="344" y="212"/>
      <point x="400" y="87" type="curve"/>
      <point x="350" y="111" type="line"/>
    </contour>
    <contour>
      <point x="430" y="143" type="line"/>
      <point x="430" y="-40" type="line"/>
      <point x="370" y="-40" type="line"/>
      <point x="368" y="2"/>
      <point x="347" y="25"/>
      <point x="296" y="25" type="curve" smooth="yes"/>
      <point x="262" y="25"/>
      <point x="213" y="15"/>
      <point x="176" y="15" type="curve" smooth="yes"/>
      <point x="85" y="15"/>
      <point x="20" y="75"/>
      <point x="20" y="156" type="curve" smooth="yes"/>
      <point x="20" y="178"/>
      <point x="25" y="207"/>
      <point x="36" y="231" type="curve"/>
      <point x="82" y="214" type="line"/>
      <point x="77" y="199"/>
      <point x="73" y="178"/>
      <point x="73" y="163" type="curve" smooth="yes"/>
      <point x="73" y="126"/>
      <point x="96" y="109"/>
      <point x="143" y="109" type="curve" smooth="yes"/>
      <point x="171" y="109"/>
      <point x="224" y="115"/>
      <point x="249" y="115" type="curve" smooth="yes"/>
      <point x="321" y="115"/>
      <point x="370" y="65"/>
      <point x="391" y="-7" type="curve"/>
      <point x="360" y="41" type="line"/>
      <point x="360" y="143" type="line"/>
    </contour>
    <contour>
      <point x="424" y="320" type="line"/>
      <point x="447" y="259"/>
      <point x="490" y="238"/>
      <point x="525" y="238" type="curve" smooth="yes"/>
      <point x="563" y="238"/>
      <point x="590" y="262"/>
      <point x="590" y="292" type="curve" smooth="yes"/>
      <point x="590" y="311"/>
      <point x="580" y="326"/>
      <point x="562" y="326" type="curve" smooth="yes"/>
      <point x="557" y="326"/>
      <point x="549" y="325"/>
      <point x="542" y="323" type="curve"/>
      <point x="571" y="356" type="line"/>
      <point x="576" y="350"/>
      <point x="579" y="339"/>
      <point x="579" y="329" type="curve" smooth="yes"/>
      <point x="579" y="301"/>
      <point x="556" y="278"/>
      <point x="525" y="278" type="curve" smooth="yes"/>
      <point x="491" y="278"/>
      <point x="463" y="304"/>
      <point x="463" y="339" type="curve" smooth="yes"/>
      <point x="463" y="374"/>
      <point x="491" y="401"/>
      <point x="531" y="401" type="curve" smooth="yes"/>
      <point x="592" y="401"/>
      <point x="644" y="337"/>
      <point x="644" y="264" type="curve" smooth="yes"/>
      <point x="644" y="196"/>
      <point x="598" y="148"/>
      <point x="539" y="148" type="curve" smooth="yes"/>
      <point x="478" y="148"/>
      <point x="427" y="199"/>
      <point x="396" y="294" type="curve"/>
    </contour>
  </outline>
</glyph>
<glyph name="bDha" format="1">
  <advance width="429"/>
  <outline>
    <contour>
      <point x="379" y="0" type="line"/>
      <point x="379" y="456" type="line"/>
      <point x="459" y="456" type="line"/>
      <point x="459" y="521" type="line"/>
      <point x="299" y="521" type="line"/>
      <point x="299" y="62" type="line"/>
      <point x="349" y="38" type="line"/>
      <point x="293" y="164"/>
      <point x="185" y="230"/>
      <point x="68" y="263" type="curve"/>
      <point x="94" y="195" type="line"/>
      <point x="175" y="250"/>
      <point x="258" y="292"/>
      <point x="347" y="330" type="curve"/>
      <point x="317" y="439" type="line"/>
      <point x="209" y="391"/>
      <point x="110" y="342"/>
      <point x="15" y="280" type="curve"/>
      <point x="99" y="142" type="line"/>
      <point x="230" y="128"/>
      <point x="304" y="65"/>
      <point x="319" y="0" type="curve"/>
    </contour>
    <contour>
      <point x="212" y="326"/>
      <point x="228" y="330"/>
      <point x="246" y="339" type="curve"/>
      <point x="229" y="398" type="line"/>
      <point x="203" y="386"/>
      <point x="194" y="383"/>
      <point x="179" y="383" type="curve" smooth="yes"/>
      <point x="139" y="383"/>
      <point x="126" y="406"/>
      <point x="126" y="423" type="curve" smooth="yes"/>
      <point x="126" y="444"/>
      <point x="145" y="464"/>
      <point x="180" y="464" type="curve" smooth="yes"/>
      <point x="191" y="464"/>
      <point x="206" y="462"/>
      <point x="220" y="457" type="curve"/>
      <point x="153" y="501" type="line"/>
      <point x="134" y="493"/>
      <point x="127" y="475"/>
      <point x="127" y="461" type="curve" smooth="yes"/>
      <point x="127" y="434"/>
      <point x="152" y="415"/>
      <point x="180" y="415" type="curve" smooth="yes"/>
      <point x="210" y="415"/>
      <point x="237" y="436"/>
      <point x="237" y="470" type="curve" smooth="yes"/>
      <point x="237" y="507"/>
      <point x="206" y="541"/>
      <point x="153" y="541" type="curve" smooth="yes"/>
      <point x="98" y="541"/>
      <point x="47" y="503"/>
      <point x="47" y="444" type="curve" smooth="yes"/>
      <point x="47" y="377"/>
      <point x="115" y="326"/>
      <point x="191" y="326" type="curve" smooth="yes"/>
    </contour>
  </outline>
</glyph>
<glyph name="bE" format="1">
  <advance width="552"/>
  <outline>
    <contour>
      <point x="502" y="0" type="line"/>
      <point x="502" y="383" type="line" smooth="yes"/>
      <point x="502" y="451"/>
      <point x="437" y="530"/>
      <point x="367" y="530" type="curve" smooth="yes"/>
      <point x="281" y="530"/>
      <point x="164" y="413"/>
      <point x="164" y="311" type="curve" smooth="yes"/>
      <point x="164" y="244"/>
      <point x="214" y="193"/>
      <point x="275" y="193" type="curve" smooth="yes"/>
      <point x="325" y="193"/>
      <point x="359" y="226"/>
      <point x="359" y="267" type="curve" smooth="yes"/>
      <point x="359" y="306"/>
      <point x="327" y="338"/>
      <point x="291" y="338" type="curve" smooth="yes"/>
      <point x="261" y="338"/>
      <point x="235" y="317"/>
      <point x="225" y="291" type="curve"/>
      <point x="279" y="251" type="line"/>
      <point x="275" y="260"/>
      <point x="272" y="276"/>
      <point x="272" y="287" type="curve" smooth="yes"/>
      <point x="272" y="353"/>
      <point x="371" y="448"/>
      <point x="406" y="448" type="curve" smooth="yes"/>
      <point x="417" y="448"/>
      <point x="422" y="439"/>
      <point x="422" y="428" type="curve" smooth="yes"/>
      <point x="422" y="81" type="line"/>
      <point x="463" y="33" type="line"/>
      <point x="441" y="112"/>
      <point x="390" y="162"/>
      <point x="320" y="162" type="curve" smooth="yes"/>
      <point x="289" y="162"/>
      <point x="225" y="152"/>
      <point x="189" y="152" type="curve" smooth="yes"/>
      <point x="115" y="152"/>
      <point x="69" y="195"/>
      <point x="69" y="267" type="curve" smooth="yes"/>
      <point x="69" y="308"/>
      <point x="84" y="345"/>
      <point x="100" y="374" type="curve"/>
      <point x="55" y="398" type="line"/>
      <point x="25" y="356"/>
      <point x="10" y="310"/>
      <point x="10" y="261" type="curve" smooth="yes"/>
      <point x="10" y="143"/>
      <point x="99" y="51"/>
      <point x="221" y="51" type="curve" smooth="yes"/>
      <point x="268" y="51"/>
      <point x="325" y="65"/>
      <point x="366" y="65" type="curve" smooth="yes"/>
      <point x="418" y="65"/>
      <point x="440" y="42"/>
      <point x="442" y="0" type="curve"/>
    </contour>
  </outline>
</glyph>
<glyph name="bGBa" format="1">
  <advance width="461"/>
  <outline>
    <contour>
      <point x="491" y="521" type="line"/>
      <point x="491" y="456" type="line"/>
      <point x="411" y="456" type="line"/>
      <point x="411" y="69" type="line"/>
      <point x="331" y="69" type="line"/>
      <point x="331" y="284" type="line" smooth="yes"/>
      <point x="331" y="371"/>
      <point x="282" y="442"/>
      <point x="202" y="442" type="curve" smooth="yes"/>
      <point x="148" y="442"/>
      <point x="114" y="409"/>
      <point x="114" y="362" type="curve" smooth="yes"/>
      <point x="114" y="348"/>
      <point x="117" y="330"/>
      <point x="122" y="317" type="curve"/>
      <point x="68" y="359" type="line"/>
      <point x="111" y="396"/>
      <point x="144" y="407"/>
      <point x="169" y="407" type="curve" smooth="yes"/>
      <point x="227" y="407"/>
      <point x="269" y="348"/>
      <point x="269" y="304" type="curve" smooth="yes"/>
      <point x="269" y="256"/>
      <point x="219" y="203"/>
      <point x="152" y="163" type="curve"/>
      <point x="82" y="233" type="line"/>
      <point x="157" y="263"/>
      <point x="206" y="306"/>
      <point x="206" y="325" type="curve" smooth="yes"/>
      <point x="206" y="329"/>
      <point x="204" y="336"/>
      <point x="195" y="336" type="curve" smooth="yes"/>
      <point x="172" y="336"/>
      <point x="139" y="295"/>
      <point x="97" y="295" type="curve" smooth="yes"/>
      <point x="58" y="295"/>
      <point x="15" y="329"/>
      <point x="15" y="391" type="curve" smooth="yes"/>
      <point x="15" y="467"/>
      <point x="80" y="530"/>
      <point x="170" y="530" type="curve" smooth="yes"/>
      <point x="279" y="530"/>
      <point x="348" y="438"/>
      <point x="380" y="306" type="curve"/>
      <point x="331" y="304" type="line"/>
      <point x="331" y="521" type="line"/>
    </contour>
    <contour>
      <point x="330" y="175"/>
      <point x="276" y="149"/>
      <point x="192" y="94" type="curve"/>
      <point x="147" y="154" type="line"/>
      <point x="254" y="138"/>
      <point x="348" y="67"/>
      <point x="379" y="-17" type="curve"/>
      <point x="331" y="20" type="line"/>
      <point x="331" y="467" type="line"/>
      <point x="411" y="468" type="line"/>
      <point x="411" y="-40" type="line"/>
      <point x="351" y="-40" type="line"/>
      <point x="332" y="18"/>
      <point x="264" y="51"/>
      <point x="172" y="63" type="curve"/>
      <point x="107" y="155" type="line"/>
      <point x="212" y="227"/>
      <point x="310" y="271"/>
      <point x="371" y="286" type="curve"/>
      <point x="399" y="191" type="line"/>
    </contour>
  </outline>
</glyph>
<glyph name="bGDa" format="1">
  <advance width="717"/>
  <outline>
    <contour>
      <point x="241" y="171"/>
      <point x="279" y="219"/>
      <point x="279" y="275" type="curve" smooth="yes"/>
      <point x="279" y="336"/>
      <point x="234" y="404"/>
      <point x="161" y="404" type="curve" smooth="yes"/>
      <point x="127" y="404"/>
      <point x="101" y="389"/>
      <point x="63" y="349" type="curve"/>
      <point x="117" y="307" type="line"/>
      <point x="112" y="320"/>
      <point x="109" y="336"/>
      <point x="109" y="351" type="curve" smooth="yes"/>
      <point x="109" y="397"/>
      <point x="137" y="443"/>
      <point x="195" y="443" type="curve" smooth="yes"/>
      <point x="276" y="443"/>
      <point x="334" y="353"/>
      <point x="334" y="244" type="curve" smooth="yes"/>
      <point x="334" y="220" type="line"/>
      <point x="414" y="220" type="line"/>
      <point x="414" y="456" type="line"/>
      <point x="494" y="456" type="line"/>
      <point x="494" y="521" type="line"/>
      <point x="334" y="521" type="line"/>
      <point x="334" y="294" type="line"/>
      <point x="383" y="296" type="line"/>
      <point x="350" y="430"/>
      <point x="279" y="530"/>
      <point x="167" y="530" type="curve" smooth="yes"/>
      <point x="74" y="530"/>
      <point x="10" y="462"/>
      <point x="10" y="382" type="curve" smooth="yes"/>
      <point x="10" y="316"/>
      <point x="53" y="282"/>
      <point x="91" y="282" type="curve" smooth="yes"/>
      <point x="135" y="282"/>
      <point x="165" y="326"/>
      <point x="190" y="326" type="curve" smooth="yes"/>
      <point x="201" y="326"/>
      <point x="204" y="319"/>
      <point x="204" y="314" type="curve" smooth="yes"/>
      <point x="204" y="295"/>
      <point x="169" y="251"/>
      <point x="80" y="206" type="curve"/>
      <point x="168" y="126" type="line"/>
    </contour>
    <contour>
      <point x="622" y="-4" type="line"/>
      <point x="613" y="49"/>
      <point x="609" y="99"/>
      <point x="609" y="134" type="curve" smooth="yes"/>
      <point x="609" y="211"/>
      <point x="629" y="265"/>
      <point x="692" y="330" type="curve"/>
      <point x="595" y="417" type="line"/>
      <point x="501" y="386"/>
      <point x="418" y="317"/>
      <point x="369" y="237" type="curve"/>
      <point x="414" y="190" type="line"/>
      <point x="414" y="467" type="line"/>
      <point x="334" y="467" type="line"/>
      <point x="334" y="209" type="line"/>
      <point x="421" y="118" type="line"/>
      <point x="477" y="210"/>
      <point x="547" y="272"/>
      <point x="617" y="305" type="curve"/>
      <point x="602" y="365" type="line"/>
      <point x="557" y="328"/>
      <point x="537" y="264"/>
      <point x="537" y="189" type="curve" smooth="yes"/>
      <point x="537" y="133"/>
      <point x="548" y="62"/>
      <point x="564" y="-13" type="curve"/>
    </contour>
    <contour>
      <point x="747" y="456" type="line"/>
      <point x="747" y="521" type="line"/>
      <point x="334" y="521" type="line"/>
      <point x="334" y="456" type="line"/>
    </contour>
  </outline>
</glyph>
<glyph name="bGDhBa" format="1">
  <advance width="598"/>
  <outline>
    <contour>
      <point x="271" y="43" type="line"/>
      <point x="243" y="57"/>
      <point x="209" y="66"/>
      <point x="171" y="71" type="curve"/>
      <point x="106" y="161" type="line"/>
      <point x="212" y="231"/>
      <point x="310" y="281"/>
      <point x="371" y="306" type="curve"/>
      <point x="399" y="217" type="line"/>
      <point x="329" y="187"/>
      <point x="274" y="159"/>
      <point x="188" y="105" type="curve"/>
      <point x="146" y="160" type="line"/>
      <point x="206" y="150"/>
      <point x="262" y="122"/>
      <point x="305" y="81" type="curve"/>
    </contour>
    <contour>
      <point x="367" y="304" type="line"/>
      <point x="401" y="326"/>
      <point x="438" y="337"/>
      <point x="455" y="337" type="curve" smooth="yes"/>
      <point x="499" y="337"/>
      <point x="558" y="260"/>
      <point x="558" y="203" type="curve" smooth="yes"/>
      <point x="558" y="32" type="line" smooth="yes"/>
      <point x="558" y="9"/>
      <point x="569" y="-11"/>
      <point x="588" y="-26" type="curve"/>
      <point x="560" y="-65" type="line"/>
      <point x="513" y="-39"/>
      <point x="481" y="-8"/>
      <point x="481" y="52" type="curve" smooth="yes"/>
      <point x="481" y="233" type="line" smooth="yes"/>
      <point x="481" y="245"/>
      <point x="478" y="249"/>
      <point x="471" y="249" type="curve" smooth="yes"/>
      <point x="459" y="249"/>
      <point x="427" y="235"/>
      <point x="402" y="219" type="curve"/>
    </contour>
    <contour>
      <point x="331" y="284" type="line"/>
      <point x="331" y="371"/>
      <point x="282" y="442"/>
      <point x="202" y="442" type="curve" smooth="yes"/>
      <point x="148" y="442"/>
      <point x="114" y="409"/>
      <point x="114" y="362" type="curve" smooth="yes"/>
      <point x="114" y="348"/>
      <point x="117" y="330"/>
      <point x="122" y="317" type="curve"/>
      <point x="68" y="359" type="line"/>
      <point x="111" y="396"/>
      <point x="144" y="407"/>
      <point x="169" y="407" type="curve" smooth="yes"/>
      <point x="227" y="407"/>
      <point x="269" y="348"/>
      <point x="269" y="304" type="curve" smooth="yes"/>
      <point x="269" y="256"/>
      <point x="219" y="203"/>
      <point x="152" y="163" type="curve"/>
      <point x="82" y="233" type="line"/>
      <point x="157" y="263"/>
      <point x="206" y="306"/>
      <point x="206" y="325" type="curve" smooth="yes"/>
      <point x="206" y="329"/>
      <point x="204" y="336"/>
      <point x="195" y="336" type="curve" smooth="yes"/>
      <point x="172" y="336"/>
      <point x="139" y="295"/>
      <point x="97" y="295" type="curve" smooth="yes"/>
      <point x="58" y="295"/>
      <point x="15" y="329"/>
      <point x="15" y="391" type="curve" smooth="yes"/>
      <point x="15" y="467"/>
      <point x="80" y="530"/>
      <point x="170" y="530" type="curve" smooth="yes"/>
      <point x="279" y="530"/>
      <point x="348" y="438"/>
      <point x="380" y="306" type="curve"/>
      <point x="331" y="304" type="line"/>
      <point x="331" y="521" type="line"/>
      <point x="628" y="521" type="line"/>
      <point x="628" y="456" type="line"/>
      <point x="411" y="456" type="line"/>
      <point x="411" y="79" type="line"/>
      <point x="331" y="79" type="line"/>
    </contour>
    <contour>
      <point x="351" y="-121" type="line"/>
      <point x="337" y="-84"/>
      <point x="281" y="-61"/>
      <point x="227" y="-57" type="curve"/>
      <point x="168" y="30" type="line"/>
      <point x="243" y="79"/>
      <point x="287" y="103"/>
      <point x="356" y="136" type="curve"/>
      <point x="411" y="89" type="line"/>
      <point x="411" y="-121" type="line"/>
    </contour>
    <contour>
      <point x="341" y="104" type="line"/>
      <point x="392" y="61" type="line"/>
      <point x="350" y="45"/>
      <point x="303" y="21"/>
      <point x="250" y="-17" type="curve"/>
      <point x="225" y="16" type="line"/>
      <point x="302" y="-1"/>
      <point x="350" y="-40"/>
      <point x="371" y="-89" type="curve"/>
      <point x="341" y="-60" type="line"/>
    </contour>
  </outline>
</glyph>
<glyph name="bGDhRa" format="1">
  <advance width="598"/>
  <outline>
    <contour>
      <point x="628" y="521" type="line"/>
      <point x="628" y="456" type="line"/>
      <point x="411" y="456" type="line"/>
      <point x="411" y="79" type="line"/>
      <point x="331" y="79" type="line"/>
      <point x="331" y="284" type="line" smooth="yes"/>
      <point x="331" y="371"/>
      <point x="282" y="442"/>
      <point x="202" y="442" type="curve" smooth="yes"/>
      <point x="148" y="442"/>
      <point x="114" y="409"/>
      <point x="114" y="362" type="curve" smooth="yes"/>
      <point x="114" y="348"/>
      <point x="117" y="330"/>
      <point x="122" y="317" type="curve"/>
      <point x="68" y="359" type="line"/>
      <point x="111" y="396"/>
      <point x="144" y="407"/>
      <point x="169" y="407" type="curve" smooth="yes"/>
      <point x="227" y="407"/>
      <point x="269" y="348"/>
      <point x="269" y="304" type="curve" smooth="yes"/>
      <point x="269" y="256"/>
      <point x="219" y="203"/>
      <point x="152" y="163" type="curve"/>
      <point x="82" y="233" type="line"/>
      <point x="157" y="263"/>
      <point x="206" y="306"/>
      <point x="206" y="325" type="curve" smooth="yes"/>
      <point x="206" y="329"/>
      <point x="204" y="336"/>
      <point x="195" y="336" type="curve" smooth="yes"/>
      <point x="172" y="336"/>
      <point x="139" y="295"/>
      <point x="97" y="295" type="curve" smooth="yes"/>
      <point x="58" y="295"/>
      <point x="15" y="329"/>
      <point x="15" y="391" type="curve" smooth="yes"/>
      <point x="15" y="467"/>
      <point x="80" y="530"/>
      <point x="170" y="530" type="curve" smooth="yes"/>
      <point x="279" y="530"/>
      <point x="348" y="438"/>
      <point x="380" y="306" type="curve"/>
      <point x="331" y="304" type="line"/>
      <point x="331" y="521" type="line"/>
    </contour>
    <contour>
      <point x="333" y="186"/>
      <point x="282" y="157"/>
      <point x="201" y="102" type="curve"/>
      <point x="156" y="160" type="line"/>
      <point x="249" y="143"/>
      <point x="346" y="80"/>
      <point x="374" y="-17" type="curve"/>
      <point x="331" y="20" type="line"/>
      <point x="331" y="467" type="line"/>
      <point x="411" y="468" type="line"/>
      <point x="411" y="-30" type="line"/>
      <point x="341" y="-30" type="line"/>
      <point x="341" y="20"/>
      <point x="265" y="62"/>
      <point x="181" y="69" type="curve"/>
      <point x="116" y="161" type="line"/>
      <point x="218" y="231"/>
      <point x="312" y="281"/>
      <point x="371" y="306" type="curve"/>
      <point x="399" y="217" type="line"/>
    </contour>
    <contour>
      <point x="367" y="304" type="line"/>
      <point x="401" y="326"/>
      <point x="438" y="337"/>
      <point x="455" y="337" type="curve" smooth="yes"/>
      <point x="499" y="337"/>
      <point x="558" y="260"/>
      <point x="558" y="203" type="curve" smooth="yes"/>
      <point x="558" y="32" type="line" smooth="yes"/>
      <point x="558" y="9"/>
      <point x="569" y="-11"/>
      <point x="588" y="-26" type="curve"/>
      <point x="560" y="-65" type="line"/>
      <point x="513" y="-39"/>
      <point x="481" y="-8"/>
      <point x="481" y="52" type="curve" smooth="yes"/>
      <point x="481" y="233" type="line" smooth="yes"/>
      <point x="481" y="245"/>
      <point x="478" y="249"/>
      <point x="471" y="249" type="curve" smooth="yes"/>
      <point x="459" y="249"/>
      <point x="427" y="235"/>
      <point x="402" y="219" type="curve"/>
    </contour>
    <contour>
      <point x="411" y="65" type="line"/>
      <point x="411" y="-108" type="line"/>
      <point x="351" y="-108" type="line"/>
      <point x="348" y="-75"/>
      <point x="327" y="-56"/>
      <point x="277" y="-56" type="curve" smooth="yes"/>
      <point x="247" y="-56"/>
      <point x="205" y="-63"/>
      <point x="176" y="-63" type="curve" smooth="yes"/>
      <point x="92" y="-63"/>
      <point x="35" y="-6"/>
      <point x="35" y="67" type="curve" smooth="yes"/>
      <point x="35" y="90"/>
      <point x="41" y="117"/>
      <point x="55" y="141" type="curve"/>
      <point x="97" y="121" type="line"/>
      <point x="91" y="108"/>
      <point x="86" y="89"/>
      <point x="86" y="72" type="curve" smooth="yes"/>
      <point x="86" y="37"/>
      <point x="106" y="20"/>
      <point x="143" y="20" type="curve" smooth="yes"/>
      <point x="160" y="20"/>
      <point x="200" y="24"/>
      <point x="222" y="24" type="curve" smooth="yes"/>
      <point x="295" y="24"/>
      <point x="349" y="-20"/>
      <point x="372" y="-85" type="curve"/>
      <point x="341" y="-37" type="line"/>
      <point x="341" y="65" type="line"/>
    </contour>
  </outline>
</glyph>
<glyph name="bGGa" format="1">
  <advance width="448"/>
  <outline>
    <contour>
      <point x="478" y="521" type="line"/>
      <point x="478" y="456" type="line"/>
      <point x="398" y="456" type="line"/>
      <point x="398" y="69" type="line"/>
      <point x="318" y="69" type="line"/>
      <point x="318" y="274" type="line" smooth="yes"/>
      <point x="318" y="365"/>
      <point x="271" y="442"/>
      <point x="194" y="442" type="curve" smooth="yes"/>
      <point x="147" y="442"/>
      <point x="114" y="413"/>
      <point x="114" y="371" type="curve" smooth="yes"/>
      <point x="114" y="358"/>
      <point x="117" y="340"/>
      <point x="122" y="327" type="curve"/>
      <point x="68" y="369" type="line"/>
      <point x="109" y="404"/>
      <point x="139" y="415"/>
      <point x="166" y="415" type="curve" smooth="yes"/>
      <point x="225" y="415"/>
      <point x="265" y="358"/>
      <point x="265" y="312" type="curve" smooth="yes"/>
      <point x="265" y="264"/>
      <point x="220" y="219"/>
      <point x="147" y="183" type="curve"/>
      <point x="75" y="258" type="line"/>
      <point x="155" y="284"/>
      <point x="203" y="322"/>
      <point x="203" y="338" type="curve" smooth="yes"/>
      <point x="203" y="341"/>
      <point x="201" y="347"/>
      <point x="192" y="347" type="curve" smooth="yes"/>
      <point x="168" y="347"/>
      <point x="137" y="306"/>
      <point x="94" y="306" type="curve" smooth="yes"/>
      <point x="58" y="306"/>
      <point x="18" y="336"/>
      <point x="18" y="394" type="curve" smooth="yes"/>
      <point x="18" y="467"/>
      <point x="80" y="530"/>
      <point x="165" y="530" type="curve" smooth="yes"/>
      <point x="275" y="530"/>
      <point x="338" y="426"/>
      <point x="367" y="296" type="curve"/>
      <point x="318" y="294" type="line"/>
      <point x="318" y="521" type="line"/>
    </contour>
    <contour>
      <point x="328" y="87" type="line"/>
      <point x="398" y="88" type="line"/>
      <point x="398" y="-36" type="line"/>
      <point x="338" y="-36" type="line"/>
      <point x="334" y="62"/>
      <point x="288" y="145"/>
      <point x="217" y="145" type="curve" smooth="yes"/>
      <point x="175" y="145"/>
      <point x="147" y="117"/>
      <point x="147" y="86" type="curve" smooth="yes"/>
      <point x="147" y="75"/>
      <point x="150" y="62"/>
      <point x="157" y="49" type="curve"/>
      <point x="98" y="84" type="line"/>
      <point x="120" y="105"/>
      <point x="156" y="126"/>
      <point x="184" y="126" type="curve" smooth="yes"/>
      <point x="225" y="126"/>
      <point x="265" y="82"/>
      <point x="265" y="35" type="curve" smooth="yes"/>
      <point x="265" y="-8"/>
      <point x="231" y="-45"/>
      <point x="182" y="-72" type="curve"/>
      <point x="115" y="-9" type="line"/>
      <point x="176" y="18"/>
      <point x="206" y="46"/>
      <point x="206" y="61" type="curve" smooth="yes"/>
      <point x="206" y="66"/>
      <point x="203" y="69"/>
      <point x="197" y="69" type="curve" smooth="yes"/>
      <point x="178" y="69"/>
      <point x="154" y="35"/>
      <point x="120" y="35" type="curve" smooth="yes"/>
      <point x="88" y="35"/>
      <point x="53" y="66"/>
      <point x="53" y="111" type="curve" smooth="yes"/>
      <point x="53" y="169"/>
      <point x="112" y="225"/>
      <point x="189" y="225" type="curve" smooth="yes"/>
      <point x="284" y="225"/>
      <point x="349" y="140"/>
      <point x="378" y="6" type="curve"/>
    </contour>
  </outline>
</glyph>
<glyph name="bGRa_bSignU" format="1">
  <advance width="716"/>
  <outline>
    <contour>
      <point x="476" y="50" type="line"/>
      <point x="476" y="456" type="line"/>
      <point x="746" y="456" type="line"/>
      <point x="746" y="521" type="line"/>
      <point x="396" y="521" type="line"/>
      <point x="396" y="294" type="line"/>
      <point x="445" y="296" type="line"/>
      <point x="411" y="431"/>
      <point x="336" y="530"/>
      <point x="218" y="530" type="curve" smooth="yes"/>
      <point x="121" y="530"/>
      <point x="52" y="463"/>
      <point x="52" y="381" type="curve" smooth="yes"/>
      <point x="52" y="316"/>
      <point x="95" y="282"/>
      <point x="136" y="282" type="curve" smooth="yes"/>
      <point x="182" y="282"/>
      <point x="224" y="326"/>
      <point x="252" y="326" type="curve" smooth="yes"/>
      <point x="263" y="326"/>
      <point x="266" y="319"/>
      <point x="266" y="314" type="curve" smooth="yes"/>
      <point x="266" y="297"/>
      <point x="231" y="257"/>
      <point x="142" y="216" type="curve"/>
      <point x="230" y="136" type="line"/>
      <point x="303" y="178"/>
      <point x="341" y="222"/>
      <point x="341" y="277" type="curve" smooth="yes"/>
      <point x="341" y="336"/>
      <point x="297" y="404"/>
      <point x="220" y="404" type="curve" smooth="yes"/>
      <point x="184" y="404"/>
      <point x="151" y="389"/>
      <point x="105" y="359" type="curve"/>
      <point x="152" y="307" type="line"/>
      <point x="151" y="320"/>
      <point x="151" y="337"/>
      <point x="151" y="348" type="curve" smooth="yes"/>
      <point x="151" y="398"/>
      <point x="192" y="437"/>
      <point x="252" y="437" type="curve" smooth="yes"/>
      <point x="341" y="437"/>
      <point x="396" y="350"/>
      <point x="396" y="244" type="curve" smooth="yes"/>
      <point x="396" y="50" type="line"/>
    </contour>
    <contour>
      <point x="476" y="-40" type="line"/>
      <point x="476" y="143" type="line"/>
      <point x="406" y="143" type="line"/>
      <point x="406" y="41" type="line"/>
      <point x="437" y="-7" type="line"/>
      <point x="414" y="71"/>
      <point x="363" y="115"/>
      <point x="293" y="115" type="curve" smooth="yes"/>
      <point x="267" y="115"/>
      <point x="195" y="109"/>
      <point x="165" y="109" type="curve" smooth="yes"/>
      <point x="104" y="109"/>
      <point x="73" y="133"/>
      <point x="73" y="181" type="curve" smooth="yes"/>
      <point x="73" y="202"/>
      <point x="79" y="226"/>
      <point x="87" y="244" type="curve"/>
      <point x="42" y="263" type="line"/>
      <point x="27" y="236"/>
      <point x="20" y="202"/>
      <point x="20" y="174" type="curve" smooth="yes"/>
      <point x="20" y="83"/>
      <point x="92" y="15"/>
      <point x="197" y="15" type="curve" smooth="yes"/>
      <point x="238" y="15"/>
      <point x="303" y="25"/>
      <point x="339" y="25" type="curve" smooth="yes"/>
      <point x="396" y="25"/>
      <point x="414" y="0"/>
      <point x="416" y="-40" type="curve"/>
    </contour>
    <contour>
      <point x="644" y="148"/>
      <point x="690" y="196"/>
      <point x="690" y="264" type="curve" smooth="yes"/>
      <point x="690" y="337"/>
      <point x="638" y="401"/>
      <point x="577" y="401" type="curve" smooth="yes"/>
      <point x="537" y="401"/>
      <point x="509" y="374"/>
      <point x="509" y="339" type="curve" smooth="yes"/>
      <point x="509" y="304"/>
      <point x="537" y="278"/>
      <point x="571" y="278" type="curve" smooth="yes"/>
      <point x="602" y="278"/>
      <point x="625" y="301"/>
      <point x="625" y="329" type="curve" smooth="yes"/>
      <point x="625" y="339"/>
      <point x="622" y="350"/>
      <point x="617" y="356" type="curve"/>
      <point x="588" y="323" type="line"/>
      <point x="595" y="325"/>
      <point x="603" y="326"/>
      <point x="608" y="326" type="curve" smooth="yes"/>
      <point x="626" y="326"/>
      <point x="636" y="311"/>
      <point x="636" y="292" type="curve" smooth="yes"/>
      <point x="636" y="262"/>
      <point x="609" y="238"/>
      <point x="571" y="238" type="curve" smooth="yes"/>
      <point x="536" y="238"/>
      <point x="493" y="259"/>
      <point x="470" y="320" type="curve"/>
      <point x="442" y="294" type="line"/>
      <point x="473" y="199"/>
      <point x="524" y="148"/>
      <point x="585" y="148" type="curve" smooth="yes"/>
    </contour>
  </outline>
</glyph>
<glyph name="bGRa_bSignUu" format="1">
  <advance width="663"/>
  <outline>
    <contour>
      <point x="693" y="521" type="line"/>
      <point x="693" y="456" type="line"/>
      <point x="476" y="456" type="line"/>
      <point x="476" y="50" type="line"/>
      <point x="396" y="50" type="line"/>
      <point x="396" y="244" type="line" smooth="yes"/>
      <point x="396" y="350"/>
      <point x="341" y="437"/>
      <point x="252" y="437" type="curve" smooth="yes"/>
      <point x="192" y="437"/>
      <point x="151" y="398"/>
      <point x="151" y="348" type="curve" smooth="yes"/>
      <point x="151" y="337"/>
      <point x="151" y="320"/>
      <point x="152" y="307" type="curve"/>
      <point x="105" y="359" type="line"/>
      <point x="151" y="389"/>
      <point x="184" y="404"/>
      <point x="220" y="404" type="curve" smooth="yes"/>
      <point x="297" y="404"/>
      <point x="341" y="336"/>
      <point x="341" y="277" type="curve" smooth="yes"/>
      <point x="341" y="222"/>
      <point x="303" y="178"/>
      <point x="230" y="136" type="curve"/>
      <point x="142" y="216" type="line"/>
      <point x="231" y="257"/>
      <point x="266" y="297"/>
      <point x="266" y="314" type="curve" smooth="yes"/>
      <point x="266" y="319"/>
      <point x="263" y="326"/>
      <point x="252" y="326" type="curve" smooth="yes"/>
      <point x="224" y="326"/>
      <point x="182" y="282"/>
      <point x="136" y="282" type="curve" smooth="yes"/>
      <point x="95" y="282"/>
      <point x="52" y="316"/>
      <point x="52" y="381" type="curve" smooth="yes"/>
      <point x="52" y="463"/>
      <point x="121" y="530"/>
      <point x="218" y="530" type="curve" smooth="yes"/>
      <point x="336" y="530"/>
      <point x="411" y="431"/>
      <point x="445" y="296" type="curve"/>
      <point x="396" y="294" type="line"/>
      <point x="396" y="521" type="line"/>
    </contour>
    <contour>
      <point x="432" y="353" type="line"/>
      <point x="466" y="386"/>
      <point x="502" y="402"/>
      <point x="523" y="402" type="curve" smooth="yes"/>
      <point x="566" y="402"/>
      <point x="623" y="329"/>
      <point x="623" y="275" type="curve" smooth="yes"/>
      <point x="623" y="82" type="line" smooth="yes"/>
      <point x="623" y="59"/>
      <point x="634" y="39"/>
      <point x="653" y="24" type="curve"/>
      <point x="625" y="-15" type="line"/>
      <point x="578" y="11"/>
      <point x="546" y="42"/>
      <point x="546" y="102" type="curve" smooth="yes"/>
      <point x="546" y="299" type="line" smooth="yes"/>
      <point x="546" y="310"/>
      <point x="543" y="315"/>
      <point x="537" y="315" type="curve" smooth="yes"/>
      <point x="524" y="315"/>
      <point x="490" y="294"/>
      <point x="467" y="269" type="curve"/>
    </contour>
    <contour>
      <point x="476" y="143" type="line"/>
      <point x="476" y="-40" type="line"/>
      <point x="416" y="-40" type="line"/>
      <point x="414" y="0"/>
      <point x="396" y="25"/>
      <point x="339" y="25" type="curve" smooth="yes"/>
      <point x="303" y="25"/>
      <point x="238" y="15"/>
      <point x="197" y="15" type="curve" smooth="yes"/>
      <point x="92" y="15"/>
      <point x="20" y="83"/>
      <point x="20" y="174" type="curve" smooth="yes"/>
      <point x="20" y="202"/>
      <point x="27" y="236"/>
      <point x="42" y="263" type="curve"/>
      <point x="87" y="244" type="line"/>
      <point x="79" y="226"/>
      <point x="73" y="202"/>
      <point x="73" y="181" type="curve" smooth="yes"/>
      <point x="73" y="133"/>
      <point x="104" y="109"/>
      <point x="165" y="109" type="curve" smooth="yes"/>
      <point x="195" y="109"/>
      <point x="267" y="115"/>
      <point x="293" y="115" type="curve" smooth="yes"/>
      <point x="363" y="115"/>
      <point x="414" y="71"/>
      <point x="437" y="-7" type="curve"/>
      <point x="406" y="41" type="line"/>
      <point x="406" y="143" type="line"/>
    </contour>
  </outline>
</glyph>
<glyph name="bGa" format="1">
  <advance width="507"/>
  <outline>
    <contour>
      <point x="537" y="521" type="line"/>
      <point x="537" y="456" type="line"/>
      <point x="457" y="456" type="line"/>
      <point x="457" y="0" type="line"/>
      <point x="377" y="0" type="line"/>
      <point x="377" y="244" type="line" smooth="yes"/>
      <point x="377" y="351"/>
      <point x="314" y="437"/>
      <point x="229" y="437" type="curve" smooth="yes"/>
      <point x="165" y="437"/>
      <point x="115" y="389"/>
      <point x="115" y="329" type="curve" smooth="yes"/>
      <point x="115" y="317"/>
      <point x="117" y="300"/>
      <point x="123" y="287" type="curve"/>
      <point x="76" y="339" type="line"/>
      <point x="118" y="368"/>
      <point x="152" y="379"/>
      <point x="185" y="379" type="curve" smooth="yes"/>
      <point x="269" y="379"/>
      <point x="316" y="305"/>
      <point x="316" y="236" type="curve" smooth="yes"/>
      <point x="316" y="178"/>
      <point x="282" y="116"/>
      <point x="211" y="61" type="curve"/>
      <point x="113" y="141" type="line"/>
      <point x="195" y="194"/>
      <point x="238" y="246"/>
      <point x="238" y="275" type="curve" smooth="yes"/>
      <point x="238" y="286"/>
      <point x="232" y="293"/>
      <point x="220" y="293" type="curve" smooth="yes"/>
      <point x="189" y="293"/>
      <point x="144" y="248"/>
      <point x="98" y="248" type="curve" smooth="yes"/>
      <point x="54" y="248"/>
      <point x="10" y="289"/>
      <point x="10" y="360" type="curve" smooth="yes"/>
      <point x="10" y="455"/>
      <point x="90" y="530"/>
      <point x="193" y="530" type="curve" smooth="yes"/>
      <point x="314" y="530"/>
      <point x="392" y="428"/>
      <point x="426" y="296" type="curve"/>
      <point x="377" y="294" type="line"/>
      <point x="377" y="521" type="line"/>
    </contour>
  </outline>
</glyph>
<glyph name="bGhRa" format="1">
  <advance width="487"/>
  <outline>
    <contour>
      <point x="-30" y="456" type="line"/>
      <point x="-30" y="521" type="line"/>
      <point x="517" y="521" type="line"/>
      <point x="517" y="456" type="line"/>
    </contour>
    <contour>
      <point x="284" y="329" type="line"/>
      <point x="258" y="314"/>
      <point x="228" y="307"/>
      <point x="199" y="307" type="curve" smooth="yes"/>
      <point x="120" y="307"/>
      <point x="52" y="357"/>
      <point x="52" y="421" type="curve" smooth="yes"/>
      <point x="52" y="454"/>
      <point x="71" y="483"/>
      <point x="99" y="498" type="curve"/>
      <point x="246" y="456" type="line"/>
      <point x="189" y="456"/>
      <point x="151" y="424"/>
      <point x="151" y="394" type="curve" smooth="yes"/>
      <point x="151" y="374"/>
      <point x="168" y="363"/>
      <point x="188" y="363" type="curve" smooth="yes"/>
      <point x="204" y="363"/>
      <point x="218" y="370"/>
      <point x="231" y="380" type="curve"/>
    </contour>
    <contour>
      <point x="264" y="405" type="line"/>
      <point x="337" y="320" type="line"/>
      <point x="184" y="205" type="line"/>
      <point x="144" y="270" type="line"/>
      <point x="264" y="249"/>
      <point x="377" y="185"/>
      <point x="411" y="65" type="curve"/>
      <point x="357" y="109" type="line"/>
      <point x="357" y="467" type="line"/>
      <point x="437" y="467" type="line"/>
      <point x="437" y="43" type="line"/>
      <point x="372" y="43" type="line"/>
      <point x="372" y="107"/>
      <point x="282" y="166"/>
      <point x="161" y="174" type="curve"/>
      <point x="80" y="267" type="line"/>
    </contour>
    <contour>
      <point x="437" y="43" type="line"/>
      <point x="437" y="-40" type="line"/>
      <point x="377" y="-40" type="line"/>
      <point x="375" y="0"/>
      <point x="350" y="25"/>
      <point x="294" y="25" type="curve" smooth="yes"/>
      <point x="259" y="25"/>
      <point x="223" y="15"/>
      <point x="185" y="15" type="curve" smooth="yes"/>
      <point x="93" y="15"/>
      <point x="27" y="75"/>
      <point x="27" y="156" type="curve" smooth="yes"/>
      <point x="27" y="178"/>
      <point x="32" y="206"/>
      <point x="43" y="231" type="curve"/>
      <point x="89" y="214" type="line"/>
      <point x="84" y="199"/>
      <point x="80" y="178"/>
      <point x="80" y="163" type="curve" smooth="yes"/>
      <point x="80" y="126"/>
      <point x="106" y="109"/>
      <point x="153" y="109" type="curve" smooth="yes"/>
      <point x="181" y="109"/>
      <point x="222" y="115"/>
      <point x="248" y="115" type="curve" smooth="yes"/>
      <point x="319" y="115"/>
      <point x="374" y="69"/>
      <point x="402" y="-7" type="curve"/>
      <point x="372" y="41" type="line"/>
      <point x="372" y="43" type="line"/>
    </contour>
  </outline>
</glyph>
<glyph name="bHBa" format="1">
  <advance width="447"/>
  <outline>
    <contour>
      <point x="477" y="521" type="line"/>
      <point x="477" y="456" type="line"/>
      <point x="-30" y="456" type="line"/>
      <point x="-30" y="521" type="line"/>
    </contour>
    <contour>
      <point x="320" y="432"/>
      <point x="408" y="351"/>
      <point x="408" y="258" type="curve" smooth="yes"/>
      <point x="408" y="164"/>
      <point x="319" y="101"/>
      <point x="203" y="101" type="curve"/>
      <point x="163" y="166" type="line"/>
      <point x="247" y="137"/>
      <point x="317" y="104"/>
      <point x="455" y="11" type="curve"/>
      <point x="425" y="-35" type="line"/>
      <point x="286" y="43"/>
      <point x="214" y="65"/>
      <point x="85" y="85" type="curve"/>
      <point x="19" y="212" type="line"/>
      <point x="58" y="203"/>
      <point x="108" y="196"/>
      <point x="151" y="196" type="curve" smooth="yes"/>
      <point x="260" y="196"/>
      <point x="328" y="241"/>
      <point x="328" y="295" type="curve" smooth="yes"/>
      <point x="328" y="326"/>
      <point x="306" y="348"/>
      <point x="264" y="348" type="curve" smooth="yes"/>
      <point x="238" y="348"/>
      <point x="224" y="340"/>
      <point x="202" y="329" type="curve"/>
      <point x="221" y="390" type="line"/>
      <point x="234" y="373"/>
      <point x="237" y="357"/>
      <point x="237" y="343" type="curve" smooth="yes"/>
      <point x="237" y="286"/>
      <point x="188" y="239"/>
      <point x="129" y="239" type="curve" smooth="yes"/>
      <point x="78" y="239"/>
      <point x="41" y="275"/>
      <point x="41" y="321" type="curve" smooth="yes"/>
      <point x="41" y="382"/>
      <point x="106" y="432"/>
      <point x="200" y="432" type="curve" smooth="yes"/>
    </contour>
    <contour>
      <point x="304" y="-161" type="line"/>
      <point x="286" y="-122"/>
      <point x="233" y="-102"/>
      <point x="160" y="-94" type="curve"/>
      <point x="91" y="7" type="line"/>
      <point x="171" y="56"/>
      <point x="220" y="77"/>
      <point x="293" y="103" type="curve"/>
      <point x="364" y="59" type="line"/>
      <point x="364" y="-161" type="line"/>
    </contour>
    <contour>
      <point x="294" y="74" type="line"/>
      <point x="356" y="48" type="line"/>
      <point x="304" y="29"/>
      <point x="246" y="-1"/>
      <point x="173" y="-49" type="curve"/>
      <point x="148" y="-7" type="line"/>
      <point x="242" y="-30"/>
      <point x="299" y="-75"/>
      <point x="328" y="-135" type="curve"/>
      <point x="294" y="-100" type="line"/>
    </contour>
  </outline>
</glyph>
<glyph name="bHLa" format="1">
  <advance width="497"/>
  <outline>
    <contour>
      <point x="505" y="11" type="line"/>
      <point x="367" y="104"/>
      <point x="297" y="137"/>
      <point x="213" y="166" type="curve"/>
      <point x="253" y="101" type="line"/>
      <point x="369" y="101"/>
      <point x="458" y="164"/>
      <point x="458" y="258" type="curve" smooth="yes"/>
      <point x="458" y="351"/>
      <point x="370" y="432"/>
      <point x="250" y="432" type="curve" smooth="yes"/>
      <point x="156" y="432"/>
      <point x="91" y="382"/>
      <point x="91" y="321" type="curve" smooth="yes"/>
      <point x="91" y="275"/>
      <point x="128" y="239"/>
      <point x="179" y="239" type="curve" smooth="yes"/>
      <point x="238" y="239"/>
      <point x="287" y="286"/>
      <point x="287" y="343" type="curve" smooth="yes"/>
      <point x="287" y="357"/>
      <point x="284" y="373"/>
      <point x="271" y="390" type="curve"/>
      <point x="252" y="329" type="line"/>
      <point x="274" y="340"/>
      <point x="288" y="348"/>
      <point x="314" y="348" type="curve" smooth="yes"/>
      <point x="356" y="348"/>
      <point x="378" y="326"/>
      <point x="378" y="295" type="curve" smooth="yes"/>
      <point x="378" y="241"/>
      <point x="310" y="196"/>
      <point x="201" y="196" type="curve" smooth="yes"/>
      <point x="158" y="196"/>
      <point x="108" y="203"/>
      <point x="69" y="212" type="curve"/>
      <point x="135" y="85" type="line"/>
      <point x="264" y="65"/>
      <point x="336" y="43"/>
      <point x="475" y="-35" type="curve"/>
    </contour>
    <contour>
      <point x="178" y="-182"/>
      <point x="203" y="-157"/>
      <point x="203" y="-127" type="curve" smooth="yes"/>
      <point x="203" y="-100"/>
      <point x="183" y="-78"/>
      <point x="156" y="-78" type="curve" smooth="yes"/>
      <point x="129" y="-78"/>
      <point x="110" y="-98"/>
      <point x="110" y="-122" type="curve" smooth="yes"/>
      <point x="110" y="-145"/>
      <point x="127" y="-164"/>
      <point x="153" y="-165" type="curve"/>
      <point x="152" y="-123" type="line"/>
      <point x="142" y="-128"/>
      <point x="132" y="-130"/>
      <point x="126" y="-130" type="curve" smooth="yes"/>
      <point x="108" y="-130"/>
      <point x="97" y="-112"/>
      <point x="97" y="-93" type="curve" smooth="yes"/>
      <point x="97" y="-66"/>
      <point x="119" y="-43"/>
      <point x="155" y="-43" type="curve" smooth="yes"/>
      <point x="190" y="-43"/>
      <point x="217" y="-65"/>
      <point x="229" y="-101" type="curve"/>
      <point x="264" y="-101" type="line"/>
      <point x="264" y="-64"/>
      <point x="277" y="-46"/>
      <point x="298" y="-46" type="curve" smooth="yes"/>
      <point x="328" y="-46"/>
      <point x="349" y="-85"/>
      <point x="354" y="-150" type="curve"/>
      <point x="414" y="-150" type="line"/>
      <point x="414" y="52" type="line"/>
      <point x="344" y="52" type="line"/>
      <point x="344" y="-82" type="line"/>
      <point x="380" y="-123" type="line"/>
      <point x="366" y="-46"/>
      <point x="331" y="30"/>
      <point x="269" y="30" type="curve" smooth="yes"/>
      <point x="229" y="30"/>
      <point x="205" y="-2"/>
      <point x="205" y="-47" type="curve"/>
      <point x="240" y="-61" type="line"/>
      <point x="229" y="-1"/>
      <point x="182" y="41"/>
      <point x="124" y="41" type="curve" smooth="yes"/>
      <point x="63" y="41"/>
      <point x="19" y="-4"/>
      <point x="19" y="-62" type="curve" smooth="yes"/>
      <point x="19" y="-128"/>
      <point x="75" y="-182"/>
      <point x="136" y="-182" type="curve" smooth="yes"/>
    </contour>
    <contour>
      <point x="527" y="456" type="line"/>
      <point x="527" y="521" type="line"/>
      <point x="-30" y="521" type="line"/>
      <point x="-30" y="456" type="line"/>
    </contour>
  </outline>
</glyph>
<glyph name="bHMa" format="1">
  <advance width="628"/>
  <outline>
    <contour>
      <point x="441" y="464" type="line"/>
      <point x="441" y="0" type="line"/>
      <point x="381" y="0" type="line"/>
      <point x="363" y="64"/>
      <point x="321" y="127"/>
      <point x="228" y="141" type="curve"/>
      <point x="283" y="187" type="line"/>
      <point x="283" y="142"/>
      <point x="243" y="96"/>
      <point x="189" y="96" type="curve" smooth="yes"/>
      <point x="141" y="96"/>
      <point x="106" y="131"/>
      <point x="106" y="173" type="curve" smooth="yes"/>
      <point x="106" y="217"/>
      <point x="143" y="252"/>
      <point x="192" y="252" type="curve" smooth="yes"/>
      <point x="234" y="252"/>
      <point x="261" y="226"/>
      <point x="281" y="198" type="curve"/>
      <point x="195" y="212" type="line"/>
      <point x="205" y="229"/>
      <point x="209" y="247"/>
      <point x="209" y="263" type="curve" smooth="yes"/>
      <point x="209" y="306"/>
      <point x="179" y="340"/>
      <point x="145" y="340" type="curve" smooth="yes"/>
      <point x="136" y="340"/>
      <point x="126" y="338"/>
      <point x="114" y="334" type="curve"/>
      <point x="128" y="395" type="line"/>
      <point x="146" y="376"/>
      <point x="155" y="353"/>
      <point x="155" y="334" type="curve" smooth="yes"/>
      <point x="155" y="296"/>
      <point x="123" y="264"/>
      <point x="80" y="264" type="curve" smooth="yes"/>
      <point x="34" y="264"/>
      <point x="-3" y="301"/>
      <point x="-3" y="347" type="curve" smooth="yes"/>
      <point x="-3" y="395"/>
      <point x="37" y="433"/>
      <point x="93" y="433" type="curve" smooth="yes"/>
      <point x="199" y="433"/>
      <point x="285" y="297"/>
      <point x="285" y="209" type="curve" smooth="yes"/>
      <point x="285" y="195"/>
      <point x="283" y="182"/>
      <point x="280" y="172" type="curve"/>
      <point x="245" y="235" type="line"/>
      <point x="322" y="196"/>
      <point x="388" y="107"/>
      <point x="409" y="43" type="curve"/>
      <point x="361" y="81" type="line"/>
      <point x="361" y="464" type="line"/>
    </contour>
    <contour>
      <point x="-30" y="456" type="line"/>
      <point x="-30" y="521" type="line"/>
      <point x="658" y="521" type="line"/>
      <point x="658" y="456" type="line"/>
    </contour>
    <contour>
      <point x="529" y="400"/>
      <point x="588" y="323"/>
      <point x="588" y="265" type="curve" smooth="yes"/>
      <point x="588" y="112" type="line" smooth="yes"/>
      <point x="588" y="89"/>
      <point x="599" y="69"/>
      <point x="618" y="54" type="curve"/>
      <point x="590" y="15" type="line"/>
      <point x="543" y="41"/>
      <point x="511" y="72"/>
      <point x="511" y="132" type="curve" smooth="yes"/>
      <point x="511" y="289" type="line" smooth="yes"/>
      <point x="511" y="313"/>
      <point x="505" y="324"/>
      <point x="488" y="324" type="curve" smooth="yes"/>
      <point x="456" y="324"/>
      <point x="394" y="295"/>
      <point x="304" y="295" type="curve" smooth="yes"/>
      <point x="243" y="295"/>
      <point x="178" y="356"/>
      <point x="147" y="393" type="curve"/>
      <point x="170" y="409" type="line"/>
      <point x="196" y="390"/>
      <point x="231" y="373"/>
      <point x="270" y="373" type="curve" smooth="yes"/>
      <point x="361" y="373"/>
      <point x="397" y="400"/>
      <point x="458" y="400" type="curve" smooth="yes"/>
    </contour>
  </outline>
</glyph>
<glyph name="bHNa" format="1">
  <advance width="447"/>
  <outline>
    <contour>
      <point x="455" y="11" type="line"/>
      <point x="317" y="104"/>
      <point x="247" y="137"/>
      <point x="163" y="166" type="curve"/>
      <point x="203" y="101" type="line"/>
      <point x="319" y="101"/>
      <point x="408" y="164"/>
      <point x="408" y="258" type="curve" smooth="yes"/>
      <point x="408" y="351"/>
      <point x="320" y="432"/>
      <point x="200" y="432" type="curve" smooth="yes"/>
      <point x="106" y="432"/>
      <point x="41" y="382"/>
      <point x="41" y="321" type="curve" smooth="yes"/>
      <point x="41" y="275"/>
      <point x="78" y="239"/>
      <point x="129" y="239" type="curve" smooth="yes"/>
      <point x="188" y="239"/>
      <point x="237" y="286"/>
      <point x="237" y="343" type="curve" smooth="yes"/>
      <point x="237" y="357"/>
      <point x="234" y="373"/>
      <point x="221" y="390" type="curve"/>
      <point x="202" y="329" type="line"/>
      <point x="224" y="340"/>
      <point x="238" y="348"/>
      <point x="264" y="348" type="curve" smooth="yes"/>
      <point x="306" y="348"/>
      <point x="328" y="326"/>
      <point x="328" y="295" type="curve" smooth="yes"/>
      <point x="328" y="241"/>
      <point x="260" y="196"/>
      <point x="151" y="196" type="curve" smooth="yes"/>
      <point x="108" y="196"/>
      <point x="58" y="203"/>
      <point x="19" y="212" type="curve"/>
      <point x="85" y="85" type="line"/>
      <point x="214" y="65"/>
      <point x="286" y="43"/>
      <point x="425" y="-35" type="curve"/>
    </contour>
    <contour>
      <point x="477" y="456" type="line"/>
      <point x="477" y="521" type="line"/>
      <point x="-30" y="521" type="line"/>
      <point x="-30" y="456" type="line"/>
    </contour>
    <contour>
      <point x="294" y="-87" type="line"/>
      <point x="313" y="-82" type="line"/>
      <point x="283" y="-19"/>
      <point x="228" y="23"/>
      <point x="167" y="23" type="curve" smooth="yes"/>
      <point x="109" y="23"/>
      <point x="75" y="-16"/>
      <point x="75" y="-59" type="curve" smooth="yes"/>
      <point x="75" y="-103"/>
      <point x="110" y="-136"/>
      <point x="151" y="-136" type="curve" smooth="yes"/>
      <point x="191" y="-136"/>
      <point x="221" y="-106"/>
      <point x="221" y="-67" type="curve" smooth="yes"/>
      <point x="221" y="-48"/>
      <point x="214" y="-33"/>
      <point x="201" y="-21" type="curve"/>
      <point x="189" y="-67" type="line"/>
      <point x="197" y="-64"/>
      <point x="205" y="-63"/>
      <point x="212" y="-63" type="curve" smooth="yes"/>
      <point x="246" y="-63"/>
      <point x="296" y="-89"/>
      <point x="304" y="-158" type="curve"/>
      <point x="364" y="-158" type="line"/>
      <point x="364" y="49" type="line"/>
      <point x="294" y="49" type="line"/>
    </contour>
  </outline>
</glyph>
<glyph name="bHRa" format="1">
  <advance width="497"/>
  <outline>
    <contour>
      <point x="527" y="521" type="line"/>
      <point x="527" y="456" type="line"/>
      <point x="-30" y="456" type="line"/>
      <point x="-30" y="521" type="line"/>
    </contour>
    <contour>
      <point x="370" y="432"/>
      <point x="458" y="351"/>
      <point x="458" y="258" type="curve" smooth="yes"/>
      <point x="458" y="164"/>
      <point x="369" y="101"/>
      <point x="253" y="101" type="curve"/>
      <point x="213" y="166" type="line"/>
      <point x="297" y="137"/>
      <point x="367" y="104"/>
      <point x="505" y="11" type="curve"/>
      <point x="475" y="-35" type="line"/>
      <point x="341" y="43"/>
      <point x="271" y="65"/>
      <point x="147" y="85" type="curve"/>
      <point x="83" y="208" type="line"/>
      <point x="118" y="201"/>
      <point x="163" y="196"/>
      <point x="200" y="196" type="curve" smooth="yes"/>
      <point x="310" y="196"/>
      <point x="378" y="241"/>
      <point x="378" y="295" type="curve" smooth="yes"/>
      <point x="378" y="326"/>
      <point x="356" y="348"/>
      <point x="314" y="348" type="curve" smooth="yes"/>
      <point x="288" y="348"/>
      <point x="274" y="340"/>
      <point x="252" y="329" type="curve"/>
      <point x="271" y="390" type="line"/>
      <point x="284" y="373"/>
      <point x="287" y="357"/>
      <point x="287" y="343" type="curve" smooth="yes"/>
      <point x="287" y="286"/>
      <point x="238" y="239"/>
      <point x="179" y="239" type="curve" smooth="yes"/>
      <point x="128" y="239"/>
      <point x="91" y="275"/>
      <point x="91" y="321" type="curve" smooth="yes"/>
      <point x="91" y="382"/>
      <point x="156" y="432"/>
      <point x="250" y="432" type="curve" smooth="yes"/>
    </contour>
    <contour>
      <point x="414" y="67" type="line"/>
      <point x="414" y="-121" type="line"/>
      <point x="354" y="-121" type="line"/>
      <point x="348" y="-85"/>
      <point x="318" y="-73"/>
      <point x="291" y="-73" type="curve" smooth="yes"/>
      <point x="268" y="-73"/>
      <point x="210" y="-82"/>
      <point x="177" y="-82" type="curve" smooth="yes"/>
      <point x="89" y="-82"/>
      <point x="18" y="-16"/>
      <point x="18" y="68" type="curve" smooth="yes"/>
      <point x="18" y="97"/>
      <point x="26" y="129"/>
      <point x="37" y="151" type="curve"/>
      <point x="84" y="133" type="line"/>
      <point x="78" y="116"/>
      <point x="71" y="93"/>
      <point x="71" y="74" type="curve" smooth="yes"/>
      <point x="71" y="33"/>
      <point x="103" y="14"/>
      <point x="151" y="14" type="curve" smooth="yes"/>
      <point x="170" y="14"/>
      <point x="224" y="17"/>
      <point x="242" y="17" type="curve" smooth="yes"/>
      <point x="311" y="17"/>
      <point x="357" y="-30"/>
      <point x="374" y="-94" type="curve"/>
      <point x="344" y="-67" type="line"/>
      <point x="344" y="67" type="line"/>
    </contour>
  </outline>
</glyph>
<glyph name="bHa_bSignU" format="1">
  <advance width="466"/>
  <outline>
    <contour>
      <point x="480" y="-10" type="line"/>
      <point x="339" y="84"/>
      <point x="268" y="117"/>
      <point x="182" y="146" type="curve"/>
      <point x="222" y="81" type="line"/>
      <point x="338" y="81"/>
      <point x="427" y="150"/>
      <point x="427" y="246" type="curve" smooth="yes"/>
      <point x="427" y="314"/>
      <point x="382" y="358"/>
      <point x="319" y="438" type="curve"/>
      <point x="276" y="401"/>
      <point x="245" y="367"/>
      <point x="225" y="329" type="curve"/>
      <point x="281" y="284" type="line"/>
      <point x="260" y="375"/>
      <point x="209" y="428"/>
      <point x="145" y="428" type="curve" smooth="yes"/>
      <point x="86" y="428"/>
      <point x="39" y="382"/>
      <point x="39" y="319" type="curve" smooth="yes"/>
      <point x="39" y="250"/>
      <point x="97" y="203"/>
      <point x="151" y="203" type="curve" smooth="yes"/>
      <point x="191" y="203"/>
      <point x="216" y="228"/>
      <point x="216" y="258" type="curve" smooth="yes"/>
      <point x="216" y="287"/>
      <point x="193" y="310"/>
      <point x="163" y="310" type="curve" smooth="yes"/>
      <point x="132" y="310"/>
      <point x="111" y="285"/>
      <point x="110" y="251" type="curve"/>
      <point x="139" y="249" type="line"/>
      <point x="119" y="259"/>
      <point x="106" y="273"/>
      <point x="106" y="292" type="curve" smooth="yes"/>
      <point x="106" y="317"/>
      <point x="129" y="343"/>
      <point x="168" y="343" type="curve" smooth="yes"/>
      <point x="212" y="343"/>
      <point x="243" y="311"/>
      <point x="254" y="247" type="curve"/>
      <point x="282" y="247" type="line"/>
      <point x="302" y="293"/>
      <point x="323" y="323"/>
      <point x="352" y="354" type="curve"/>
      <point x="305" y="364" type="line"/>
      <point x="329" y="339"/>
      <point x="347" y="309"/>
      <point x="347" y="280" type="curve" smooth="yes"/>
      <point x="347" y="223"/>
      <point x="281" y="174"/>
      <point x="170" y="174" type="curve" smooth="yes"/>
      <point x="131" y="174"/>
      <point x="80" y="180"/>
      <point x="41" y="190" type="curve"/>
      <point x="106" y="61" type="line"/>
      <point x="233" y="43"/>
      <point x="306" y="20"/>
      <point x="444" y="-55" type="curve"/>
    </contour>
    <contour>
      <point x="496" y="456" type="line"/>
      <point x="496" y="521" type="line"/>
      <point x="-30" y="521" type="line"/>
      <point x="-30" y="456" type="line"/>
    </contour>
  </outline>
</glyph>
<glyph name="bHa_bSignVocalicR" format="1">
  <advance width="567"/>
  <outline>
    <contour>
      <point x="597" y="521" type="line"/>
      <point x="597" y="456" type="line"/>
      <point x="-30" y="456" type="line"/>
      <point x="-30" y="521" type="line"/>
    </contour>
    <contour>
      <point x="314" y="432"/>
      <point x="397" y="352"/>
      <point x="397" y="256" type="curve" smooth="yes"/>
      <point x="397" y="159"/>
      <point x="312" y="91"/>
      <point x="202" y="91" type="curve"/>
      <point x="162" y="156" type="line"/>
      <point x="248" y="125"/>
      <point x="319" y="90"/>
      <point x="460" y="-10" type="curve"/>
      <point x="424" y="-55" type="line"/>
      <point x="286" y="27"/>
      <point x="213" y="51"/>
      <point x="86" y="71" type="curve"/>
      <point x="19" y="202" type="line"/>
      <point x="58" y="192"/>
      <point x="110" y="186"/>
      <point x="147" y="186" type="curve" smooth="yes"/>
      <point x="254" y="186"/>
      <point x="317" y="236"/>
      <point x="317" y="294" type="curve" smooth="yes"/>
      <point x="317" y="326"/>
      <point x="299" y="348"/>
      <point x="261" y="348" type="curve" smooth="yes"/>
      <point x="238" y="348"/>
      <point x="223" y="340"/>
      <point x="201" y="329" type="curve"/>
      <point x="220" y="390" type="line"/>
      <point x="233" y="373"/>
      <point x="236" y="357"/>
      <point x="236" y="343" type="curve" smooth="yes"/>
      <point x="236" y="286"/>
      <point x="187" y="239"/>
      <point x="128" y="239" type="curve" smooth="yes"/>
      <point x="77" y="239"/>
      <point x="40" y="275"/>
      <point x="40" y="321" type="curve" smooth="yes"/>
      <point x="40" y="382"/>
      <point x="106" y="432"/>
      <point x="198" y="432" type="curve" smooth="yes"/>
    </contour>
    <contour>
      <point x="346" y="313" type="line"/>
      <point x="380" y="353"/>
      <point x="402" y="368"/>
      <point x="427" y="368" type="curve" smooth="yes"/>
      <point x="467" y="368"/>
      <point x="527" y="295"/>
      <point x="527" y="241" type="curve" smooth="yes"/>
      <point x="527" y="132" type="line" smooth="yes"/>
      <point x="527" y="109"/>
      <point x="538" y="89"/>
      <point x="557" y="74" type="curve"/>
      <point x="529" y="35" type="line"/>
      <point x="482" y="61"/>
      <point x="450" y="92"/>
      <point x="450" y="152" type="curve" smooth="yes"/>
      <point x="450" y="265" type="line" smooth="yes"/>
      <point x="450" y="275"/>
      <point x="447" y="279"/>
      <point x="441" y="279" type="curve" smooth="yes"/>
      <point x="429" y="279"/>
      <point x="410" y="260"/>
      <point x="395" y="234" type="curve"/>
    </contour>
  </outline>
</glyph>
<glyph name="bI" format="1">
  <advance width="446"/>
  <outline>
    <contour>
      <point x="312" y="516" type="line"/>
      <point x="319" y="525"/>
      <point x="322" y="535"/>
      <point x="322" y="545" type="curve" smooth="yes"/>
      <point x="322" y="565"/>
      <point x="311" y="576"/>
      <point x="279" y="576" type="curve" smooth="yes"/>
      <point x="246" y="576"/>
      <point x="156" y="564"/>
      <point x="114" y="564" type="curve" smooth="yes"/>
      <point x="32" y="564"/>
      <point x="-29" y="610"/>
      <point x="-29" y="678" type="curve" smooth="yes"/>
      <point x="-29" y="712"/>
      <point x="-13" y="740"/>
      <point x="6" y="764" type="curve"/>
      <point x="50" y="738" type="line"/>
      <point x="37" y="721"/>
      <point x="29" y="703"/>
      <point x="29" y="690" type="curve" smooth="yes"/>
      <point x="29" y="673"/>
      <point x="43" y="663"/>
      <point x="78" y="663" type="curve" smooth="yes"/>
      <point x="117" y="663"/>
      <point x="182" y="675"/>
      <point x="223" y="675" type="curve" smooth="yes"/>
      <point x="325" y="675"/>
      <point x="382" y="601"/>
      <point x="391" y="515" type="curve"/>
    </contour>
    <contour>
      <point x="476" y="521" type="line"/>
      <point x="476" y="456" type="line"/>
      <point x="-30" y="456" type="line"/>
      <point x="-30" y="521" type="line"/>
    </contour>
    <contour>
      <point x="319" y="432"/>
      <point x="407" y="352"/>
      <point x="407" y="256" type="curve" smooth="yes"/>
      <point x="407" y="159"/>
      <point x="318" y="91"/>
      <point x="202" y="91" type="curve"/>
      <point x="162" y="156" type="line"/>
      <point x="248" y="125"/>
      <point x="319" y="90"/>
      <point x="460" y="-10" type="curve"/>
      <point x="424" y="-55" type="line"/>
      <point x="286" y="27"/>
      <point x="213" y="51"/>
      <point x="86" y="71" type="curve"/>
      <point x="19" y="202" type="line"/>
      <point x="58" y="192"/>
      <point x="109" y="186"/>
      <point x="148" y="186" type="curve" smooth="yes"/>
      <point x="259" y="186"/>
      <point x="327" y="236"/>
      <point x="327" y="294" type="curve" smooth="yes"/>
      <point x="327" y="326"/>
      <point x="305" y="348"/>
      <point x="263" y="348" type="curve" smooth="yes"/>
      <point x="237" y="348"/>
      <point x="223" y="340"/>
      <point x="201" y="329" type="curve"/>
      <point x="220" y="390" type="line"/>
      <point x="233" y="373"/>
      <point x="236" y="357"/>
      <point x="236" y="343" type="curve" smooth="yes"/>
      <point x="236" y="286"/>
      <point x="187" y="239"/>
      <point x="128" y="239" type="curve" smooth="yes"/>
      <point x="77" y="239"/>
      <point x="40" y="275"/>
      <point x="40" y="321" type="curve" smooth="yes"/>
      <point x="40" y="382"/>
      <point x="105" y="432"/>
      <point x="200" y="432" type="curve" smooth="yes"/>
    </contour>
  </outline>
</glyph>
<glyph name="bIi" format="1">
  <advance width="501"/>
  <outline>
    <contour>
      <point x="15" y="386"/>
      <point x="61" y="434"/>
      <point x="130" y="434" type="curve" smooth="yes"/>
      <point x="215" y="434"/>
      <point x="286" y="360"/>
      <point x="286" y="261" type="curve" smooth="yes"/>
      <point x="286" y="245"/>
      <point x="284" y="235"/>
      <point x="281" y="224" type="curve"/>
      <point x="236" y="267" type="line"/>
      <point x="285" y="333"/>
      <point x="343" y="388"/>
      <point x="412" y="421" type="curve"/>
      <point x="487" y="332" type="line"/>
      <point x="432" y="290"/>
      <point x="405" y="230"/>
      <point x="405" y="146" type="curve" smooth="yes"/>
      <point x="405" y="106"/>
      <point x="411" y="52"/>
      <point x="429" y="-14" type="curve"/>
      <point x="380" y="-32" type="line"/>
      <point x="348" y="52"/>
      <point x="331" y="118"/>
      <point x="331" y="182" type="curve" smooth="yes"/>
      <point x="331" y="237"/>
      <point x="344" y="293"/>
      <point x="387" y="351" type="curve"/>
      <point x="423" y="300" type="line"/>
      <point x="343" y="246"/>
      <point x="351" y="249"/>
      <point x="282" y="161" type="curve" smooth="yes"/>
      <point x="226" y="90"/>
      <point x="200" y="59"/>
      <point x="151" y="59" type="curve" smooth="yes"/>
      <point x="85" y="59"/>
      <point x="42" y="116"/>
      <point x="25" y="189" type="curve"/>
      <point x="73" y="209" type="line"/>
      <point x="80" y="188"/>
      <point x="93" y="164"/>
      <point x="118" y="164" type="curve" smooth="yes"/>
      <point x="162" y="164"/>
      <point x="223" y="240"/>
      <point x="223" y="291" type="curve" smooth="yes"/>
      <point x="223" y="317"/>
      <point x="208" y="341"/>
      <point x="180" y="341" type="curve" smooth="yes"/>
      <point x="161" y="341"/>
      <point x="144" y="330"/>
      <point x="131" y="315" type="curve"/>
      <point x="131" y="378" type="line"/>
      <point x="156" y="358"/>
      <point x="167" y="337"/>
      <point x="167" y="314" type="curve" smooth="yes"/>
      <point x="167" y="274"/>
      <point x="135" y="246"/>
      <point x="96" y="246" type="curve" smooth="yes"/>
      <point x="52" y="246"/>
      <point x="15" y="281"/>
      <point x="15" y="331" type="curve" smooth="yes"/>
    </contour>
    <contour>
      <point x="352" y="516" type="line"/>
      <point x="359" y="525"/>
      <point x="362" y="535"/>
      <point x="362" y="545" type="curve" smooth="yes"/>
      <point x="362" y="565"/>
      <point x="351" y="576"/>
      <point x="318" y="576" type="curve" smooth="yes"/>
      <point x="283" y="576"/>
      <point x="170" y="564"/>
      <point x="126" y="564" type="curve" smooth="yes"/>
      <point x="41" y="564"/>
      <point x="-19" y="610"/>
      <point x="-19" y="678" type="curve" smooth="yes"/>
      <point x="-19" y="712"/>
      <point x="-3" y="740"/>
      <point x="16" y="764" type="curve"/>
      <point x="60" y="738" type="line"/>
      <point x="47" y="721"/>
      <point x="39" y="703"/>
      <point x="39" y="690" type="curve" smooth="yes"/>
      <point x="39" y="673"/>
      <point x="53" y="663"/>
      <point x="90" y="663" type="curve" smooth="yes"/>
      <point x="131" y="663"/>
      <point x="218" y="675"/>
      <point x="260" y="675" type="curve" smooth="yes"/>
      <point x="366" y="675"/>
      <point x="422" y="601"/>
      <point x="431" y="515" type="curve"/>
    </contour>
    <contour>
      <point x="531" y="521" type="line"/>
      <point x="531" y="456" type="line"/>
      <point x="-30" y="456" type="line"/>
      <point x="-30" y="521" type="line"/>
    </contour>
  </outline>
</glyph>
<glyph name="bIsshar" format="1">
  <advance width="491"/>
  <outline>
    <contour>
      <point x="120" y="332" type="line"/>
      <point x="109" y="307"/>
      <point x="105" y="285"/>
      <point x="105" y="268" type="curve" smooth="yes"/>
      <point x="105" y="215"/>
      <point x="143" y="183"/>
      <point x="195" y="183" type="curve" smooth="yes"/>
      <point x="274" y="183"/>
      <point x="340" y="256"/>
      <point x="413" y="384" type="curve"/>
      <point x="471" y="351" type="line"/>
      <point x="395" y="209"/>
      <point x="322" y="79"/>
      <point x="200" y="79" type="curve" smooth="yes"/>
      <point x="103" y="79"/>
      <point x="40" y="162"/>
      <point x="40" y="261" type="curve" smooth="yes"/>
      <point x="40" y="298"/>
      <point x="49" y="329"/>
      <point x="63" y="356" type="curve"/>
    </contour>
    <contour>
      <point x="241" y="233"/>
      <point x="262" y="254"/>
      <point x="262" y="280" type="curve" smooth="yes"/>
      <point x="262" y="306"/>
      <point x="241" y="327"/>
      <point x="215" y="327" type="curve" smooth="yes"/>
      <point x="188" y="327"/>
      <point x="167" y="306"/>
      <point x="167" y="280" type="curve" smooth="yes"/>
      <point x="167" y="254"/>
      <point x="188" y="233"/>
      <point x="215" y="233" type="curve" smooth="yes"/>
    </contour>
  </outline>
</glyph>
<glyph name="bJBa" format="1">
  <advance width="608"/>
  <outline>
    <contour>
      <point x="-30" y="456" type="line"/>
      <point x="-30" y="521" type="line"/>
      <point x="638" y="521" type="line"/>
      <point x="638" y="456" type="line"/>
    </contour>
    <contour>
      <point x="524" y="241"/>
      <point x="506" y="170"/>
      <point x="506" y="85" type="curve" smooth="yes"/>
      <point x="506" y="50"/>
      <point x="509" y="-29"/>
      <point x="522" y="-99" type="curve"/>
      <point x="467" y="-108" type="line"/>
      <point x="446" y="-6"/>
      <point x="437" y="77"/>
      <point x="437" y="142" type="curve" smooth="yes"/>
      <point x="437" y="234"/>
      <point x="455" y="327"/>
      <point x="496" y="385" type="curve"/>
      <point x="534" y="335" type="line"/>
      <point x="505" y="320"/>
      <point x="478" y="313"/>
      <point x="447" y="313" type="curve" smooth="yes"/>
      <point x="380" y="313"/>
      <point x="335" y="345"/>
      <point x="283" y="425" type="curve"/>
      <point x="318" y="419" type="line"/>
      <point x="219" y="354"/>
      <point x="204" y="319"/>
      <point x="204" y="301" type="curve" smooth="yes"/>
      <point x="204" y="288"/>
      <point x="213" y="283"/>
      <point x="225" y="283" type="curve" smooth="yes"/>
      <point x="246" y="283"/>
      <point x="277" y="299"/>
      <point x="326" y="338" type="curve"/>
      <point x="376" y="298"/>
      <point x="412" y="237"/>
      <point x="412" y="180" type="curve" smooth="yes"/>
      <point x="412" y="109"/>
      <point x="355" y="50"/>
      <point x="268" y="50" type="curve" smooth="yes"/>
      <point x="144" y="50"/>
      <point x="44" y="171"/>
      <point x="4" y="407" type="curve"/>
      <point x="59" y="421" type="line"/>
      <point x="84" y="274"/>
      <point x="142" y="153"/>
      <point x="248" y="153" type="curve" smooth="yes"/>
      <point x="297" y="153"/>
      <point x="338" y="179"/>
      <point x="338" y="217" type="curve" smooth="yes"/>
      <point x="338" y="237"/>
      <point x="326" y="264"/>
      <point x="311" y="275" type="curve"/>
      <point x="383" y="252" type="line"/>
      <point x="350" y="217"/>
      <point x="301" y="196"/>
      <point x="262" y="196" type="curve" smooth="yes"/>
      <point x="183" y="196"/>
      <point x="128" y="283"/>
      <point x="128" y="342" type="curve" smooth="yes"/>
      <point x="128" y="398"/>
      <point x="179" y="452"/>
      <point x="248" y="490" type="curve"/>
      <point x="300" y="494" type="line"/>
      <point x="331" y="432"/>
      <point x="375" y="405"/>
      <point x="419" y="405" type="curve" smooth="yes"/>
      <point x="440" y="405"/>
      <point x="470" y="411"/>
      <point x="494" y="424" type="curve"/>
      <point x="581" y="320" type="line"/>
    </contour>
    <contour>
      <point x="467" y="-108" type="line"/>
      <point x="450" y="-81"/>
      <point x="404" y="-64"/>
      <point x="336" y="-62" type="curve"/>
      <point x="267" y="29" type="line"/>
      <point x="343" y="76"/>
      <point x="391" y="103"/>
      <point x="465" y="138" type="curve"/>
      <point x="502" y="54" type="line"/>
      <point x="459" y="40"/>
      <point x="411" y="16"/>
      <point x="359" y="-17" type="curve"/>
      <point x="324" y="15" type="line"/>
      <point x="411" y="-1"/>
      <point x="465" y="-34"/>
      <point x="491" y="-76" type="curve"/>
    </contour>
  </outline>
</glyph>
